G04 #@! TF.GenerationSoftware,KiCad,Pcbnew,7.0.2*
G04 #@! TF.CreationDate,2023-11-21T13:08:24+01:00*
G04 #@! TF.ProjectId,ZDG_ELEKTRONIKA_D-class_AMP,5a44475f-454c-4454-9b54-524f4e494b41,rev?*
G04 #@! TF.SameCoordinates,Original*
G04 #@! TF.FileFunction,Copper,L1,Top*
G04 #@! TF.FilePolarity,Positive*
%FSLAX46Y46*%
G04 Gerber Fmt 4.6, Leading zero omitted, Abs format (unit mm)*
G04 Created by KiCad (PCBNEW 7.0.2) date 2023-11-21 13:08:24*
%MOMM*%
%LPD*%
G01*
G04 APERTURE LIST*
G04 Aperture macros list*
%AMRoundRect*
0 Rectangle with rounded corners*
0 $1 Rounding radius*
0 $2 $3 $4 $5 $6 $7 $8 $9 X,Y pos of 4 corners*
0 Add a 4 corners polygon primitive as box body*
4,1,4,$2,$3,$4,$5,$6,$7,$8,$9,$2,$3,0*
0 Add four circle primitives for the rounded corners*
1,1,$1+$1,$2,$3*
1,1,$1+$1,$4,$5*
1,1,$1+$1,$6,$7*
1,1,$1+$1,$8,$9*
0 Add four rect primitives between the rounded corners*
20,1,$1+$1,$2,$3,$4,$5,0*
20,1,$1+$1,$4,$5,$6,$7,0*
20,1,$1+$1,$6,$7,$8,$9,0*
20,1,$1+$1,$8,$9,$2,$3,0*%
%AMOutline4P*
0 Free polygon, 4 corners , with rotation*
0 The origin of the aperture is its center*
0 number of corners: always 4*
0 $1 to $8 corner X, Y*
0 $9 Rotation angle, in degrees counterclockwise*
0 create outline with 4 corners*
4,1,4,$1,$2,$3,$4,$5,$6,$7,$8,$1,$2,$9*%
G04 Aperture macros list end*
%ADD10C,0.175000*%
G04 #@! TA.AperFunction,NonConductor*
%ADD11C,0.175000*%
G04 #@! TD*
G04 #@! TA.AperFunction,ComponentPad*
%ADD12C,5.600000*%
G04 #@! TD*
G04 #@! TA.AperFunction,SMDPad,CuDef*
%ADD13RoundRect,0.250000X-1.050000X-0.550000X1.050000X-0.550000X1.050000X0.550000X-1.050000X0.550000X0*%
G04 #@! TD*
G04 #@! TA.AperFunction,ComponentPad*
%ADD14R,4.600000X2.000000*%
G04 #@! TD*
G04 #@! TA.AperFunction,ComponentPad*
%ADD15O,4.200000X2.000000*%
G04 #@! TD*
G04 #@! TA.AperFunction,ComponentPad*
%ADD16O,2.000000X4.200000*%
G04 #@! TD*
G04 #@! TA.AperFunction,ComponentPad*
%ADD17C,3.000000*%
G04 #@! TD*
G04 #@! TA.AperFunction,SMDPad,CuDef*
%ADD18RoundRect,0.475000X-0.475000X-2.075000X0.475000X-2.075000X0.475000X2.075000X-0.475000X2.075000X0*%
G04 #@! TD*
G04 #@! TA.AperFunction,SMDPad,CuDef*
%ADD19Outline4P,-1.800000X-1.150000X1.800000X-0.550000X1.800000X0.550000X-1.800000X1.150000X270.000000*%
G04 #@! TD*
G04 #@! TA.AperFunction,SMDPad,CuDef*
%ADD20Outline4P,-1.800000X-1.150000X1.800000X-0.550000X1.800000X0.550000X-1.800000X1.150000X90.000000*%
G04 #@! TD*
G04 #@! TA.AperFunction,SMDPad,CuDef*
%ADD21RoundRect,0.237500X0.300000X0.237500X-0.300000X0.237500X-0.300000X-0.237500X0.300000X-0.237500X0*%
G04 #@! TD*
G04 #@! TA.AperFunction,SMDPad,CuDef*
%ADD22RoundRect,0.237500X-0.237500X0.300000X-0.237500X-0.300000X0.237500X-0.300000X0.237500X0.300000X0*%
G04 #@! TD*
G04 #@! TA.AperFunction,SMDPad,CuDef*
%ADD23RoundRect,0.237500X-0.237500X0.250000X-0.237500X-0.250000X0.237500X-0.250000X0.237500X0.250000X0*%
G04 #@! TD*
G04 #@! TA.AperFunction,ComponentPad*
%ADD24C,2.000000*%
G04 #@! TD*
G04 #@! TA.AperFunction,SMDPad,CuDef*
%ADD25RoundRect,0.237500X-0.300000X-0.237500X0.300000X-0.237500X0.300000X0.237500X-0.300000X0.237500X0*%
G04 #@! TD*
G04 #@! TA.AperFunction,SMDPad,CuDef*
%ADD26RoundRect,0.237500X-0.237500X0.287500X-0.237500X-0.287500X0.237500X-0.287500X0.237500X0.287500X0*%
G04 #@! TD*
G04 #@! TA.AperFunction,SMDPad,CuDef*
%ADD27RoundRect,0.237500X0.237500X-0.300000X0.237500X0.300000X-0.237500X0.300000X-0.237500X-0.300000X0*%
G04 #@! TD*
G04 #@! TA.AperFunction,SMDPad,CuDef*
%ADD28RoundRect,0.100000X-0.637500X-0.100000X0.637500X-0.100000X0.637500X0.100000X-0.637500X0.100000X0*%
G04 #@! TD*
G04 #@! TA.AperFunction,SMDPad,CuDef*
%ADD29R,2.850000X5.400000*%
G04 #@! TD*
G04 #@! TA.AperFunction,ViaPad*
%ADD30C,0.800000*%
G04 #@! TD*
G04 #@! TA.AperFunction,Conductor*
%ADD31C,0.400000*%
G04 #@! TD*
G04 #@! TA.AperFunction,Conductor*
%ADD32C,0.500000*%
G04 #@! TD*
G04 #@! TA.AperFunction,Conductor*
%ADD33C,0.300000*%
G04 #@! TD*
G04 #@! TA.AperFunction,Conductor*
%ADD34C,0.200000*%
G04 #@! TD*
G04 #@! TA.AperFunction,Conductor*
%ADD35C,1.000000*%
G04 #@! TD*
G04 APERTURE END LIST*
D10*
D11*
X27166667Y-32646333D02*
X27166667Y-31946333D01*
X27166667Y-31946333D02*
X27333334Y-31946333D01*
X27333334Y-31946333D02*
X27433334Y-31979666D01*
X27433334Y-31979666D02*
X27500001Y-32046333D01*
X27500001Y-32046333D02*
X27533334Y-32113000D01*
X27533334Y-32113000D02*
X27566667Y-32246333D01*
X27566667Y-32246333D02*
X27566667Y-32346333D01*
X27566667Y-32346333D02*
X27533334Y-32479666D01*
X27533334Y-32479666D02*
X27500001Y-32546333D01*
X27500001Y-32546333D02*
X27433334Y-32613000D01*
X27433334Y-32613000D02*
X27333334Y-32646333D01*
X27333334Y-32646333D02*
X27166667Y-32646333D01*
X28133334Y-32613000D02*
X28066667Y-32646333D01*
X28066667Y-32646333D02*
X27933334Y-32646333D01*
X27933334Y-32646333D02*
X27866667Y-32613000D01*
X27866667Y-32613000D02*
X27833334Y-32546333D01*
X27833334Y-32546333D02*
X27833334Y-32279666D01*
X27833334Y-32279666D02*
X27866667Y-32213000D01*
X27866667Y-32213000D02*
X27933334Y-32179666D01*
X27933334Y-32179666D02*
X28066667Y-32179666D01*
X28066667Y-32179666D02*
X28133334Y-32213000D01*
X28133334Y-32213000D02*
X28166667Y-32279666D01*
X28166667Y-32279666D02*
X28166667Y-32346333D01*
X28166667Y-32346333D02*
X27833334Y-32413000D01*
X28433334Y-32613000D02*
X28500001Y-32646333D01*
X28500001Y-32646333D02*
X28633334Y-32646333D01*
X28633334Y-32646333D02*
X28700001Y-32613000D01*
X28700001Y-32613000D02*
X28733334Y-32546333D01*
X28733334Y-32546333D02*
X28733334Y-32513000D01*
X28733334Y-32513000D02*
X28700001Y-32446333D01*
X28700001Y-32446333D02*
X28633334Y-32413000D01*
X28633334Y-32413000D02*
X28533334Y-32413000D01*
X28533334Y-32413000D02*
X28466667Y-32379666D01*
X28466667Y-32379666D02*
X28433334Y-32313000D01*
X28433334Y-32313000D02*
X28433334Y-32279666D01*
X28433334Y-32279666D02*
X28466667Y-32213000D01*
X28466667Y-32213000D02*
X28533334Y-32179666D01*
X28533334Y-32179666D02*
X28633334Y-32179666D01*
X28633334Y-32179666D02*
X28700001Y-32213000D01*
X29033334Y-32646333D02*
X29033334Y-32179666D01*
X29033334Y-31946333D02*
X29000001Y-31979666D01*
X29000001Y-31979666D02*
X29033334Y-32013000D01*
X29033334Y-32013000D02*
X29066668Y-31979666D01*
X29066668Y-31979666D02*
X29033334Y-31946333D01*
X29033334Y-31946333D02*
X29033334Y-32013000D01*
X29666667Y-32179666D02*
X29666667Y-32746333D01*
X29666667Y-32746333D02*
X29633334Y-32813000D01*
X29633334Y-32813000D02*
X29600001Y-32846333D01*
X29600001Y-32846333D02*
X29533334Y-32879666D01*
X29533334Y-32879666D02*
X29433334Y-32879666D01*
X29433334Y-32879666D02*
X29366667Y-32846333D01*
X29666667Y-32613000D02*
X29600001Y-32646333D01*
X29600001Y-32646333D02*
X29466667Y-32646333D01*
X29466667Y-32646333D02*
X29400001Y-32613000D01*
X29400001Y-32613000D02*
X29366667Y-32579666D01*
X29366667Y-32579666D02*
X29333334Y-32513000D01*
X29333334Y-32513000D02*
X29333334Y-32313000D01*
X29333334Y-32313000D02*
X29366667Y-32246333D01*
X29366667Y-32246333D02*
X29400001Y-32213000D01*
X29400001Y-32213000D02*
X29466667Y-32179666D01*
X29466667Y-32179666D02*
X29600001Y-32179666D01*
X29600001Y-32179666D02*
X29666667Y-32213000D01*
X30000000Y-32179666D02*
X30000000Y-32646333D01*
X30000000Y-32246333D02*
X30033334Y-32213000D01*
X30033334Y-32213000D02*
X30100000Y-32179666D01*
X30100000Y-32179666D02*
X30200000Y-32179666D01*
X30200000Y-32179666D02*
X30266667Y-32213000D01*
X30266667Y-32213000D02*
X30300000Y-32279666D01*
X30300000Y-32279666D02*
X30300000Y-32646333D01*
X30900000Y-32613000D02*
X30833333Y-32646333D01*
X30833333Y-32646333D02*
X30700000Y-32646333D01*
X30700000Y-32646333D02*
X30633333Y-32613000D01*
X30633333Y-32613000D02*
X30600000Y-32546333D01*
X30600000Y-32546333D02*
X30600000Y-32279666D01*
X30600000Y-32279666D02*
X30633333Y-32213000D01*
X30633333Y-32213000D02*
X30700000Y-32179666D01*
X30700000Y-32179666D02*
X30833333Y-32179666D01*
X30833333Y-32179666D02*
X30900000Y-32213000D01*
X30900000Y-32213000D02*
X30933333Y-32279666D01*
X30933333Y-32279666D02*
X30933333Y-32346333D01*
X30933333Y-32346333D02*
X30600000Y-32413000D01*
X31533333Y-32646333D02*
X31533333Y-31946333D01*
X31533333Y-32613000D02*
X31466667Y-32646333D01*
X31466667Y-32646333D02*
X31333333Y-32646333D01*
X31333333Y-32646333D02*
X31266667Y-32613000D01*
X31266667Y-32613000D02*
X31233333Y-32579666D01*
X31233333Y-32579666D02*
X31200000Y-32513000D01*
X31200000Y-32513000D02*
X31200000Y-32313000D01*
X31200000Y-32313000D02*
X31233333Y-32246333D01*
X31233333Y-32246333D02*
X31266667Y-32213000D01*
X31266667Y-32213000D02*
X31333333Y-32179666D01*
X31333333Y-32179666D02*
X31466667Y-32179666D01*
X31466667Y-32179666D02*
X31533333Y-32213000D01*
X32399999Y-32646333D02*
X32399999Y-31946333D01*
X32399999Y-32213000D02*
X32466666Y-32179666D01*
X32466666Y-32179666D02*
X32599999Y-32179666D01*
X32599999Y-32179666D02*
X32666666Y-32213000D01*
X32666666Y-32213000D02*
X32699999Y-32246333D01*
X32699999Y-32246333D02*
X32733333Y-32313000D01*
X32733333Y-32313000D02*
X32733333Y-32513000D01*
X32733333Y-32513000D02*
X32699999Y-32579666D01*
X32699999Y-32579666D02*
X32666666Y-32613000D01*
X32666666Y-32613000D02*
X32599999Y-32646333D01*
X32599999Y-32646333D02*
X32466666Y-32646333D01*
X32466666Y-32646333D02*
X32399999Y-32613000D01*
X32966666Y-32179666D02*
X33133332Y-32646333D01*
X33299999Y-32179666D02*
X33133332Y-32646333D01*
X33133332Y-32646333D02*
X33066666Y-32813000D01*
X33066666Y-32813000D02*
X33033332Y-32846333D01*
X33033332Y-32846333D02*
X32966666Y-32879666D01*
X26400001Y-33780333D02*
X26400001Y-33080333D01*
X26800001Y-33780333D02*
X26500001Y-33380333D01*
X26800001Y-33080333D02*
X26400001Y-33480333D01*
X27400001Y-33780333D02*
X27400001Y-33413666D01*
X27400001Y-33413666D02*
X27366668Y-33347000D01*
X27366668Y-33347000D02*
X27300001Y-33313666D01*
X27300001Y-33313666D02*
X27166668Y-33313666D01*
X27166668Y-33313666D02*
X27100001Y-33347000D01*
X27400001Y-33747000D02*
X27333335Y-33780333D01*
X27333335Y-33780333D02*
X27166668Y-33780333D01*
X27166668Y-33780333D02*
X27100001Y-33747000D01*
X27100001Y-33747000D02*
X27066668Y-33680333D01*
X27066668Y-33680333D02*
X27066668Y-33613666D01*
X27066668Y-33613666D02*
X27100001Y-33547000D01*
X27100001Y-33547000D02*
X27166668Y-33513666D01*
X27166668Y-33513666D02*
X27333335Y-33513666D01*
X27333335Y-33513666D02*
X27400001Y-33480333D01*
X27733334Y-33780333D02*
X27733334Y-33313666D01*
X27733334Y-33447000D02*
X27766668Y-33380333D01*
X27766668Y-33380333D02*
X27800001Y-33347000D01*
X27800001Y-33347000D02*
X27866668Y-33313666D01*
X27866668Y-33313666D02*
X27933334Y-33313666D01*
X28266667Y-33780333D02*
X28200001Y-33747000D01*
X28200001Y-33747000D02*
X28166667Y-33713666D01*
X28166667Y-33713666D02*
X28133334Y-33647000D01*
X28133334Y-33647000D02*
X28133334Y-33447000D01*
X28133334Y-33447000D02*
X28166667Y-33380333D01*
X28166667Y-33380333D02*
X28200001Y-33347000D01*
X28200001Y-33347000D02*
X28266667Y-33313666D01*
X28266667Y-33313666D02*
X28366667Y-33313666D01*
X28366667Y-33313666D02*
X28433334Y-33347000D01*
X28433334Y-33347000D02*
X28466667Y-33380333D01*
X28466667Y-33380333D02*
X28500001Y-33447000D01*
X28500001Y-33447000D02*
X28500001Y-33647000D01*
X28500001Y-33647000D02*
X28466667Y-33713666D01*
X28466667Y-33713666D02*
X28433334Y-33747000D01*
X28433334Y-33747000D02*
X28366667Y-33780333D01*
X28366667Y-33780333D02*
X28266667Y-33780333D01*
X28900000Y-33780333D02*
X28833334Y-33747000D01*
X28833334Y-33747000D02*
X28800000Y-33680333D01*
X28800000Y-33680333D02*
X28800000Y-33080333D01*
X29666667Y-33580333D02*
X30000000Y-33580333D01*
X29600000Y-33780333D02*
X29833334Y-33080333D01*
X29833334Y-33080333D02*
X30066667Y-33780333D01*
X30600000Y-33313666D02*
X30600000Y-33780333D01*
X30300000Y-33313666D02*
X30300000Y-33680333D01*
X30300000Y-33680333D02*
X30333334Y-33747000D01*
X30333334Y-33747000D02*
X30400000Y-33780333D01*
X30400000Y-33780333D02*
X30500000Y-33780333D01*
X30500000Y-33780333D02*
X30566667Y-33747000D01*
X30566667Y-33747000D02*
X30600000Y-33713666D01*
X31233333Y-33313666D02*
X31233333Y-33880333D01*
X31233333Y-33880333D02*
X31200000Y-33947000D01*
X31200000Y-33947000D02*
X31166667Y-33980333D01*
X31166667Y-33980333D02*
X31100000Y-34013666D01*
X31100000Y-34013666D02*
X31000000Y-34013666D01*
X31000000Y-34013666D02*
X30933333Y-33980333D01*
X31233333Y-33747000D02*
X31166667Y-33780333D01*
X31166667Y-33780333D02*
X31033333Y-33780333D01*
X31033333Y-33780333D02*
X30966667Y-33747000D01*
X30966667Y-33747000D02*
X30933333Y-33713666D01*
X30933333Y-33713666D02*
X30900000Y-33647000D01*
X30900000Y-33647000D02*
X30900000Y-33447000D01*
X30900000Y-33447000D02*
X30933333Y-33380333D01*
X30933333Y-33380333D02*
X30966667Y-33347000D01*
X30966667Y-33347000D02*
X31033333Y-33313666D01*
X31033333Y-33313666D02*
X31166667Y-33313666D01*
X31166667Y-33313666D02*
X31233333Y-33347000D01*
X31866666Y-33313666D02*
X31866666Y-33780333D01*
X31566666Y-33313666D02*
X31566666Y-33680333D01*
X31566666Y-33680333D02*
X31600000Y-33747000D01*
X31600000Y-33747000D02*
X31666666Y-33780333D01*
X31666666Y-33780333D02*
X31766666Y-33780333D01*
X31766666Y-33780333D02*
X31833333Y-33747000D01*
X31833333Y-33747000D02*
X31866666Y-33713666D01*
X32166666Y-33747000D02*
X32233333Y-33780333D01*
X32233333Y-33780333D02*
X32366666Y-33780333D01*
X32366666Y-33780333D02*
X32433333Y-33747000D01*
X32433333Y-33747000D02*
X32466666Y-33680333D01*
X32466666Y-33680333D02*
X32466666Y-33647000D01*
X32466666Y-33647000D02*
X32433333Y-33580333D01*
X32433333Y-33580333D02*
X32366666Y-33547000D01*
X32366666Y-33547000D02*
X32266666Y-33547000D01*
X32266666Y-33547000D02*
X32199999Y-33513666D01*
X32199999Y-33513666D02*
X32166666Y-33447000D01*
X32166666Y-33447000D02*
X32166666Y-33413666D01*
X32166666Y-33413666D02*
X32199999Y-33347000D01*
X32199999Y-33347000D02*
X32266666Y-33313666D01*
X32266666Y-33313666D02*
X32366666Y-33313666D01*
X32366666Y-33313666D02*
X32433333Y-33347000D01*
X32666666Y-33313666D02*
X32933333Y-33313666D01*
X32766666Y-33080333D02*
X32766666Y-33680333D01*
X32766666Y-33680333D02*
X32800000Y-33747000D01*
X32800000Y-33747000D02*
X32866666Y-33780333D01*
X32866666Y-33780333D02*
X32933333Y-33780333D01*
X33100000Y-33313666D02*
X33266666Y-33780333D01*
X33433333Y-33313666D02*
X33266666Y-33780333D01*
X33266666Y-33780333D02*
X33200000Y-33947000D01*
X33200000Y-33947000D02*
X33166666Y-33980333D01*
X33166666Y-33980333D02*
X33100000Y-34013666D01*
X33699999Y-33313666D02*
X33699999Y-33780333D01*
X33699999Y-33380333D02*
X33733333Y-33347000D01*
X33733333Y-33347000D02*
X33799999Y-33313666D01*
X33799999Y-33313666D02*
X33899999Y-33313666D01*
X33899999Y-33313666D02*
X33966666Y-33347000D01*
X33966666Y-33347000D02*
X33999999Y-33413666D01*
X33999999Y-33413666D02*
X33999999Y-33780333D01*
X26799998Y-34281000D02*
X26833331Y-34247666D01*
X26833331Y-34247666D02*
X26899998Y-34214333D01*
X26899998Y-34214333D02*
X27066665Y-34214333D01*
X27066665Y-34214333D02*
X27133331Y-34247666D01*
X27133331Y-34247666D02*
X27166665Y-34281000D01*
X27166665Y-34281000D02*
X27199998Y-34347666D01*
X27199998Y-34347666D02*
X27199998Y-34414333D01*
X27199998Y-34414333D02*
X27166665Y-34514333D01*
X27166665Y-34514333D02*
X26766665Y-34914333D01*
X26766665Y-34914333D02*
X27199998Y-34914333D01*
X27633332Y-34214333D02*
X27699998Y-34214333D01*
X27699998Y-34214333D02*
X27766665Y-34247666D01*
X27766665Y-34247666D02*
X27799998Y-34281000D01*
X27799998Y-34281000D02*
X27833332Y-34347666D01*
X27833332Y-34347666D02*
X27866665Y-34481000D01*
X27866665Y-34481000D02*
X27866665Y-34647666D01*
X27866665Y-34647666D02*
X27833332Y-34781000D01*
X27833332Y-34781000D02*
X27799998Y-34847666D01*
X27799998Y-34847666D02*
X27766665Y-34881000D01*
X27766665Y-34881000D02*
X27699998Y-34914333D01*
X27699998Y-34914333D02*
X27633332Y-34914333D01*
X27633332Y-34914333D02*
X27566665Y-34881000D01*
X27566665Y-34881000D02*
X27533332Y-34847666D01*
X27533332Y-34847666D02*
X27499998Y-34781000D01*
X27499998Y-34781000D02*
X27466665Y-34647666D01*
X27466665Y-34647666D02*
X27466665Y-34481000D01*
X27466665Y-34481000D02*
X27499998Y-34347666D01*
X27499998Y-34347666D02*
X27533332Y-34281000D01*
X27533332Y-34281000D02*
X27566665Y-34247666D01*
X27566665Y-34247666D02*
X27633332Y-34214333D01*
X28166665Y-34647666D02*
X28699999Y-34647666D01*
X29399999Y-34914333D02*
X28999999Y-34914333D01*
X29199999Y-34914333D02*
X29199999Y-34214333D01*
X29199999Y-34214333D02*
X29133332Y-34314333D01*
X29133332Y-34314333D02*
X29066666Y-34381000D01*
X29066666Y-34381000D02*
X28999999Y-34414333D01*
X30066666Y-34914333D02*
X29666666Y-34914333D01*
X29866666Y-34914333D02*
X29866666Y-34214333D01*
X29866666Y-34214333D02*
X29799999Y-34314333D01*
X29799999Y-34314333D02*
X29733333Y-34381000D01*
X29733333Y-34381000D02*
X29666666Y-34414333D01*
X30366666Y-34647666D02*
X30900000Y-34647666D01*
X31200000Y-34281000D02*
X31233333Y-34247666D01*
X31233333Y-34247666D02*
X31300000Y-34214333D01*
X31300000Y-34214333D02*
X31466667Y-34214333D01*
X31466667Y-34214333D02*
X31533333Y-34247666D01*
X31533333Y-34247666D02*
X31566667Y-34281000D01*
X31566667Y-34281000D02*
X31600000Y-34347666D01*
X31600000Y-34347666D02*
X31600000Y-34414333D01*
X31600000Y-34414333D02*
X31566667Y-34514333D01*
X31566667Y-34514333D02*
X31166667Y-34914333D01*
X31166667Y-34914333D02*
X31600000Y-34914333D01*
X32033334Y-34214333D02*
X32100000Y-34214333D01*
X32100000Y-34214333D02*
X32166667Y-34247666D01*
X32166667Y-34247666D02*
X32200000Y-34281000D01*
X32200000Y-34281000D02*
X32233334Y-34347666D01*
X32233334Y-34347666D02*
X32266667Y-34481000D01*
X32266667Y-34481000D02*
X32266667Y-34647666D01*
X32266667Y-34647666D02*
X32233334Y-34781000D01*
X32233334Y-34781000D02*
X32200000Y-34847666D01*
X32200000Y-34847666D02*
X32166667Y-34881000D01*
X32166667Y-34881000D02*
X32100000Y-34914333D01*
X32100000Y-34914333D02*
X32033334Y-34914333D01*
X32033334Y-34914333D02*
X31966667Y-34881000D01*
X31966667Y-34881000D02*
X31933334Y-34847666D01*
X31933334Y-34847666D02*
X31900000Y-34781000D01*
X31900000Y-34781000D02*
X31866667Y-34647666D01*
X31866667Y-34647666D02*
X31866667Y-34481000D01*
X31866667Y-34481000D02*
X31900000Y-34347666D01*
X31900000Y-34347666D02*
X31933334Y-34281000D01*
X31933334Y-34281000D02*
X31966667Y-34247666D01*
X31966667Y-34247666D02*
X32033334Y-34214333D01*
X32533334Y-34281000D02*
X32566667Y-34247666D01*
X32566667Y-34247666D02*
X32633334Y-34214333D01*
X32633334Y-34214333D02*
X32800001Y-34214333D01*
X32800001Y-34214333D02*
X32866667Y-34247666D01*
X32866667Y-34247666D02*
X32900001Y-34281000D01*
X32900001Y-34281000D02*
X32933334Y-34347666D01*
X32933334Y-34347666D02*
X32933334Y-34414333D01*
X32933334Y-34414333D02*
X32900001Y-34514333D01*
X32900001Y-34514333D02*
X32500001Y-34914333D01*
X32500001Y-34914333D02*
X32933334Y-34914333D01*
X33166668Y-34214333D02*
X33600001Y-34214333D01*
X33600001Y-34214333D02*
X33366668Y-34481000D01*
X33366668Y-34481000D02*
X33466668Y-34481000D01*
X33466668Y-34481000D02*
X33533334Y-34514333D01*
X33533334Y-34514333D02*
X33566668Y-34547666D01*
X33566668Y-34547666D02*
X33600001Y-34614333D01*
X33600001Y-34614333D02*
X33600001Y-34781000D01*
X33600001Y-34781000D02*
X33566668Y-34847666D01*
X33566668Y-34847666D02*
X33533334Y-34881000D01*
X33533334Y-34881000D02*
X33466668Y-34914333D01*
X33466668Y-34914333D02*
X33266668Y-34914333D01*
X33266668Y-34914333D02*
X33200001Y-34881000D01*
X33200001Y-34881000D02*
X33166668Y-34847666D01*
D12*
X78000000Y-34000000D03*
D13*
X43012500Y-11475000D03*
X46612500Y-11475000D03*
D14*
X30650000Y-14350000D03*
D15*
X30650000Y-8050000D03*
D16*
X25850000Y-11450000D03*
D17*
X74265000Y-9885000D03*
X74265000Y-26115000D03*
X61565000Y-9885000D03*
X61565000Y-26115000D03*
D18*
X47750000Y-27250000D03*
X51950000Y-27250000D03*
D19*
X38500000Y-7850000D03*
D20*
X38500000Y-13650000D03*
D21*
X34525000Y-23800000D03*
X32800000Y-23800000D03*
D22*
X52000000Y-31525000D03*
X52000000Y-33250000D03*
D23*
X42750000Y-5425000D03*
X42750000Y-7250000D03*
D22*
X52000000Y-11775000D03*
X52000000Y-13500000D03*
D24*
X61500000Y-5850000D03*
D21*
X28975000Y-22300000D03*
X27250000Y-22300000D03*
D22*
X45500000Y-25000000D03*
X45500000Y-26725000D03*
D12*
X78000000Y-4000000D03*
X4000000Y-4000000D03*
D25*
X42362500Y-30500000D03*
X44087500Y-30500000D03*
D17*
X3735000Y-27115000D03*
X3735000Y-10885000D03*
X16435000Y-27115000D03*
X16435000Y-10885000D03*
D25*
X27250000Y-25750000D03*
X28975000Y-25750000D03*
D26*
X32750000Y-16787500D03*
X32750000Y-18537500D03*
D25*
X42362500Y-16475000D03*
X44087500Y-16475000D03*
D23*
X34500000Y-16750000D03*
X34500000Y-18575000D03*
D13*
X42950000Y-33750000D03*
X46550000Y-33750000D03*
D26*
X42750000Y-1925000D03*
X42750000Y-3675000D03*
D24*
X65625000Y-5850000D03*
D25*
X8300000Y-4000000D03*
X10025000Y-4000000D03*
D27*
X45500000Y-20000000D03*
X45500000Y-18275000D03*
D23*
X25450000Y-24825000D03*
X25450000Y-26650000D03*
X22750000Y-5500000D03*
X22750000Y-7325000D03*
D21*
X9900000Y-34000000D03*
X8175000Y-34000000D03*
D26*
X22750000Y-1875000D03*
X22750000Y-3625000D03*
D28*
X36387500Y-18275000D03*
X36387500Y-18925000D03*
X36387500Y-19575000D03*
X36387500Y-20225000D03*
X36387500Y-20875000D03*
X36387500Y-21525000D03*
X36387500Y-22175000D03*
X36387500Y-22825000D03*
X36387500Y-23475000D03*
X36387500Y-24125000D03*
X36387500Y-24775000D03*
X36387500Y-25425000D03*
X36387500Y-26075000D03*
X36387500Y-26725000D03*
X42112500Y-26725000D03*
X42112500Y-26075000D03*
X42112500Y-25425000D03*
X42112500Y-24775000D03*
X42112500Y-24125000D03*
X42112500Y-23475000D03*
X42112500Y-22825000D03*
X42112500Y-22175000D03*
X42112500Y-21525000D03*
X42112500Y-20875000D03*
X42112500Y-20225000D03*
X42112500Y-19575000D03*
X42112500Y-18925000D03*
X42112500Y-18275000D03*
D29*
X39250000Y-22500000D03*
D25*
X27250000Y-24000000D03*
X28975000Y-24000000D03*
D18*
X47750000Y-17750000D03*
X51950000Y-17750000D03*
D25*
X72075000Y-4000000D03*
X73800000Y-4000000D03*
X42362500Y-14725000D03*
X44087500Y-14725000D03*
D12*
X4000000Y-34000000D03*
D25*
X42362500Y-28750000D03*
X44087500Y-28750000D03*
X72075000Y-34000000D03*
X73800000Y-34000000D03*
D30*
X40750000Y-33750000D03*
X40750000Y-32500000D03*
X40750000Y-30000000D03*
X40750000Y-14750000D03*
X40750000Y-16000000D03*
X40750000Y-13500000D03*
X40750000Y-28750000D03*
X40750000Y-17250000D03*
X40750000Y-18500000D03*
X40750000Y-31250000D03*
X32800000Y-24900000D03*
X28750000Y-21250000D03*
X26500000Y-24000000D03*
X33050000Y-20850000D03*
X31800000Y-21550000D03*
D31*
X29025000Y-22350000D02*
X28975000Y-22300000D01*
D32*
X28750000Y-21225000D02*
X28975000Y-21000000D01*
D31*
X28875000Y-20900000D02*
X28975000Y-21000000D01*
X25875000Y-20900000D02*
X28875000Y-20900000D01*
X28975000Y-22300000D02*
X28975000Y-21000000D01*
D32*
X28750000Y-21250000D02*
X28750000Y-21225000D01*
D31*
X32306371Y-22175000D02*
X32131371Y-22350000D01*
X25450000Y-24825000D02*
X25450000Y-21325000D01*
X28975000Y-21000000D02*
X31437500Y-18537500D01*
X31437500Y-18537500D02*
X32750000Y-18537500D01*
X32131371Y-22350000D02*
X29025000Y-22350000D01*
X25450000Y-21325000D02*
X25875000Y-20900000D01*
X36387500Y-22175000D02*
X32306371Y-22175000D01*
D33*
X29625000Y-23125000D02*
X27325000Y-23125000D01*
X27250000Y-23200000D02*
X27325000Y-23125000D01*
X27325000Y-23125000D02*
X27250000Y-23050000D01*
X32400000Y-22975000D02*
X29775000Y-22975000D01*
X27250000Y-24000000D02*
X27250000Y-23200000D01*
X29775000Y-22975000D02*
X29625000Y-23125000D01*
D32*
X26500000Y-24000000D02*
X27250000Y-24000000D01*
D33*
X36387500Y-22825000D02*
X32550000Y-22825000D01*
X32550000Y-22825000D02*
X32400000Y-22975000D01*
X27250000Y-23050000D02*
X27250000Y-22300000D01*
D34*
X30725000Y-25750000D02*
X28975000Y-24000000D01*
X35731544Y-24775000D02*
X34756544Y-25750000D01*
X36387500Y-24775000D02*
X35731544Y-24775000D01*
X34756544Y-25750000D02*
X30725000Y-25750000D01*
X24850000Y-25750000D02*
X27250000Y-25750000D01*
X16435000Y-27115000D02*
X23485000Y-27115000D01*
X23485000Y-27115000D02*
X24850000Y-25750000D01*
D35*
X16435000Y-27115000D02*
X16435000Y-10885000D01*
D34*
X30250000Y-26200000D02*
X34872230Y-26200000D01*
X28975000Y-25750000D02*
X29800000Y-25750000D01*
X29800000Y-25750000D02*
X30250000Y-26200000D01*
X35647230Y-25425000D02*
X36387500Y-25425000D01*
X34872230Y-26200000D02*
X35647230Y-25425000D01*
D31*
X49650000Y-29625000D02*
X49650000Y-23425000D01*
X42112500Y-25425000D02*
X43225000Y-25425000D01*
X49650000Y-23425000D02*
X49050000Y-22825000D01*
X44525000Y-26725000D02*
X45500000Y-26725000D01*
X48975000Y-30300000D02*
X49650000Y-29625000D01*
X46150000Y-30300000D02*
X48975000Y-30300000D01*
X45500000Y-29650000D02*
X46150000Y-30300000D01*
X49050000Y-22825000D02*
X42112500Y-22825000D01*
X43225000Y-25425000D02*
X44525000Y-26725000D01*
X45500000Y-26725000D02*
X45500000Y-29650000D01*
X49675000Y-15250000D02*
X49675000Y-21575000D01*
X49675000Y-21575000D02*
X49075000Y-22175000D01*
X49075000Y-22175000D02*
X42112500Y-22175000D01*
X44475000Y-18275000D02*
X45500000Y-18275000D01*
X45500000Y-15450000D02*
X46250000Y-14700000D01*
X49125000Y-14700000D02*
X49675000Y-15250000D01*
X46250000Y-14700000D02*
X49125000Y-14700000D01*
X45500000Y-18275000D02*
X45500000Y-15450000D01*
X42112500Y-19575000D02*
X43175000Y-19575000D01*
X43175000Y-19575000D02*
X44475000Y-18275000D01*
D32*
X73800000Y-4000000D02*
X78000000Y-4000000D01*
X8175000Y-34000000D02*
X4000000Y-34000000D01*
X73800000Y-34000000D02*
X78000000Y-34000000D01*
X4000000Y-4000000D02*
X8300000Y-4000000D01*
D34*
X22750000Y-5500000D02*
X22750000Y-3625000D01*
X42750000Y-3675000D02*
X42750000Y-5425000D01*
X36387500Y-20875000D02*
X33075000Y-20875000D01*
X33075000Y-20875000D02*
X33050000Y-20850000D01*
X36362500Y-21550000D02*
X31800000Y-21550000D01*
X36387500Y-21525000D02*
X36362500Y-21550000D01*
X33912500Y-17712500D02*
X27512500Y-17712500D01*
X22750000Y-12950000D02*
X22750000Y-7325000D01*
X34500000Y-18300000D02*
X33912500Y-17712500D01*
X27512500Y-17712500D02*
X22750000Y-12950000D01*
X34500000Y-18575000D02*
X34500000Y-18300000D01*
D31*
X36387500Y-26725000D02*
X25525000Y-26725000D01*
X25525000Y-26725000D02*
X25450000Y-26650000D01*
G04 #@! TA.AperFunction,Conductor*
G36*
X25649786Y-23865927D02*
G01*
X25652635Y-23870567D01*
X25701384Y-24019822D01*
X25701445Y-24019992D01*
X25743769Y-24135984D01*
X25752768Y-24160645D01*
X25804152Y-24284967D01*
X25804215Y-24285099D01*
X25855450Y-24392611D01*
X25855458Y-24392626D01*
X25855536Y-24392790D01*
X25855629Y-24392956D01*
X25855631Y-24392959D01*
X25901884Y-24475161D01*
X25902954Y-24484051D01*
X25898696Y-24490266D01*
X25457009Y-24820755D01*
X25448332Y-24822968D01*
X25442991Y-24820755D01*
X25001303Y-24490266D01*
X24996731Y-24482566D01*
X24998114Y-24475163D01*
X25044463Y-24392790D01*
X25095847Y-24284967D01*
X25147231Y-24160645D01*
X25198615Y-24019822D01*
X25198685Y-24019615D01*
X25247365Y-23870567D01*
X25253191Y-23863767D01*
X25258487Y-23862500D01*
X25641513Y-23862500D01*
X25649786Y-23865927D01*
G37*
G04 #@! TD.AperFunction*
G04 #@! TA.AperFunction,Conductor*
G36*
X75415915Y-33003635D02*
G01*
X77972675Y-33989083D01*
X77979162Y-33995256D01*
X77979384Y-34004208D01*
X77973211Y-34010695D01*
X77972675Y-34010917D01*
X75415915Y-34996365D01*
X75406963Y-34996143D01*
X75401517Y-34991197D01*
X75320547Y-34847693D01*
X75154135Y-34652405D01*
X75016382Y-34542845D01*
X74910040Y-34458267D01*
X74591067Y-34309423D01*
X74209942Y-34251510D01*
X74202278Y-34246879D01*
X74200000Y-34239943D01*
X74200000Y-33760056D01*
X74203427Y-33751783D01*
X74209941Y-33748489D01*
X74591066Y-33690576D01*
X74741164Y-33620534D01*
X74910040Y-33541731D01*
X74910043Y-33541729D01*
X75154135Y-33347594D01*
X75320547Y-33152305D01*
X75401517Y-33008801D01*
X75408567Y-33003281D01*
X75415915Y-33003635D01*
G37*
G04 #@! TD.AperFunction*
G04 #@! TA.AperFunction,Conductor*
G36*
X33213466Y-20485921D02*
G01*
X33214377Y-20486347D01*
X33360407Y-20562552D01*
X33361962Y-20563527D01*
X33468281Y-20642512D01*
X33560463Y-20710239D01*
X33673975Y-20757340D01*
X33834529Y-20773916D01*
X33842406Y-20778174D01*
X33845027Y-20785554D01*
X33845027Y-20964157D01*
X33841600Y-20972430D01*
X33834216Y-20975823D01*
X33676832Y-20987813D01*
X33562066Y-21023225D01*
X33467297Y-21076633D01*
X33467273Y-21076647D01*
X33467206Y-21076685D01*
X33467120Y-21076737D01*
X33467014Y-21076801D01*
X33359215Y-21143336D01*
X33358199Y-21143896D01*
X33214225Y-21214112D01*
X33205287Y-21214658D01*
X33198580Y-21208725D01*
X33198305Y-21208115D01*
X33050875Y-20854499D01*
X33050855Y-20845550D01*
X33198166Y-20492216D01*
X33204512Y-20485900D01*
X33213466Y-20485921D01*
G37*
G04 #@! TD.AperFunction*
G04 #@! TA.AperFunction,Conductor*
G36*
X22757473Y-3630205D02*
G01*
X23197667Y-3995703D01*
X23201843Y-4003625D01*
X23199195Y-4012179D01*
X23198986Y-4012424D01*
X23135752Y-4084453D01*
X23135738Y-4084470D01*
X23135536Y-4084701D01*
X23135352Y-4084965D01*
X23135345Y-4084975D01*
X23064298Y-4187309D01*
X23064152Y-4187520D01*
X23064033Y-4187726D01*
X23064023Y-4187743D01*
X22992860Y-4311681D01*
X22992847Y-4311704D01*
X22992768Y-4311843D01*
X22992700Y-4311981D01*
X22992684Y-4312012D01*
X22921450Y-4457532D01*
X22921434Y-4457565D01*
X22921384Y-4457669D01*
X22921339Y-4457772D01*
X22921330Y-4457794D01*
X22853033Y-4617891D01*
X22846634Y-4624156D01*
X22842271Y-4625000D01*
X22657729Y-4625000D01*
X22649456Y-4621573D01*
X22646967Y-4617891D01*
X22578668Y-4457794D01*
X22578615Y-4457669D01*
X22507231Y-4311843D01*
X22435847Y-4187520D01*
X22364463Y-4084701D01*
X22364251Y-4084460D01*
X22364246Y-4084453D01*
X22301013Y-4012424D01*
X22298131Y-4003946D01*
X22302087Y-3995912D01*
X22302282Y-3995745D01*
X22742528Y-3630204D01*
X22751079Y-3627557D01*
X22757473Y-3630205D01*
G37*
G04 #@! TD.AperFunction*
G04 #@! TA.AperFunction,Conductor*
G36*
X16442885Y-10892716D02*
G01*
X16443637Y-10893468D01*
X17053426Y-11561920D01*
X17427772Y-11972280D01*
X17430816Y-11980701D01*
X17427734Y-11988091D01*
X17278482Y-12150157D01*
X17141417Y-12367329D01*
X17032611Y-12640000D01*
X16960870Y-12976461D01*
X16935694Y-13374039D01*
X16931751Y-13382079D01*
X16924017Y-13385000D01*
X15945983Y-13385000D01*
X15937710Y-13381573D01*
X15934306Y-13374039D01*
X15931569Y-13330830D01*
X15909129Y-12976462D01*
X15837387Y-12640002D01*
X15728581Y-12367330D01*
X15591517Y-12150159D01*
X15591516Y-12150157D01*
X15442264Y-11988091D01*
X15439180Y-11979684D01*
X15442224Y-11972283D01*
X16426356Y-10893474D01*
X16434464Y-10889672D01*
X16442885Y-10892716D01*
G37*
G04 #@! TD.AperFunction*
G04 #@! TA.AperFunction,Conductor*
G36*
X27396668Y-23503427D02*
G01*
X27400095Y-23511604D01*
X27400844Y-23602762D01*
X27400844Y-23602781D01*
X27400846Y-23602936D01*
X27400855Y-23603084D01*
X27400857Y-23603113D01*
X27405751Y-23676155D01*
X27405752Y-23676165D01*
X27405777Y-23676533D01*
X27405850Y-23676898D01*
X27405851Y-23676901D01*
X27405853Y-23676913D01*
X27418382Y-23739095D01*
X27418503Y-23739450D01*
X27418505Y-23739456D01*
X27442191Y-23808755D01*
X27442197Y-23808771D01*
X27442250Y-23808926D01*
X27442317Y-23809091D01*
X27476617Y-23893604D01*
X27476553Y-23902559D01*
X27470293Y-23908797D01*
X27254517Y-23999109D01*
X27245563Y-23999142D01*
X27245483Y-23999109D01*
X27029706Y-23908797D01*
X27023397Y-23902441D01*
X27023382Y-23893605D01*
X27057748Y-23808926D01*
X27081616Y-23739095D01*
X27094222Y-23676533D01*
X27099153Y-23602936D01*
X27099905Y-23511604D01*
X27103400Y-23503359D01*
X27111605Y-23500000D01*
X27388395Y-23500000D01*
X27396668Y-23503427D01*
G37*
G04 #@! TD.AperFunction*
G04 #@! TA.AperFunction,Conductor*
G36*
X74199217Y-3547661D02*
G01*
X74315209Y-3611463D01*
X74401716Y-3649652D01*
X74439264Y-3666229D01*
X74439269Y-3666231D01*
X74439532Y-3666347D01*
X74563854Y-3707731D01*
X74688177Y-3735615D01*
X74802146Y-3748802D01*
X74809969Y-3753156D01*
X74812500Y-3760423D01*
X74812500Y-4239576D01*
X74809073Y-4247849D01*
X74802145Y-4251198D01*
X74688496Y-4264347D01*
X74688494Y-4264347D01*
X74688177Y-4264384D01*
X74687867Y-4264453D01*
X74687864Y-4264454D01*
X74564140Y-4292203D01*
X74564124Y-4292207D01*
X74563854Y-4292268D01*
X74563590Y-4292355D01*
X74563575Y-4292360D01*
X74439806Y-4333560D01*
X74439790Y-4333565D01*
X74439532Y-4333652D01*
X74439287Y-4333759D01*
X74439264Y-4333769D01*
X74315453Y-4388428D01*
X74315447Y-4388430D01*
X74315209Y-4388536D01*
X74314987Y-4388657D01*
X74314975Y-4388664D01*
X74199217Y-4452338D01*
X74190316Y-4453323D01*
X74184697Y-4449704D01*
X74132235Y-4388536D01*
X73805531Y-4007615D01*
X73802747Y-3999106D01*
X73805531Y-3992384D01*
X74184698Y-3550294D01*
X74192684Y-3546246D01*
X74199217Y-3547661D01*
G37*
G04 #@! TD.AperFunction*
G04 #@! TA.AperFunction,Conductor*
G36*
X48643039Y-23295185D02*
G01*
X48688794Y-23347989D01*
X48700000Y-23399500D01*
X48700000Y-29676000D01*
X48680315Y-29743039D01*
X48627511Y-29788794D01*
X48576000Y-29800000D01*
X46473273Y-29800000D01*
X46406234Y-29780315D01*
X46360479Y-29727511D01*
X46349275Y-29676729D01*
X46349271Y-29676000D01*
X46325058Y-25559941D01*
X46325000Y-25550000D01*
X46315060Y-25550000D01*
X45266478Y-25550000D01*
X45234093Y-25545695D01*
X44666788Y-25392189D01*
X43542611Y-25088000D01*
X43505145Y-25070757D01*
X43487639Y-25058821D01*
X43483860Y-25056139D01*
X43433038Y-25018631D01*
X43428424Y-25016302D01*
X43368049Y-24997679D01*
X43363644Y-24996230D01*
X43329912Y-24984427D01*
X43309699Y-24977354D01*
X43309698Y-24977353D01*
X43304023Y-24975368D01*
X43298914Y-24974500D01*
X43292902Y-24974500D01*
X43235738Y-24974500D01*
X43231101Y-24974413D01*
X43167970Y-24972050D01*
X43149365Y-24974500D01*
X41599000Y-24974500D01*
X41531961Y-24954815D01*
X41486206Y-24902011D01*
X41475000Y-24850500D01*
X41475000Y-24699500D01*
X41494685Y-24632461D01*
X41547489Y-24586706D01*
X41599000Y-24575500D01*
X42788778Y-24575500D01*
X42795678Y-24575000D01*
X43115000Y-24575000D01*
X43125000Y-24575000D01*
X43125000Y-23675000D01*
X43115000Y-23675000D01*
X42795678Y-23675000D01*
X42788778Y-23674500D01*
X42783260Y-23674500D01*
X41599000Y-23674500D01*
X41531961Y-23654815D01*
X41486206Y-23602011D01*
X41475000Y-23550500D01*
X41475000Y-23399500D01*
X41494685Y-23332461D01*
X41547489Y-23286706D01*
X41599000Y-23275500D01*
X42044598Y-23275500D01*
X48576000Y-23275500D01*
X48643039Y-23295185D01*
G37*
G04 #@! TD.AperFunction*
G04 #@! TA.AperFunction,Conductor*
G36*
X6593036Y-3003856D02*
G01*
X6598482Y-3008801D01*
X6679454Y-3152309D01*
X6845860Y-3347591D01*
X6845863Y-3347594D01*
X6992318Y-3464075D01*
X7089958Y-3541731D01*
X7390153Y-3681812D01*
X7408933Y-3690576D01*
X7790057Y-3748489D01*
X7797721Y-3753120D01*
X7799999Y-3760056D01*
X7799999Y-4239943D01*
X7796572Y-4248216D01*
X7790057Y-4251510D01*
X7408931Y-4309423D01*
X7089958Y-4458267D01*
X6845863Y-4652405D01*
X6679453Y-4847691D01*
X6598482Y-4991197D01*
X6591432Y-4996718D01*
X6584084Y-4996364D01*
X4027324Y-4010917D01*
X4020837Y-4004744D01*
X4020615Y-3995792D01*
X4026788Y-3989305D01*
X4027324Y-3989083D01*
X6584087Y-3003634D01*
X6593036Y-3003856D01*
G37*
G04 #@! TD.AperFunction*
G04 #@! TA.AperFunction,Conductor*
G36*
X32380992Y-18071509D02*
G01*
X32745223Y-18530224D01*
X32747684Y-18538834D01*
X32745223Y-18544774D01*
X32380992Y-19003490D01*
X32373164Y-19007839D01*
X32364710Y-19005500D01*
X32259292Y-18924668D01*
X32259285Y-18924663D01*
X32259071Y-18924499D01*
X32229374Y-18905997D01*
X32144575Y-18853168D01*
X32144568Y-18853164D01*
X32144303Y-18852999D01*
X32144007Y-18852857D01*
X32029855Y-18798153D01*
X32029850Y-18798151D01*
X32029535Y-18798000D01*
X32029202Y-18797888D01*
X32029194Y-18797885D01*
X31915147Y-18759627D01*
X31915140Y-18759625D01*
X31914767Y-18759500D01*
X31914384Y-18759426D01*
X31914378Y-18759425D01*
X31809497Y-18739320D01*
X31802017Y-18734397D01*
X31800000Y-18727829D01*
X31800000Y-18347170D01*
X31803427Y-18338897D01*
X31809495Y-18335679D01*
X31914767Y-18315499D01*
X32029535Y-18276999D01*
X32144303Y-18222000D01*
X32259071Y-18150500D01*
X32364711Y-18069498D01*
X32373360Y-18067185D01*
X32380992Y-18071509D01*
G37*
G04 #@! TD.AperFunction*
G04 #@! TA.AperFunction,Conductor*
G36*
X45112439Y-26258769D02*
G01*
X45494756Y-26717509D01*
X45497420Y-26726059D01*
X45494756Y-26732491D01*
X45112439Y-27191230D01*
X45104510Y-27195391D01*
X45096183Y-27192908D01*
X44994323Y-27112172D01*
X44994315Y-27112166D01*
X44994104Y-27111999D01*
X44883078Y-27040499D01*
X44882787Y-27040354D01*
X44882782Y-27040352D01*
X44772387Y-26985666D01*
X44772052Y-26985500D01*
X44756538Y-26980120D01*
X44661415Y-26947134D01*
X44661403Y-26947130D01*
X44661026Y-26947000D01*
X44660628Y-26946921D01*
X44660624Y-26946920D01*
X44559426Y-26926867D01*
X44551977Y-26921897D01*
X44550000Y-26915390D01*
X44550000Y-26534609D01*
X44553427Y-26526336D01*
X44559425Y-26523132D01*
X44661026Y-26502999D01*
X44772052Y-26464499D01*
X44883078Y-26409500D01*
X44994104Y-26338000D01*
X45096185Y-26257090D01*
X45104796Y-26254638D01*
X45112439Y-26258769D01*
G37*
G04 #@! TD.AperFunction*
G04 #@! TA.AperFunction,Conductor*
G36*
X35655634Y-25339947D02*
G01*
X36378421Y-25423166D01*
X36386248Y-25427516D01*
X36388764Y-25434127D01*
X36398843Y-25611861D01*
X36395890Y-25620314D01*
X36387824Y-25624204D01*
X36386453Y-25624202D01*
X36235367Y-25615034D01*
X36235156Y-25615027D01*
X36071145Y-25611069D01*
X36070945Y-25611070D01*
X35906922Y-25613103D01*
X35906706Y-25613112D01*
X35742700Y-25621138D01*
X35742475Y-25621155D01*
X35583899Y-25634709D01*
X35575364Y-25631999D01*
X35574630Y-25631324D01*
X35449111Y-25505805D01*
X35445684Y-25497532D01*
X35449111Y-25489259D01*
X35452635Y-25486840D01*
X35479645Y-25474860D01*
X35522234Y-25449970D01*
X35564822Y-25419079D01*
X35607411Y-25382189D01*
X35646001Y-25343326D01*
X35654260Y-25339871D01*
X35655634Y-25339947D01*
G37*
G04 #@! TD.AperFunction*
G04 #@! TA.AperFunction,Conductor*
G36*
X66521524Y-4408295D02*
G01*
X76020596Y-8069396D01*
X76076069Y-8111872D01*
X76099773Y-8177598D01*
X76100000Y-8185099D01*
X76100000Y-29948637D01*
X76080315Y-30015676D01*
X76063681Y-30036318D01*
X74036319Y-32063681D01*
X73974996Y-32097166D01*
X73948638Y-32100000D01*
X51024000Y-32100000D01*
X50956961Y-32080315D01*
X50911206Y-32027511D01*
X50900000Y-31976000D01*
X50900000Y-23424000D01*
X50919685Y-23356961D01*
X50972489Y-23311206D01*
X51024000Y-23300000D01*
X54542968Y-23300000D01*
X54610007Y-23319685D01*
X54637115Y-23343301D01*
X58800000Y-28200000D01*
X71995855Y-28200000D01*
X71995858Y-28200000D01*
X72000000Y-28200000D01*
X72500000Y-27700000D01*
X72422982Y-23310000D01*
X72200113Y-10606448D01*
X72200000Y-10600000D01*
X72194081Y-10597443D01*
X72194080Y-10597443D01*
X67805669Y-8702447D01*
X67794607Y-8697003D01*
X64263780Y-6735433D01*
X64214737Y-6685668D01*
X64200000Y-6627037D01*
X64200000Y-4524000D01*
X64219685Y-4456961D01*
X64272489Y-4411206D01*
X64324000Y-4400000D01*
X66476931Y-4400000D01*
X66521524Y-4408295D01*
G37*
G04 #@! TD.AperFunction*
G04 #@! TA.AperFunction,Conductor*
G36*
X44343039Y-6719685D02*
G01*
X44388794Y-6772489D01*
X44400000Y-6824000D01*
X44400000Y-12745452D01*
X44380315Y-12812491D01*
X44359792Y-12836856D01*
X44017273Y-13150831D01*
X43203244Y-13897025D01*
X43203241Y-13897028D01*
X43200000Y-13900000D01*
X43200000Y-13904398D01*
X43200000Y-13904399D01*
X43200000Y-13904401D01*
X43200000Y-18762456D01*
X43180315Y-18829495D01*
X43179174Y-18831239D01*
X43036812Y-19044783D01*
X42983247Y-19089644D01*
X42933638Y-19100000D01*
X40547769Y-19100000D01*
X40480730Y-19080315D01*
X40464576Y-19067950D01*
X40438970Y-19044783D01*
X39857046Y-18518280D01*
X38402858Y-17202585D01*
X38402854Y-17202583D01*
X38400000Y-17200000D01*
X38396149Y-17200000D01*
X28524000Y-17200000D01*
X28456961Y-17180315D01*
X28411206Y-17127511D01*
X28400000Y-17076000D01*
X28400000Y-12256497D01*
X28419685Y-12189458D01*
X28442632Y-12162928D01*
X30665006Y-10230429D01*
X30728512Y-10201293D01*
X30746373Y-10200000D01*
X39994475Y-10200000D01*
X40000000Y-10200000D01*
X40002939Y-10195323D01*
X40002941Y-10195322D01*
X42163536Y-6758009D01*
X42215877Y-6711728D01*
X42268518Y-6700000D01*
X44276000Y-6700000D01*
X44343039Y-6719685D01*
G37*
G04 #@! TD.AperFunction*
G04 #@! TA.AperFunction,Conductor*
G36*
X35753233Y-22626012D02*
G01*
X35944567Y-22685945D01*
X36352855Y-22813835D01*
X36359726Y-22819578D01*
X36360523Y-22828497D01*
X36354780Y-22835368D01*
X36352855Y-22836165D01*
X35753236Y-23023986D01*
X35746724Y-23024126D01*
X35690145Y-23009037D01*
X35690118Y-23009030D01*
X35690000Y-23008999D01*
X35689877Y-23008972D01*
X35689859Y-23008968D01*
X35630114Y-22996023D01*
X35630087Y-22996017D01*
X35630000Y-22995999D01*
X35629905Y-22995983D01*
X35629878Y-22995978D01*
X35570131Y-22986021D01*
X35570098Y-22986016D01*
X35570000Y-22986000D01*
X35569898Y-22985988D01*
X35569862Y-22985983D01*
X35510143Y-22979016D01*
X35510116Y-22979013D01*
X35510000Y-22979000D01*
X35509872Y-22978991D01*
X35509856Y-22978990D01*
X35460922Y-22975728D01*
X35452895Y-22971758D01*
X35450000Y-22964054D01*
X35450000Y-22685945D01*
X35453427Y-22677672D01*
X35460920Y-22674271D01*
X35510000Y-22670999D01*
X35570000Y-22663999D01*
X35630000Y-22654000D01*
X35690000Y-22641000D01*
X35746726Y-22625873D01*
X35753233Y-22626012D01*
G37*
G04 #@! TD.AperFunction*
G04 #@! TA.AperFunction,Conductor*
G36*
X45699786Y-17265927D02*
G01*
X45702635Y-17270567D01*
X45751384Y-17419822D01*
X45751445Y-17419992D01*
X45793769Y-17535984D01*
X45802768Y-17560645D01*
X45854152Y-17684967D01*
X45854215Y-17685099D01*
X45905450Y-17792611D01*
X45905458Y-17792626D01*
X45905536Y-17792790D01*
X45905629Y-17792956D01*
X45905631Y-17792959D01*
X45952212Y-17875745D01*
X45953282Y-17884635D01*
X45949632Y-17890363D01*
X45507617Y-18269467D01*
X45499106Y-18272252D01*
X45492383Y-18269467D01*
X45050366Y-17890363D01*
X45046317Y-17882376D01*
X45047785Y-17875748D01*
X45094463Y-17792790D01*
X45145847Y-17684967D01*
X45197231Y-17560645D01*
X45248615Y-17419822D01*
X45248685Y-17419615D01*
X45297365Y-17270567D01*
X45303191Y-17263767D01*
X45308487Y-17262500D01*
X45691513Y-17262500D01*
X45699786Y-17265927D01*
G37*
G04 #@! TD.AperFunction*
G04 #@! TA.AperFunction,Conductor*
G36*
X74199217Y-33547661D02*
G01*
X74315209Y-33611463D01*
X74401716Y-33649652D01*
X74439264Y-33666229D01*
X74439269Y-33666231D01*
X74439532Y-33666347D01*
X74563854Y-33707731D01*
X74688177Y-33735615D01*
X74802146Y-33748802D01*
X74809969Y-33753156D01*
X74812500Y-33760423D01*
X74812500Y-34239576D01*
X74809073Y-34247849D01*
X74802145Y-34251198D01*
X74688496Y-34264347D01*
X74688494Y-34264347D01*
X74688177Y-34264384D01*
X74687867Y-34264453D01*
X74687864Y-34264454D01*
X74564140Y-34292203D01*
X74564124Y-34292207D01*
X74563854Y-34292268D01*
X74563590Y-34292355D01*
X74563575Y-34292360D01*
X74439806Y-34333560D01*
X74439790Y-34333565D01*
X74439532Y-34333652D01*
X74439287Y-34333759D01*
X74439264Y-34333769D01*
X74315453Y-34388428D01*
X74315447Y-34388430D01*
X74315209Y-34388536D01*
X74314987Y-34388657D01*
X74314975Y-34388664D01*
X74199217Y-34452338D01*
X74190316Y-34453323D01*
X74184697Y-34449704D01*
X74132142Y-34388428D01*
X73805531Y-34007615D01*
X73802747Y-33999105D01*
X73805530Y-33992385D01*
X74184698Y-33550294D01*
X74192684Y-33546246D01*
X74199217Y-33547661D01*
G37*
G04 #@! TD.AperFunction*
G04 #@! TA.AperFunction,Conductor*
G36*
X42850544Y-4465927D02*
G01*
X42853032Y-4469607D01*
X42921384Y-4629830D01*
X42921441Y-4629947D01*
X42921450Y-4629966D01*
X42992684Y-4775486D01*
X42992693Y-4775504D01*
X42992768Y-4775656D01*
X43064152Y-4899979D01*
X43135536Y-5002798D01*
X43135752Y-5003044D01*
X43198574Y-5074605D01*
X43201456Y-5083083D01*
X43197500Y-5091117D01*
X43196790Y-5091692D01*
X42757009Y-5420755D01*
X42748332Y-5422968D01*
X42742991Y-5420755D01*
X42303209Y-5091692D01*
X42298637Y-5083992D01*
X42300850Y-5075315D01*
X42301415Y-5074616D01*
X42364463Y-5002798D01*
X42435847Y-4899979D01*
X42507231Y-4775656D01*
X42578615Y-4629830D01*
X42646967Y-4469608D01*
X42653366Y-4463344D01*
X42657729Y-4462500D01*
X42842271Y-4462500D01*
X42850544Y-4465927D01*
G37*
G04 #@! TD.AperFunction*
G04 #@! TA.AperFunction,Conductor*
G36*
X29138497Y-21249971D02*
G01*
X29146762Y-21253419D01*
X29150167Y-21261501D01*
X29152600Y-21428992D01*
X29152608Y-21429184D01*
X29158800Y-21555943D01*
X29166200Y-21665547D01*
X29172389Y-21792290D01*
X29172402Y-21792690D01*
X29174828Y-21959622D01*
X29171521Y-21967944D01*
X29163299Y-21971491D01*
X29163129Y-21971492D01*
X28785525Y-21971492D01*
X28777252Y-21968065D01*
X28773890Y-21961027D01*
X28770577Y-21929810D01*
X28761173Y-21841169D01*
X28721205Y-21755901D01*
X28657367Y-21691928D01*
X28657077Y-21691703D01*
X28657072Y-21691698D01*
X28572228Y-21625728D01*
X28571659Y-21625256D01*
X28476460Y-21541068D01*
X28472533Y-21533021D01*
X28475447Y-21524553D01*
X28475907Y-21524061D01*
X28746559Y-21252452D01*
X28754824Y-21249012D01*
X29138497Y-21249971D01*
G37*
G04 #@! TD.AperFunction*
G04 #@! TA.AperFunction,Conductor*
G36*
X36377999Y-24774035D02*
G01*
X36386183Y-24777669D01*
X36389332Y-24784442D01*
X36409074Y-24962528D01*
X36406579Y-24971128D01*
X36398734Y-24975446D01*
X36397919Y-24975507D01*
X36244223Y-24981735D01*
X36243996Y-24981750D01*
X36077990Y-24994470D01*
X36077800Y-24994490D01*
X35911756Y-25013205D01*
X35911527Y-25013236D01*
X35836694Y-25024373D01*
X35834972Y-25024500D01*
X35705466Y-25024500D01*
X35705449Y-25024500D01*
X35705136Y-25024501D01*
X35704809Y-25024538D01*
X35704807Y-25024539D01*
X35680009Y-25027415D01*
X35593052Y-25065808D01*
X35590454Y-25066610D01*
X35585339Y-25067556D01*
X35576580Y-25065691D01*
X35574938Y-25064324D01*
X35449099Y-24938485D01*
X35445672Y-24930212D01*
X35449099Y-24921939D01*
X35451924Y-24919858D01*
X35480294Y-24904931D01*
X35522720Y-24876608D01*
X35565147Y-24842285D01*
X35607573Y-24801962D01*
X35646403Y-24759565D01*
X35654516Y-24755780D01*
X35655308Y-24755773D01*
X36377999Y-24774035D01*
G37*
G04 #@! TD.AperFunction*
G04 #@! TA.AperFunction,Conductor*
G36*
X27227320Y-23027995D02*
G01*
X27229998Y-23029998D01*
X27429957Y-23229957D01*
X27431844Y-23232429D01*
X27470768Y-23300598D01*
X27488440Y-23331548D01*
X27545814Y-23418139D01*
X27603189Y-23490838D01*
X27603408Y-23491062D01*
X27603412Y-23491067D01*
X27616187Y-23504161D01*
X27660563Y-23549646D01*
X27660864Y-23549881D01*
X27660870Y-23549887D01*
X27684873Y-23568677D01*
X27706755Y-23585807D01*
X27711157Y-23593605D01*
X27708756Y-23602232D01*
X27707206Y-23603862D01*
X27257375Y-23993702D01*
X27248878Y-23996530D01*
X27241592Y-23993283D01*
X26818320Y-23585220D01*
X26814742Y-23577011D01*
X26818017Y-23568677D01*
X26818677Y-23568042D01*
X26891146Y-23503929D01*
X26973093Y-23411930D01*
X27055040Y-23300431D01*
X27136987Y-23169432D01*
X27211453Y-23032672D01*
X27218415Y-23027049D01*
X27227320Y-23027995D01*
G37*
G04 #@! TD.AperFunction*
G04 #@! TA.AperFunction,Conductor*
G36*
X29167369Y-20540970D02*
G01*
X29434197Y-20807798D01*
X29437624Y-20816071D01*
X29434546Y-20823980D01*
X29329904Y-20938066D01*
X29263154Y-21035667D01*
X29220355Y-21130607D01*
X29220347Y-21130624D01*
X29220254Y-21130833D01*
X29220174Y-21131056D01*
X29220172Y-21131064D01*
X29179640Y-21245724D01*
X29179539Y-21245999D01*
X29123834Y-21391859D01*
X29117681Y-21398365D01*
X29108730Y-21398615D01*
X29108452Y-21398505D01*
X28753804Y-21252563D01*
X28747457Y-21246245D01*
X28747436Y-21246195D01*
X28601399Y-20891315D01*
X28601420Y-20882362D01*
X28607766Y-20876044D01*
X28750240Y-20818164D01*
X28750360Y-20818113D01*
X28810928Y-20791836D01*
X28859485Y-20770772D01*
X28948308Y-20719764D01*
X29040357Y-20646635D01*
X29151011Y-20540786D01*
X29159356Y-20537546D01*
X29167369Y-20540970D01*
G37*
G04 #@! TD.AperFunction*
G04 #@! TA.AperFunction,Conductor*
G36*
X26866729Y-25301970D02*
G01*
X26867000Y-25302275D01*
X27244467Y-25742383D01*
X27247252Y-25750894D01*
X27244467Y-25757617D01*
X26867000Y-26197724D01*
X26859013Y-26201773D01*
X26850502Y-26198988D01*
X26850197Y-26198717D01*
X26735013Y-26092734D01*
X26735010Y-26092732D01*
X26734790Y-26092529D01*
X26610467Y-25999641D01*
X26610168Y-25999469D01*
X26610163Y-25999466D01*
X26486505Y-25928463D01*
X26486497Y-25928459D01*
X26486145Y-25928257D01*
X26361822Y-25878376D01*
X26287511Y-25861414D01*
X26246596Y-25852076D01*
X26239293Y-25846894D01*
X26237500Y-25840669D01*
X26237500Y-25659330D01*
X26240927Y-25651057D01*
X26246593Y-25647924D01*
X26361822Y-25621623D01*
X26486145Y-25571742D01*
X26610467Y-25500358D01*
X26734790Y-25407470D01*
X26850198Y-25301281D01*
X26858605Y-25298202D01*
X26866729Y-25301970D01*
G37*
G04 #@! TD.AperFunction*
G04 #@! TA.AperFunction,Conductor*
G36*
X29175217Y-21353427D02*
G01*
X29177873Y-21357525D01*
X29230000Y-21494026D01*
X29285000Y-21621552D01*
X29339999Y-21732578D01*
X29394999Y-21827104D01*
X29395146Y-21827312D01*
X29443782Y-21896310D01*
X29445748Y-21905047D01*
X29441710Y-21912039D01*
X28982490Y-22294756D01*
X28973940Y-22297420D01*
X28967508Y-22294756D01*
X28508289Y-21912039D01*
X28504128Y-21904110D01*
X28506216Y-21896311D01*
X28555000Y-21827104D01*
X28610000Y-21732578D01*
X28664999Y-21621552D01*
X28719999Y-21494026D01*
X28772125Y-21357526D01*
X28778279Y-21351020D01*
X28783056Y-21350000D01*
X29166944Y-21350000D01*
X29175217Y-21353427D01*
G37*
G04 #@! TD.AperFunction*
G04 #@! TA.AperFunction,Conductor*
G36*
X7915302Y-3550296D02*
G01*
X7967851Y-3611565D01*
X8294467Y-3992383D01*
X8297252Y-4000893D01*
X8294467Y-4007616D01*
X7915302Y-4449704D01*
X7907315Y-4453753D01*
X7900782Y-4452338D01*
X7785023Y-4388664D01*
X7785020Y-4388662D01*
X7784790Y-4388536D01*
X7765483Y-4380012D01*
X7660734Y-4333769D01*
X7660718Y-4333762D01*
X7660467Y-4333652D01*
X7660200Y-4333563D01*
X7660192Y-4333560D01*
X7536423Y-4292360D01*
X7536413Y-4292357D01*
X7536145Y-4292268D01*
X7535869Y-4292206D01*
X7535858Y-4292203D01*
X7412134Y-4264454D01*
X7411822Y-4264384D01*
X7382267Y-4260964D01*
X7297855Y-4251198D01*
X7290031Y-4246843D01*
X7287500Y-4239576D01*
X7287500Y-3760423D01*
X7290927Y-3752150D01*
X7297852Y-3748802D01*
X7411822Y-3735615D01*
X7536145Y-3707731D01*
X7660467Y-3666347D01*
X7784790Y-3611463D01*
X7785010Y-3611341D01*
X7785020Y-3611337D01*
X7900782Y-3547662D01*
X7909683Y-3546677D01*
X7915302Y-3550296D01*
G37*
G04 #@! TD.AperFunction*
G04 #@! TA.AperFunction,Conductor*
G36*
X42757472Y-3680204D02*
G01*
X43197667Y-4045703D01*
X43201843Y-4053625D01*
X43199195Y-4062179D01*
X43198986Y-4062424D01*
X43135752Y-4134453D01*
X43135738Y-4134470D01*
X43135536Y-4134701D01*
X43135352Y-4134965D01*
X43135345Y-4134975D01*
X43064298Y-4237309D01*
X43064152Y-4237520D01*
X43064033Y-4237726D01*
X43064023Y-4237743D01*
X42992860Y-4361681D01*
X42992847Y-4361704D01*
X42992768Y-4361843D01*
X42992700Y-4361981D01*
X42992684Y-4362012D01*
X42921450Y-4507532D01*
X42921434Y-4507565D01*
X42921384Y-4507669D01*
X42921339Y-4507772D01*
X42921330Y-4507794D01*
X42853033Y-4667891D01*
X42846634Y-4674156D01*
X42842271Y-4675000D01*
X42657729Y-4675000D01*
X42649456Y-4671573D01*
X42646967Y-4667891D01*
X42578668Y-4507794D01*
X42578615Y-4507669D01*
X42507231Y-4361843D01*
X42435847Y-4237520D01*
X42364463Y-4134701D01*
X42364251Y-4134460D01*
X42364246Y-4134453D01*
X42301013Y-4062424D01*
X42298131Y-4053946D01*
X42302087Y-4045912D01*
X42302282Y-4045745D01*
X42742527Y-3680204D01*
X42751080Y-3677557D01*
X42757472Y-3680204D01*
G37*
G04 #@! TD.AperFunction*
G04 #@! TA.AperFunction,Conductor*
G36*
X35700730Y-21344729D02*
G01*
X36139322Y-21459688D01*
X36347067Y-21514140D01*
X36354201Y-21519553D01*
X36355419Y-21528424D01*
X36350006Y-21535558D01*
X36347300Y-21536712D01*
X35716031Y-21716165D01*
X35707712Y-21715431D01*
X35659653Y-21692040D01*
X35659645Y-21692036D01*
X35659385Y-21691910D01*
X35659114Y-21691809D01*
X35659102Y-21691804D01*
X35607322Y-21672537D01*
X35607316Y-21672535D01*
X35607039Y-21672432D01*
X35606770Y-21672362D01*
X35606755Y-21672358D01*
X35554994Y-21659032D01*
X35554981Y-21659029D01*
X35554692Y-21658955D01*
X35554391Y-21658912D01*
X35554376Y-21658909D01*
X35502686Y-21651525D01*
X35502676Y-21651524D01*
X35502346Y-21651477D01*
X35502005Y-21651467D01*
X35502001Y-21651467D01*
X35461370Y-21650320D01*
X35453197Y-21646661D01*
X35450000Y-21638625D01*
X35450000Y-21459688D01*
X35453427Y-21451415D01*
X35459516Y-21448193D01*
X35499121Y-21440677D01*
X35548242Y-21425354D01*
X35597363Y-21404031D01*
X35646484Y-21376708D01*
X35691210Y-21346367D01*
X35699979Y-21344559D01*
X35700730Y-21344729D01*
G37*
G04 #@! TD.AperFunction*
G04 #@! TA.AperFunction,Conductor*
G36*
X45112439Y-17808769D02*
G01*
X45494756Y-18267509D01*
X45497420Y-18276059D01*
X45494756Y-18282491D01*
X45112439Y-18741230D01*
X45104510Y-18745391D01*
X45096183Y-18742908D01*
X44994323Y-18662172D01*
X44994315Y-18662166D01*
X44994104Y-18661999D01*
X44883078Y-18590499D01*
X44882787Y-18590354D01*
X44882782Y-18590352D01*
X44772387Y-18535666D01*
X44772052Y-18535500D01*
X44756538Y-18530120D01*
X44661415Y-18497134D01*
X44661403Y-18497130D01*
X44661026Y-18497000D01*
X44660628Y-18496921D01*
X44660624Y-18496920D01*
X44559426Y-18476867D01*
X44551977Y-18471897D01*
X44550000Y-18465390D01*
X44550000Y-18084609D01*
X44553427Y-18076336D01*
X44559425Y-18073132D01*
X44661026Y-18052999D01*
X44772052Y-18014499D01*
X44883078Y-17959500D01*
X44994104Y-17888000D01*
X45096185Y-17807090D01*
X45104796Y-17804638D01*
X45112439Y-17808769D01*
G37*
G04 #@! TD.AperFunction*
G04 #@! TA.AperFunction,Conductor*
G36*
X45507615Y-26730531D02*
G01*
X45777898Y-26962345D01*
X45949632Y-27109636D01*
X45953681Y-27117623D01*
X45952212Y-27124254D01*
X45905631Y-27207039D01*
X45905622Y-27207054D01*
X45905536Y-27207209D01*
X45905464Y-27207360D01*
X45905450Y-27207387D01*
X45854215Y-27314899D01*
X45854152Y-27315032D01*
X45854108Y-27315137D01*
X45854097Y-27315163D01*
X45802805Y-27439263D01*
X45802796Y-27439284D01*
X45802768Y-27439354D01*
X45802733Y-27439447D01*
X45802731Y-27439455D01*
X45751384Y-27580177D01*
X45751314Y-27580384D01*
X45702635Y-27729433D01*
X45696809Y-27736233D01*
X45691513Y-27737500D01*
X45308487Y-27737500D01*
X45300214Y-27734073D01*
X45297365Y-27729433D01*
X45248615Y-27580177D01*
X45248554Y-27580007D01*
X45220501Y-27503127D01*
X45197231Y-27439354D01*
X45145847Y-27315032D01*
X45094463Y-27207209D01*
X45047787Y-27124254D01*
X45046717Y-27115364D01*
X45050367Y-27109636D01*
X45492384Y-26730531D01*
X45500894Y-26727747D01*
X45507615Y-26730531D01*
G37*
G04 #@! TD.AperFunction*
G04 #@! TA.AperFunction,Conductor*
G36*
X42815677Y-25919685D02*
G01*
X42836319Y-25936319D01*
X43064549Y-26164549D01*
X43098034Y-26225872D01*
X43100849Y-26250120D01*
X43144879Y-28847887D01*
X43199916Y-32095105D01*
X43199917Y-32095109D01*
X43200000Y-32100000D01*
X43203916Y-32102937D01*
X43203917Y-32102938D01*
X44350400Y-32962800D01*
X44392221Y-33018771D01*
X44400000Y-33062000D01*
X44400000Y-34576000D01*
X44380315Y-34643039D01*
X44327511Y-34688794D01*
X44276000Y-34700000D01*
X40124000Y-34700000D01*
X40056961Y-34680315D01*
X40011206Y-34627511D01*
X40000000Y-34576000D01*
X40000000Y-26024000D01*
X40019685Y-25956961D01*
X40072489Y-25911206D01*
X40124000Y-25900000D01*
X42748638Y-25900000D01*
X42815677Y-25919685D01*
G37*
G04 #@! TD.AperFunction*
G04 #@! TA.AperFunction,Conductor*
G36*
X27257407Y-22306325D02*
G01*
X27503233Y-22519367D01*
X27706177Y-22695246D01*
X27710184Y-22703254D01*
X27707356Y-22711751D01*
X27704879Y-22713905D01*
X27660563Y-22742641D01*
X27660256Y-22742907D01*
X27660251Y-22742912D01*
X27603437Y-22792375D01*
X27603426Y-22792384D01*
X27603189Y-22792592D01*
X27602971Y-22792829D01*
X27602965Y-22792836D01*
X27545999Y-22855088D01*
X27545990Y-22855097D01*
X27545814Y-22855291D01*
X27545660Y-22855492D01*
X27545647Y-22855509D01*
X27488566Y-22930572D01*
X27488440Y-22930738D01*
X27488342Y-22930887D01*
X27488324Y-22930914D01*
X27431734Y-23017906D01*
X27430200Y-23019799D01*
X27229681Y-23220318D01*
X27221408Y-23223745D01*
X27213135Y-23220318D01*
X27211294Y-23217926D01*
X27137516Y-23091041D01*
X27137413Y-23090863D01*
X27055893Y-22970155D01*
X26974372Y-22868941D01*
X26892852Y-22787221D01*
X26892538Y-22786981D01*
X26822117Y-22733227D01*
X26817620Y-22725483D01*
X26819916Y-22716828D01*
X26821052Y-22715546D01*
X27241593Y-22306777D01*
X27249912Y-22303469D01*
X27257407Y-22306325D01*
G37*
G04 #@! TD.AperFunction*
G04 #@! TA.AperFunction,Conductor*
G36*
X22757007Y-7329243D02*
G01*
X22974771Y-7492183D01*
X23196790Y-7658307D01*
X23201362Y-7666007D01*
X23199149Y-7674684D01*
X23198574Y-7675394D01*
X23135752Y-7746954D01*
X23135745Y-7746962D01*
X23135536Y-7747201D01*
X23135351Y-7747466D01*
X23135345Y-7747475D01*
X23064298Y-7849809D01*
X23064152Y-7850020D01*
X23064033Y-7850226D01*
X23064023Y-7850243D01*
X22992860Y-7974181D01*
X22992847Y-7974204D01*
X22992768Y-7974343D01*
X22992700Y-7974481D01*
X22992684Y-7974512D01*
X22921450Y-8120032D01*
X22921434Y-8120065D01*
X22921384Y-8120169D01*
X22921339Y-8120272D01*
X22921330Y-8120294D01*
X22853033Y-8280391D01*
X22846634Y-8286656D01*
X22842271Y-8287500D01*
X22657729Y-8287500D01*
X22649456Y-8284073D01*
X22646967Y-8280391D01*
X22578668Y-8120294D01*
X22578615Y-8120169D01*
X22507231Y-7974343D01*
X22435847Y-7850020D01*
X22364463Y-7747201D01*
X22301424Y-7675393D01*
X22298543Y-7666916D01*
X22302499Y-7658882D01*
X22303209Y-7658307D01*
X22742991Y-7329243D01*
X22751668Y-7327031D01*
X22757007Y-7329243D01*
G37*
G04 #@! TD.AperFunction*
G04 #@! TA.AperFunction,Conductor*
G36*
X29375740Y-21850461D02*
G01*
X29491084Y-21938047D01*
X29615188Y-22015785D01*
X29739292Y-22077023D01*
X29863396Y-22121761D01*
X29978396Y-22147928D01*
X29985703Y-22153105D01*
X29987500Y-22159336D01*
X29987500Y-22539062D01*
X29984073Y-22547335D01*
X29976587Y-22550735D01*
X29863571Y-22558357D01*
X29863564Y-22558357D01*
X29863177Y-22558384D01*
X29862798Y-22558459D01*
X29862789Y-22558461D01*
X29739214Y-22583195D01*
X29739199Y-22583198D01*
X29738854Y-22583268D01*
X29738514Y-22583380D01*
X29738507Y-22583383D01*
X29614854Y-22624544D01*
X29614841Y-22624549D01*
X29614532Y-22624652D01*
X29614241Y-22624787D01*
X29614227Y-22624793D01*
X29490479Y-22682409D01*
X29490459Y-22682419D01*
X29490209Y-22682536D01*
X29489964Y-22682682D01*
X29489950Y-22682690D01*
X29374352Y-22751855D01*
X29365493Y-22753162D01*
X29359464Y-22749432D01*
X29216950Y-22583268D01*
X28980545Y-22307631D01*
X28977761Y-22299122D01*
X28980561Y-22292382D01*
X29359801Y-21852142D01*
X29367795Y-21848111D01*
X29375740Y-21850461D01*
G37*
G04 #@! TD.AperFunction*
G04 #@! TA.AperFunction,Conductor*
G36*
X29450338Y-25353630D02*
G01*
X29450532Y-25353862D01*
X29555009Y-25481802D01*
X29667080Y-25597153D01*
X29779151Y-25690614D01*
X29891222Y-25762187D01*
X29987705Y-25804960D01*
X29993878Y-25811445D01*
X29993658Y-25820397D01*
X29991235Y-25823928D01*
X29864488Y-25950675D01*
X29858225Y-25953928D01*
X29762671Y-25970594D01*
X29663479Y-26004606D01*
X29564609Y-26055164D01*
X29564599Y-26055169D01*
X29564280Y-26055333D01*
X29563985Y-26055533D01*
X29563974Y-26055540D01*
X29465329Y-26122603D01*
X29465319Y-26122610D01*
X29465083Y-26122771D01*
X29464868Y-26122953D01*
X29464854Y-26122964D01*
X29374771Y-26199384D01*
X29366245Y-26202123D01*
X29358312Y-26198069D01*
X29294044Y-26122964D01*
X28981864Y-25758141D01*
X28979090Y-25749628D01*
X28983108Y-25741680D01*
X29042516Y-25690374D01*
X29433837Y-25352421D01*
X29442337Y-25349608D01*
X29450338Y-25353630D01*
G37*
G04 #@! TD.AperFunction*
G04 #@! TA.AperFunction,Conductor*
G36*
X31963538Y-21185750D02*
G01*
X31964297Y-21186099D01*
X32110370Y-21259642D01*
X32111635Y-21260382D01*
X32219728Y-21333261D01*
X32219838Y-21333332D01*
X32314136Y-21393737D01*
X32314138Y-21393738D01*
X32429238Y-21434840D01*
X32589335Y-21449053D01*
X32597272Y-21453198D01*
X32600000Y-21460707D01*
X32600000Y-21639292D01*
X32596573Y-21647565D01*
X32589335Y-21650946D01*
X32429240Y-21665158D01*
X32314136Y-21706261D01*
X32219728Y-21766738D01*
X32219629Y-21766805D01*
X32189905Y-21786844D01*
X32185198Y-21788699D01*
X32181065Y-21789354D01*
X32153450Y-21803424D01*
X32151755Y-21804126D01*
X32122280Y-21813703D01*
X32097212Y-21831917D01*
X32095647Y-21832877D01*
X32068027Y-21846950D01*
X32043815Y-21871162D01*
X32039702Y-21875274D01*
X32036692Y-21877450D01*
X31964297Y-21913900D01*
X31955366Y-21914560D01*
X31948585Y-21908712D01*
X31948244Y-21907969D01*
X31800875Y-21554499D01*
X31800855Y-21545550D01*
X31948237Y-21192046D01*
X31954584Y-21185729D01*
X31963538Y-21185750D01*
G37*
G04 #@! TD.AperFunction*
G04 #@! TA.AperFunction,Conductor*
G36*
X6593036Y-33003856D02*
G01*
X6598482Y-33008801D01*
X6679454Y-33152309D01*
X6845860Y-33347591D01*
X6845863Y-33347594D01*
X6992318Y-33464074D01*
X7089958Y-33541731D01*
X7390153Y-33681812D01*
X7408933Y-33690576D01*
X7790057Y-33748489D01*
X7797721Y-33753120D01*
X7799999Y-33760056D01*
X7799999Y-34239943D01*
X7796572Y-34248216D01*
X7790057Y-34251510D01*
X7408931Y-34309423D01*
X7089958Y-34458267D01*
X6845863Y-34652405D01*
X6679453Y-34847691D01*
X6598482Y-34991197D01*
X6591432Y-34996718D01*
X6584084Y-34996364D01*
X4027324Y-34010917D01*
X4020837Y-34004744D01*
X4020615Y-33995792D01*
X4026788Y-33989305D01*
X4027324Y-33989083D01*
X6584087Y-33003634D01*
X6593036Y-33003856D01*
G37*
G04 #@! TD.AperFunction*
G04 #@! TA.AperFunction,Conductor*
G36*
X16932290Y-24618427D02*
G01*
X16935694Y-24625961D01*
X16960870Y-25023536D01*
X17032611Y-25359998D01*
X17141417Y-25632669D01*
X17278482Y-25849841D01*
X17427735Y-26011908D01*
X17430819Y-26020315D01*
X17427773Y-26027719D01*
X16443644Y-27106524D01*
X16435536Y-27110327D01*
X16427115Y-27107283D01*
X16426356Y-27106524D01*
X16096901Y-26745375D01*
X15442225Y-26027717D01*
X15439182Y-26019298D01*
X15442263Y-26011910D01*
X15591517Y-25849840D01*
X15728581Y-25632669D01*
X15837387Y-25359997D01*
X15909129Y-25023536D01*
X15934305Y-24625961D01*
X15938249Y-24617921D01*
X15945983Y-24615000D01*
X16924017Y-24615000D01*
X16932290Y-24618427D01*
G37*
G04 #@! TD.AperFunction*
G04 #@! TA.AperFunction,Conductor*
G36*
X35716493Y-20683965D02*
G01*
X36013940Y-20768522D01*
X36348911Y-20863746D01*
X36355932Y-20869304D01*
X36356966Y-20878199D01*
X36351408Y-20885220D01*
X36348911Y-20886254D01*
X35716518Y-21066027D01*
X35707623Y-21064993D01*
X35707432Y-21064884D01*
X35659609Y-21037040D01*
X35659602Y-21037036D01*
X35659385Y-21036910D01*
X35637619Y-21026732D01*
X35607307Y-21012557D01*
X35607301Y-21012554D01*
X35607039Y-21012432D01*
X35606773Y-21012338D01*
X35606763Y-21012334D01*
X35554984Y-20994058D01*
X35554982Y-20994057D01*
X35554692Y-20993955D01*
X35554402Y-20993885D01*
X35554389Y-20993882D01*
X35502655Y-20981550D01*
X35502643Y-20981547D01*
X35502346Y-20981477D01*
X35502036Y-20981438D01*
X35502027Y-20981437D01*
X35460263Y-20976269D01*
X35452473Y-20971852D01*
X35450000Y-20964658D01*
X35450000Y-20785340D01*
X35453427Y-20777067D01*
X35460260Y-20773730D01*
X35502346Y-20768522D01*
X35554692Y-20756044D01*
X35607039Y-20737567D01*
X35659385Y-20713089D01*
X35707433Y-20685114D01*
X35716305Y-20683914D01*
X35716493Y-20683965D01*
G37*
G04 #@! TD.AperFunction*
G04 #@! TA.AperFunction,Conductor*
G36*
X29510372Y-23869806D02*
G01*
X29515590Y-23876632D01*
X29572411Y-24076725D01*
X29572462Y-24076889D01*
X29632323Y-24265203D01*
X29632399Y-24265421D01*
X29692176Y-24431022D01*
X29692184Y-24431044D01*
X29692234Y-24431181D01*
X29692286Y-24431307D01*
X29692294Y-24431326D01*
X29742782Y-24552233D01*
X29752146Y-24574659D01*
X29752228Y-24574826D01*
X29752231Y-24574831D01*
X29808330Y-24688111D01*
X29808930Y-24697045D01*
X29806118Y-24701576D01*
X29677377Y-24830317D01*
X29669104Y-24833744D01*
X29662674Y-24831819D01*
X29492393Y-24719800D01*
X29492159Y-24719646D01*
X29491910Y-24719513D01*
X29491904Y-24719510D01*
X29313948Y-24624876D01*
X29313681Y-24624734D01*
X29313412Y-24624625D01*
X29313406Y-24624622D01*
X29135510Y-24552447D01*
X29135507Y-24552446D01*
X29135204Y-24552323D01*
X29134892Y-24552235D01*
X29134884Y-24552233D01*
X28957062Y-24502505D01*
X28956726Y-24502411D01*
X28938889Y-24499671D01*
X28792961Y-24477259D01*
X28785304Y-24472616D01*
X28783173Y-24463919D01*
X28783918Y-24461243D01*
X28972038Y-24004763D01*
X28978357Y-23998422D01*
X28980023Y-23997870D01*
X29501520Y-23868472D01*
X29510372Y-23869806D01*
G37*
G04 #@! TD.AperFunction*
G04 #@! TA.AperFunction,Conductor*
G36*
X48718039Y-15219685D02*
G01*
X48763794Y-15272489D01*
X48775000Y-15324000D01*
X48775000Y-21600500D01*
X48755315Y-21667539D01*
X48702511Y-21713294D01*
X48651000Y-21724500D01*
X41599000Y-21724500D01*
X41531961Y-21704815D01*
X41486206Y-21652011D01*
X41475000Y-21600500D01*
X41475000Y-21449500D01*
X41494685Y-21382461D01*
X41547489Y-21336706D01*
X41599000Y-21325500D01*
X42788778Y-21325500D01*
X42795678Y-21325000D01*
X43115000Y-21325000D01*
X43125000Y-21325000D01*
X43125000Y-20425000D01*
X43115000Y-20425000D01*
X42795678Y-20425000D01*
X42788778Y-20424500D01*
X42783260Y-20424500D01*
X41599000Y-20424500D01*
X41531961Y-20404815D01*
X41486206Y-20352011D01*
X41475000Y-20300500D01*
X41475000Y-20149500D01*
X41494685Y-20082461D01*
X41547489Y-20036706D01*
X41599000Y-20025500D01*
X42044598Y-20025500D01*
X43142738Y-20025500D01*
X43156622Y-20026280D01*
X43192033Y-20030270D01*
X43192033Y-20030269D01*
X43192035Y-20030270D01*
X43248228Y-20019636D01*
X43252726Y-20018872D01*
X43309287Y-20010348D01*
X43309288Y-20010347D01*
X43315268Y-20009446D01*
X43320128Y-20007846D01*
X43325467Y-20005023D01*
X43325472Y-20005023D01*
X43376045Y-19978292D01*
X43380136Y-19976227D01*
X43431642Y-19951425D01*
X43431642Y-19951424D01*
X43448483Y-19943315D01*
X43449171Y-19944744D01*
X43475471Y-19930166D01*
X43615976Y-19892147D01*
X45234090Y-19454305D01*
X45266478Y-19450000D01*
X46315000Y-19450000D01*
X46325000Y-19450000D01*
X46325000Y-15323999D01*
X46344685Y-15256961D01*
X46397489Y-15211206D01*
X46449000Y-15200000D01*
X48651000Y-15200000D01*
X48718039Y-15219685D01*
G37*
G04 #@! TD.AperFunction*
G04 #@! TA.AperFunction,Conductor*
G36*
X27395351Y-23780043D02*
G01*
X27398778Y-23788316D01*
X27398721Y-23789474D01*
X27383604Y-23941466D01*
X27382826Y-23944649D01*
X27339622Y-24052775D01*
X27338300Y-24055204D01*
X27275004Y-24144426D01*
X27199148Y-24249115D01*
X27124478Y-24393544D01*
X27117635Y-24399320D01*
X27109633Y-24398991D01*
X26754503Y-24252853D01*
X26748156Y-24246535D01*
X26748141Y-24246500D01*
X26705975Y-24144426D01*
X26602541Y-23894038D01*
X26602550Y-23885085D01*
X26608888Y-23878759D01*
X26611429Y-23878033D01*
X26738604Y-23856855D01*
X26742126Y-23856807D01*
X26876314Y-23875380D01*
X26876756Y-23875450D01*
X26991256Y-23895811D01*
X27070459Y-23876604D01*
X27096201Y-23789474D01*
X27097523Y-23785001D01*
X27103154Y-23778038D01*
X27108744Y-23776616D01*
X27387078Y-23776616D01*
X27395351Y-23780043D01*
G37*
G04 #@! TD.AperFunction*
G04 #@! TA.AperFunction,Conductor*
G36*
X75415915Y-3003635D02*
G01*
X77972675Y-3989083D01*
X77979162Y-3995256D01*
X77979384Y-4004208D01*
X77973211Y-4010695D01*
X77972675Y-4010917D01*
X75415915Y-4996365D01*
X75406963Y-4996143D01*
X75401517Y-4991197D01*
X75320547Y-4847693D01*
X75320546Y-4847693D01*
X75154135Y-4652405D01*
X75016382Y-4542845D01*
X74910040Y-4458267D01*
X74591067Y-4309423D01*
X74209942Y-4251510D01*
X74202278Y-4246879D01*
X74200000Y-4239943D01*
X74200000Y-3760056D01*
X74203427Y-3751783D01*
X74209941Y-3748489D01*
X74591066Y-3690576D01*
X74741164Y-3620534D01*
X74910040Y-3541731D01*
X74910043Y-3541729D01*
X75154135Y-3347594D01*
X75320547Y-3152305D01*
X75401517Y-3008801D01*
X75408567Y-3003281D01*
X75415915Y-3003635D01*
G37*
G04 #@! TD.AperFunction*
G04 #@! TA.AperFunction,Conductor*
G36*
X7790302Y-33550296D02*
G01*
X8169467Y-33992383D01*
X8172252Y-34000894D01*
X8169467Y-34007617D01*
X7790302Y-34449704D01*
X7782315Y-34453753D01*
X7775782Y-34452338D01*
X7660023Y-34388664D01*
X7660020Y-34388662D01*
X7659790Y-34388536D01*
X7640483Y-34380012D01*
X7535734Y-34333769D01*
X7535718Y-34333762D01*
X7535467Y-34333652D01*
X7535200Y-34333563D01*
X7535192Y-34333560D01*
X7411423Y-34292360D01*
X7411413Y-34292357D01*
X7411145Y-34292268D01*
X7410869Y-34292206D01*
X7410858Y-34292203D01*
X7287134Y-34264454D01*
X7286822Y-34264384D01*
X7257267Y-34260964D01*
X7172855Y-34251198D01*
X7165031Y-34246843D01*
X7162500Y-34239576D01*
X7162500Y-33760423D01*
X7165927Y-33752150D01*
X7172852Y-33748802D01*
X7286822Y-33735615D01*
X7411145Y-33707731D01*
X7535467Y-33666347D01*
X7659790Y-33611463D01*
X7660010Y-33611341D01*
X7660020Y-33611337D01*
X7775782Y-33547662D01*
X7784683Y-33546677D01*
X7790302Y-33550296D01*
G37*
G04 #@! TD.AperFunction*
G04 #@! TA.AperFunction,Conductor*
G36*
X36942464Y-18095000D02*
G01*
X36988509Y-18147551D01*
X37000000Y-18199683D01*
X37000000Y-19000500D01*
X36980315Y-19067539D01*
X36927511Y-19113294D01*
X36876000Y-19124500D01*
X35741397Y-19124500D01*
X35735938Y-19124380D01*
X34393541Y-19065223D01*
X34327433Y-19042606D01*
X34284047Y-18987839D01*
X34275000Y-18941343D01*
X34275000Y-18213318D01*
X34294685Y-18146279D01*
X34347489Y-18100524D01*
X34398312Y-18089320D01*
X36875320Y-18075685D01*
X36942464Y-18095000D01*
G37*
G04 #@! TD.AperFunction*
G04 #@! TA.AperFunction,Conductor*
G36*
X63443576Y-4419685D02*
G01*
X63489331Y-4472489D01*
X63500536Y-4523461D01*
X63599458Y-27275461D01*
X63580065Y-27342585D01*
X63527460Y-27388569D01*
X63475459Y-27400000D01*
X59457454Y-27400000D01*
X59390415Y-27380315D01*
X59362855Y-27356169D01*
X58718554Y-26595894D01*
X54402996Y-21503535D01*
X54402995Y-21503534D01*
X54400000Y-21500000D01*
X54395369Y-21500000D01*
X51024000Y-21500000D01*
X50956961Y-21480315D01*
X50911206Y-21427511D01*
X50900000Y-21376000D01*
X50900000Y-13124000D01*
X50919685Y-13056961D01*
X50972489Y-13011206D01*
X51024000Y-13000000D01*
X57794853Y-13000000D01*
X57794854Y-13000000D01*
X57800000Y-13000000D01*
X59800000Y-10200000D01*
X59800000Y-4523999D01*
X59819685Y-4456961D01*
X59872489Y-4411206D01*
X59924000Y-4400000D01*
X63376537Y-4400000D01*
X63443576Y-4419685D01*
G37*
G04 #@! TD.AperFunction*
G04 #@! TA.AperFunction,Conductor*
G36*
X17537692Y-26124005D02*
G01*
X17538036Y-26124400D01*
X17733502Y-26358952D01*
X17938886Y-26600944D01*
X18028526Y-26678031D01*
X18183105Y-26810964D01*
X18502895Y-26958988D01*
X18924804Y-27013678D01*
X18932568Y-27018140D01*
X18935000Y-27025281D01*
X18935000Y-27204718D01*
X18931573Y-27212991D01*
X18924804Y-27216321D01*
X18502896Y-27271010D01*
X18183105Y-27419035D01*
X17938886Y-27629053D01*
X17733502Y-27871047D01*
X17538036Y-28105599D01*
X17530107Y-28109761D01*
X17521558Y-28107097D01*
X17521163Y-28106753D01*
X16767284Y-27419035D01*
X16443474Y-27123643D01*
X16439672Y-27115536D01*
X16442716Y-27107115D01*
X16443468Y-27106362D01*
X17521164Y-26123245D01*
X17529584Y-26120202D01*
X17537692Y-26124005D01*
G37*
G04 #@! TD.AperFunction*
G04 #@! TA.AperFunction,Conductor*
G36*
X22850544Y-4540927D02*
G01*
X22853032Y-4544607D01*
X22921384Y-4704830D01*
X22921441Y-4704947D01*
X22921450Y-4704966D01*
X22992684Y-4850486D01*
X22992693Y-4850504D01*
X22992768Y-4850656D01*
X23064152Y-4974979D01*
X23135536Y-5077798D01*
X23135752Y-5078044D01*
X23198574Y-5149605D01*
X23201456Y-5158083D01*
X23197500Y-5166117D01*
X23196790Y-5166692D01*
X22757009Y-5495755D01*
X22748332Y-5497968D01*
X22742991Y-5495755D01*
X22303209Y-5166692D01*
X22298637Y-5158992D01*
X22300850Y-5150315D01*
X22301415Y-5149616D01*
X22364463Y-5077798D01*
X22435847Y-4974979D01*
X22507231Y-4850656D01*
X22578615Y-4704830D01*
X22646967Y-4544608D01*
X22653366Y-4538344D01*
X22657729Y-4537500D01*
X22842271Y-4537500D01*
X22850544Y-4540927D01*
G37*
G04 #@! TD.AperFunction*
G04 #@! TA.AperFunction,Conductor*
G36*
X28179619Y-20700308D02*
G01*
X28355379Y-20704842D01*
X28356520Y-20704928D01*
X28488450Y-20721675D01*
X28490221Y-20722041D01*
X28601540Y-20754165D01*
X28602712Y-20754572D01*
X28728616Y-20806044D01*
X28728617Y-20806044D01*
X28892447Y-20875916D01*
X28898713Y-20882314D01*
X28898677Y-20891130D01*
X28751895Y-21247823D01*
X28749334Y-21251659D01*
X28477267Y-21522768D01*
X28468987Y-21526180D01*
X28460720Y-21522739D01*
X28459261Y-21520952D01*
X28390830Y-21417897D01*
X28389316Y-21414597D01*
X28357200Y-21300313D01*
X28357079Y-21299844D01*
X28333182Y-21198765D01*
X28333181Y-21198765D01*
X28282006Y-21127150D01*
X28176660Y-21102135D01*
X28169404Y-21096891D01*
X28167665Y-21090753D01*
X28167665Y-20712005D01*
X28171092Y-20703732D01*
X28179365Y-20700305D01*
X28179619Y-20700308D01*
G37*
G04 #@! TD.AperFunction*
G04 #@! TA.AperFunction,Conductor*
G36*
X36943039Y-23295185D02*
G01*
X36988794Y-23347989D01*
X37000000Y-23399500D01*
X37000000Y-24200500D01*
X36980315Y-24267539D01*
X36927511Y-24313294D01*
X36876000Y-24324500D01*
X35736759Y-24324500D01*
X35732721Y-24324433D01*
X34588210Y-24286908D01*
X34415761Y-24281254D01*
X34344937Y-24278932D01*
X34278578Y-24257062D01*
X34234578Y-24202787D01*
X34225000Y-24154999D01*
X34225000Y-23445000D01*
X34244685Y-23377961D01*
X34297489Y-23332206D01*
X34344934Y-23321067D01*
X34588210Y-23313091D01*
X35712419Y-23276231D01*
X35731261Y-23277049D01*
X35752216Y-23279567D01*
X35758728Y-23279427D01*
X35768721Y-23277788D01*
X35772714Y-23277134D01*
X35792777Y-23275500D01*
X36876000Y-23275500D01*
X36943039Y-23295185D01*
G37*
G04 #@! TD.AperFunction*
G04 #@! TA.AperFunction,Conductor*
G36*
X25819510Y-26209495D02*
G01*
X25928397Y-26299627D01*
X26046298Y-26380720D01*
X26164198Y-26445313D01*
X26230441Y-26472334D01*
X26281755Y-26493266D01*
X26281759Y-26493267D01*
X26282099Y-26493406D01*
X26391328Y-26522676D01*
X26398433Y-26528127D01*
X26400000Y-26533977D01*
X26400000Y-26913840D01*
X26396573Y-26922113D01*
X26388853Y-26925527D01*
X26276061Y-26930865D01*
X26276048Y-26930866D01*
X26275677Y-26930884D01*
X26275301Y-26930951D01*
X26275298Y-26930952D01*
X26151715Y-26953202D01*
X26151699Y-26953205D01*
X26151354Y-26953268D01*
X26151014Y-26953374D01*
X26151007Y-26953376D01*
X26027346Y-26992053D01*
X26027334Y-26992057D01*
X26027032Y-26992152D01*
X26026732Y-26992285D01*
X26026723Y-26992289D01*
X25902983Y-27047413D01*
X25902968Y-27047420D01*
X25902709Y-27047536D01*
X25902467Y-27047675D01*
X25902455Y-27047682D01*
X25787664Y-27114056D01*
X25778786Y-27115230D01*
X25772230Y-27110647D01*
X25454059Y-26657210D01*
X25452113Y-26648472D01*
X25454531Y-26643145D01*
X25803059Y-26211250D01*
X25810919Y-26206966D01*
X25819510Y-26209495D01*
G37*
G04 #@! TD.AperFunction*
G04 #@! TA.AperFunction,Conductor*
G36*
X33718300Y-23245185D02*
G01*
X33764055Y-23297989D01*
X33773999Y-23367147D01*
X33767443Y-23392833D01*
X33743249Y-23457698D01*
X33738983Y-23497383D01*
X33737000Y-23515826D01*
X33737000Y-24084174D01*
X33743249Y-24142299D01*
X33792288Y-24273778D01*
X33876384Y-24386116D01*
X33988722Y-24470212D01*
X34120201Y-24519251D01*
X34178326Y-24525500D01*
X34276071Y-24525500D01*
X34297729Y-24527406D01*
X34319235Y-24531220D01*
X34336564Y-24534295D01*
X35154532Y-24561093D01*
X35220890Y-24582963D01*
X35264892Y-24637237D01*
X35272565Y-24706684D01*
X35241475Y-24769255D01*
X35238152Y-24772708D01*
X34647681Y-25363181D01*
X34586358Y-25396666D01*
X34560000Y-25399500D01*
X30921543Y-25399500D01*
X30854504Y-25379815D01*
X30833862Y-25363181D01*
X30447074Y-24976393D01*
X30043732Y-24573050D01*
X30020295Y-24540403D01*
X29986518Y-24472197D01*
X29983225Y-24464972D01*
X29931567Y-24341261D01*
X29929392Y-24335668D01*
X29875267Y-24185771D01*
X29873727Y-24181230D01*
X29843920Y-24087460D01*
X29817690Y-24004945D01*
X29816586Y-24001275D01*
X29813878Y-23991740D01*
X29777660Y-23864197D01*
X29767716Y-23829177D01*
X29763000Y-23795304D01*
X29763000Y-23719135D01*
X29763000Y-23715826D01*
X29756751Y-23657701D01*
X29750534Y-23641035D01*
X29745549Y-23571344D01*
X29779033Y-23510020D01*
X29793829Y-23497383D01*
X29809087Y-23486296D01*
X29809090Y-23486296D01*
X29827022Y-23473266D01*
X29843598Y-23463109D01*
X29863342Y-23453050D01*
X29871674Y-23444717D01*
X29871680Y-23444713D01*
X29904575Y-23411819D01*
X29965898Y-23378334D01*
X29992256Y-23375500D01*
X32463433Y-23375500D01*
X32484499Y-23368655D01*
X32503414Y-23364112D01*
X32525304Y-23360646D01*
X32545042Y-23350587D01*
X32563016Y-23343142D01*
X32584090Y-23336296D01*
X32602021Y-23323267D01*
X32618598Y-23313109D01*
X32638342Y-23303050D01*
X32646674Y-23294717D01*
X32646680Y-23294713D01*
X32679575Y-23261819D01*
X32740898Y-23228334D01*
X32767256Y-23225500D01*
X33651261Y-23225500D01*
X33718300Y-23245185D01*
G37*
G04 #@! TD.AperFunction*
G04 #@! TA.AperFunction,Conductor*
G36*
X80004043Y-765D02*
G01*
X80083817Y-5993D01*
X80261572Y-18707D01*
X80276905Y-20772D01*
X80389432Y-43155D01*
X80530263Y-73791D01*
X80543693Y-77519D01*
X80657788Y-116249D01*
X80661105Y-117431D01*
X80701667Y-132560D01*
X80788802Y-165061D01*
X80800300Y-170024D01*
X80910687Y-224461D01*
X80915186Y-226798D01*
X81029023Y-288957D01*
X81032478Y-290844D01*
X81041942Y-296574D01*
X81145269Y-365615D01*
X81150685Y-369448D01*
X81256727Y-448830D01*
X81264145Y-454844D01*
X81357976Y-537131D01*
X81363898Y-542678D01*
X81457320Y-636100D01*
X81462867Y-642022D01*
X81545150Y-735848D01*
X81551174Y-743278D01*
X81588298Y-792870D01*
X81630548Y-849310D01*
X81634383Y-854729D01*
X81703424Y-958056D01*
X81709154Y-967520D01*
X81773183Y-1084779D01*
X81775564Y-1089363D01*
X81829969Y-1199687D01*
X81834937Y-1211196D01*
X81882559Y-1338873D01*
X81883776Y-1342289D01*
X81917553Y-1441792D01*
X81922469Y-1456273D01*
X81926215Y-1469772D01*
X81956847Y-1610580D01*
X81979228Y-1723099D01*
X81981290Y-1738421D01*
X81994013Y-1916296D01*
X81996278Y-1950845D01*
X81999235Y-1995956D01*
X81999500Y-2004051D01*
X81999500Y-35995946D01*
X81999234Y-36004057D01*
X81994013Y-36083702D01*
X81981291Y-36261568D01*
X81979225Y-36276909D01*
X81956847Y-36389419D01*
X81926215Y-36530234D01*
X81922472Y-36543717D01*
X81883798Y-36657649D01*
X81882559Y-36661125D01*
X81834937Y-36788802D01*
X81829969Y-36800311D01*
X81775564Y-36910635D01*
X81773183Y-36915219D01*
X81709154Y-37032478D01*
X81703424Y-37041942D01*
X81634383Y-37145269D01*
X81630548Y-37150688D01*
X81551181Y-37256711D01*
X81545142Y-37264160D01*
X81462867Y-37357976D01*
X81457320Y-37363898D01*
X81363898Y-37457320D01*
X81357976Y-37462867D01*
X81264160Y-37545142D01*
X81256711Y-37551181D01*
X81150688Y-37630548D01*
X81145269Y-37634383D01*
X81041942Y-37703424D01*
X81032478Y-37709154D01*
X80915219Y-37773183D01*
X80910635Y-37775564D01*
X80800311Y-37829969D01*
X80788802Y-37834937D01*
X80661125Y-37882559D01*
X80657668Y-37883790D01*
X80624725Y-37894973D01*
X80543725Y-37922469D01*
X80530226Y-37926215D01*
X80389419Y-37956847D01*
X80276899Y-37979228D01*
X80261577Y-37981290D01*
X80083703Y-37994013D01*
X80046123Y-37996476D01*
X80004029Y-37999235D01*
X79995948Y-37999500D01*
X2004053Y-37999500D01*
X1995942Y-37999234D01*
X1916297Y-37994013D01*
X1738431Y-37981291D01*
X1723089Y-37979225D01*
X1610580Y-37956847D01*
X1559321Y-37945696D01*
X1469755Y-37926212D01*
X1456281Y-37922472D01*
X1342289Y-37883776D01*
X1338873Y-37882559D01*
X1211196Y-37834937D01*
X1199687Y-37829969D01*
X1134947Y-37798043D01*
X1089348Y-37775556D01*
X1084779Y-37773183D01*
X967520Y-37709154D01*
X958056Y-37703424D01*
X854729Y-37634383D01*
X849310Y-37630548D01*
X792870Y-37588298D01*
X743278Y-37551174D01*
X735848Y-37545150D01*
X642022Y-37462867D01*
X636100Y-37457320D01*
X542678Y-37363898D01*
X537131Y-37357976D01*
X505450Y-37321851D01*
X454844Y-37264145D01*
X448830Y-37256727D01*
X369450Y-37150688D01*
X365615Y-37145269D01*
X296574Y-37041942D01*
X290844Y-37032478D01*
X288957Y-37029023D01*
X226798Y-36915186D01*
X224461Y-36910687D01*
X170024Y-36800300D01*
X165061Y-36788802D01*
X117439Y-36661125D01*
X116249Y-36657786D01*
X77523Y-36543706D01*
X73783Y-36530225D01*
X43152Y-36389420D01*
X20767Y-36276880D01*
X18708Y-36261576D01*
X5993Y-36083817D01*
X765Y-36004041D01*
X500Y-35995935D01*
X500Y-34000000D01*
X944693Y-34000000D01*
X963904Y-34342086D01*
X964483Y-34345496D01*
X964485Y-34345510D01*
X1020712Y-34676436D01*
X1020714Y-34676445D01*
X1021296Y-34679870D01*
X1022257Y-34683207D01*
X1022259Y-34683214D01*
X1115183Y-35005760D01*
X1115186Y-35005769D01*
X1116147Y-35009104D01*
X1117476Y-35012312D01*
X1117479Y-35012321D01*
X1245932Y-35322433D01*
X1247264Y-35325648D01*
X1248946Y-35328691D01*
X1411319Y-35622484D01*
X1411323Y-35622490D01*
X1412998Y-35625521D01*
X1611265Y-35904953D01*
X1613579Y-35907543D01*
X1613582Y-35907546D01*
X1696204Y-36000000D01*
X1839572Y-36160428D01*
X2095047Y-36388735D01*
X2374479Y-36587002D01*
X2674352Y-36752736D01*
X2990896Y-36883853D01*
X3320130Y-36978704D01*
X3657914Y-37036096D01*
X4000000Y-37055307D01*
X4342086Y-37036096D01*
X4679870Y-36978704D01*
X5009104Y-36883853D01*
X5325648Y-36752736D01*
X5625521Y-36587002D01*
X5904953Y-36388735D01*
X6160428Y-36160428D01*
X6388735Y-35904953D01*
X6587002Y-35625521D01*
X6752736Y-35325648D01*
X6882291Y-35012873D01*
X6902468Y-34979906D01*
X7016484Y-34846105D01*
X7033678Y-34829484D01*
X7213898Y-34686148D01*
X7238635Y-34670837D01*
X7395678Y-34597554D01*
X7464750Y-34587044D01*
X7498190Y-34596485D01*
X7541473Y-34615593D01*
X7551138Y-34620373D01*
X7622751Y-34659764D01*
X7637290Y-34669140D01*
X7638722Y-34670212D01*
X7639622Y-34670547D01*
X7648929Y-34674816D01*
X7652638Y-34676204D01*
X7652642Y-34676206D01*
X7721697Y-34702048D01*
X7721703Y-34702049D01*
X7724583Y-34703127D01*
X7735742Y-34706398D01*
X7770201Y-34719251D01*
X7828326Y-34725500D01*
X7831636Y-34725500D01*
X8518364Y-34725500D01*
X8521674Y-34725500D01*
X8579799Y-34719251D01*
X8711278Y-34670212D01*
X8823616Y-34586116D01*
X8907712Y-34473778D01*
X8956751Y-34342299D01*
X8963000Y-34284174D01*
X8963000Y-33715826D01*
X8956751Y-33657701D01*
X8907712Y-33526222D01*
X8823616Y-33413884D01*
X8711278Y-33329788D01*
X8579799Y-33280749D01*
X8579799Y-33280748D01*
X8524960Y-33274853D01*
X8524954Y-33274852D01*
X8521674Y-33274500D01*
X7828326Y-33274500D01*
X7825045Y-33274852D01*
X7825021Y-33274854D01*
X7770201Y-33280748D01*
X7669783Y-33318201D01*
X7663876Y-33320236D01*
X7650462Y-33324482D01*
X7639636Y-33329447D01*
X7638721Y-33329788D01*
X7637291Y-33330859D01*
X7622750Y-33340234D01*
X7551144Y-33379620D01*
X7541464Y-33384408D01*
X7498194Y-33403511D01*
X7428915Y-33412579D01*
X7395678Y-33402442D01*
X7357031Y-33384408D01*
X7242268Y-33330855D01*
X7238640Y-33329162D01*
X7213890Y-33313842D01*
X7033684Y-33170519D01*
X7016488Y-33153896D01*
X6902468Y-33020091D01*
X6882289Y-32987121D01*
X6752736Y-32674352D01*
X6587002Y-32374479D01*
X6388735Y-32095047D01*
X6160428Y-31839572D01*
X5904953Y-31611265D01*
X5625521Y-31412998D01*
X5622490Y-31411323D01*
X5622484Y-31411319D01*
X5328691Y-31248946D01*
X5325648Y-31247264D01*
X5322437Y-31245934D01*
X5322433Y-31245932D01*
X5317769Y-31244000D01*
X25734085Y-31244000D01*
X25734085Y-35350500D01*
X34665916Y-35350500D01*
X34665916Y-31244000D01*
X25734085Y-31244000D01*
X5317769Y-31244000D01*
X5012321Y-31117479D01*
X5012312Y-31117476D01*
X5009104Y-31116147D01*
X5005769Y-31115186D01*
X5005760Y-31115183D01*
X4683214Y-31022259D01*
X4683207Y-31022257D01*
X4679870Y-31021296D01*
X4676445Y-31020714D01*
X4676436Y-31020712D01*
X4345510Y-30964485D01*
X4345496Y-30964483D01*
X4342086Y-30963904D01*
X4338622Y-30963709D01*
X4338618Y-30963709D01*
X4003472Y-30944888D01*
X4000000Y-30944693D01*
X3996528Y-30944888D01*
X3661381Y-30963709D01*
X3661375Y-30963709D01*
X3657914Y-30963904D01*
X3654505Y-30964483D01*
X3654489Y-30964485D01*
X3323563Y-31020712D01*
X3323550Y-31020714D01*
X3320130Y-31021296D01*
X3316796Y-31022256D01*
X3316785Y-31022259D01*
X2994239Y-31115183D01*
X2994224Y-31115188D01*
X2990896Y-31116147D01*
X2987692Y-31117473D01*
X2987678Y-31117479D01*
X2677566Y-31245932D01*
X2677555Y-31245937D01*
X2674352Y-31247264D01*
X2671313Y-31248943D01*
X2671308Y-31248946D01*
X2377515Y-31411319D01*
X2377500Y-31411327D01*
X2374479Y-31412998D01*
X2371653Y-31415002D01*
X2371650Y-31415005D01*
X2097884Y-31609251D01*
X2097872Y-31609260D01*
X2095047Y-31611265D01*
X2092464Y-31613572D01*
X2092453Y-31613582D01*
X1842157Y-31837261D01*
X1842148Y-31837269D01*
X1839572Y-31839572D01*
X1837269Y-31842148D01*
X1837261Y-31842157D01*
X1613582Y-32092453D01*
X1613572Y-32092464D01*
X1611265Y-32095047D01*
X1609260Y-32097872D01*
X1609251Y-32097884D01*
X1429514Y-32351202D01*
X1412998Y-32374479D01*
X1411327Y-32377500D01*
X1411319Y-32377515D01*
X1248946Y-32671308D01*
X1247264Y-32674352D01*
X1245937Y-32677555D01*
X1245932Y-32677566D01*
X1117479Y-32987678D01*
X1117473Y-32987692D01*
X1116147Y-32990896D01*
X1115188Y-32994224D01*
X1115183Y-32994239D01*
X1022259Y-33316785D01*
X1022256Y-33316796D01*
X1021296Y-33320130D01*
X1020714Y-33323550D01*
X1020712Y-33323563D01*
X964485Y-33654489D01*
X964483Y-33654505D01*
X963904Y-33657914D01*
X963709Y-33661375D01*
X963709Y-33661381D01*
X960466Y-33719135D01*
X944693Y-34000000D01*
X500Y-34000000D01*
X500Y-27114999D01*
X1979591Y-27114999D01*
X1999197Y-27376627D01*
X2057580Y-27632418D01*
X2151614Y-27872011D01*
X2153432Y-27876643D01*
X2181244Y-27924815D01*
X2249851Y-28043647D01*
X2284614Y-28103857D01*
X2448195Y-28308981D01*
X2448197Y-28308983D01*
X2448198Y-28308984D01*
X2640514Y-28487428D01*
X2640520Y-28487432D01*
X2640521Y-28487433D01*
X2857296Y-28635228D01*
X3093677Y-28749063D01*
X3344385Y-28826396D01*
X3603818Y-28865500D01*
X3866182Y-28865500D01*
X4125615Y-28826396D01*
X4376323Y-28749063D01*
X4612704Y-28635228D01*
X4829479Y-28487433D01*
X4829482Y-28487429D01*
X4829485Y-28487428D01*
X4914792Y-28408273D01*
X5021805Y-28308981D01*
X5185386Y-28103857D01*
X5316568Y-27876643D01*
X5412420Y-27632416D01*
X5470802Y-27376630D01*
X5490408Y-27115000D01*
X14679591Y-27115000D01*
X14699197Y-27376627D01*
X14757580Y-27632418D01*
X14851614Y-27872011D01*
X14853432Y-27876643D01*
X14881244Y-27924815D01*
X14949851Y-28043647D01*
X14984614Y-28103857D01*
X15148195Y-28308981D01*
X15148197Y-28308983D01*
X15148198Y-28308984D01*
X15340514Y-28487428D01*
X15340520Y-28487432D01*
X15340521Y-28487433D01*
X15557296Y-28635228D01*
X15793677Y-28749063D01*
X16044385Y-28826396D01*
X16303818Y-28865500D01*
X16566182Y-28865500D01*
X16825615Y-28826396D01*
X17076323Y-28749063D01*
X17312704Y-28635228D01*
X17529479Y-28487433D01*
X17529482Y-28487429D01*
X17529485Y-28487428D01*
X17614792Y-28408273D01*
X17721805Y-28308981D01*
X17885386Y-28103857D01*
X17910111Y-28061031D01*
X17922237Y-28043652D01*
X17928301Y-28036376D01*
X18008683Y-27941666D01*
X18114397Y-27817108D01*
X18128085Y-27803330D01*
X18139544Y-27793476D01*
X18309629Y-27647209D01*
X18338385Y-27628702D01*
X18557362Y-27527341D01*
X18593504Y-27516901D01*
X18824344Y-27486979D01*
X18967764Y-27468390D01*
X18967811Y-27468755D01*
X18989871Y-27465500D01*
X23435788Y-27465500D01*
X23461234Y-27468139D01*
X23462432Y-27468390D01*
X23470315Y-27470043D01*
X23496364Y-27466795D01*
X23499123Y-27466452D01*
X23513795Y-27465541D01*
X23533013Y-27462334D01*
X23538069Y-27461596D01*
X23586393Y-27455573D01*
X23586394Y-27455572D01*
X23593808Y-27454648D01*
X23600378Y-27451092D01*
X23600381Y-27451092D01*
X23643201Y-27427918D01*
X23647747Y-27425577D01*
X23691484Y-27404198D01*
X23691486Y-27404195D01*
X23698195Y-27400916D01*
X23703254Y-27395419D01*
X23703258Y-27395418D01*
X23736254Y-27359572D01*
X23739756Y-27355924D01*
X24512820Y-26582861D01*
X24574142Y-26549377D01*
X24643834Y-26554361D01*
X24699767Y-26596233D01*
X24724184Y-26661697D01*
X24724500Y-26670543D01*
X24724500Y-26946674D01*
X24730749Y-27004799D01*
X24779788Y-27136278D01*
X24863884Y-27248616D01*
X24976222Y-27332712D01*
X25107701Y-27381751D01*
X25165826Y-27388000D01*
X25169136Y-27388000D01*
X25730864Y-27388000D01*
X25734174Y-27388000D01*
X25792299Y-27381751D01*
X25923778Y-27332712D01*
X25930953Y-27327340D01*
X25943169Y-27319276D01*
X26013327Y-27278710D01*
X26024893Y-27272810D01*
X26110894Y-27234498D01*
X26124310Y-27229431D01*
X26204972Y-27204203D01*
X26219984Y-27200519D01*
X26296500Y-27186742D01*
X26312591Y-27184922D01*
X26400933Y-27180741D01*
X26406572Y-27179409D01*
X26409084Y-27178817D01*
X26437573Y-27175500D01*
X37058263Y-27175500D01*
X37092326Y-27170536D01*
X37126393Y-27165573D01*
X37231483Y-27114198D01*
X37314198Y-27031483D01*
X37365573Y-26926393D01*
X37375500Y-26858260D01*
X37375500Y-26591740D01*
X37375500Y-26591736D01*
X37365573Y-26523609D01*
X37365573Y-26523607D01*
X37331768Y-26454458D01*
X37320010Y-26385587D01*
X37331769Y-26345540D01*
X37365573Y-26276393D01*
X37370820Y-26240383D01*
X37375500Y-26208263D01*
X37375500Y-25941736D01*
X37365573Y-25873609D01*
X37365573Y-25873607D01*
X37331769Y-25804459D01*
X37320011Y-25735586D01*
X37331770Y-25695538D01*
X37332602Y-25693836D01*
X37365573Y-25626393D01*
X37371417Y-25586283D01*
X37375500Y-25558263D01*
X37375500Y-25291736D01*
X37365573Y-25223609D01*
X37365573Y-25223607D01*
X37331768Y-25154458D01*
X37320010Y-25085587D01*
X37331769Y-25045540D01*
X37339000Y-25030749D01*
X37365573Y-24976393D01*
X37375500Y-24908260D01*
X37375500Y-24641740D01*
X37375500Y-24641736D01*
X37367812Y-24588977D01*
X37365573Y-24573607D01*
X37331768Y-24504458D01*
X37320010Y-24435587D01*
X37331769Y-24395540D01*
X37336376Y-24386116D01*
X37365573Y-24326393D01*
X37375500Y-24258260D01*
X37375500Y-23991740D01*
X37375500Y-23991736D01*
X37367660Y-23937933D01*
X37365573Y-23923607D01*
X37331768Y-23854458D01*
X37320010Y-23785587D01*
X37331769Y-23745540D01*
X37365573Y-23676393D01*
X37375500Y-23608260D01*
X37375500Y-23341740D01*
X37375500Y-23341736D01*
X37367196Y-23284744D01*
X37365573Y-23273607D01*
X37331769Y-23204459D01*
X37320011Y-23135586D01*
X37331770Y-23095538D01*
X37365573Y-23026393D01*
X37375500Y-22958260D01*
X37375500Y-22691740D01*
X37375500Y-22691736D01*
X37365573Y-22623609D01*
X37365573Y-22623607D01*
X37331768Y-22554458D01*
X37320010Y-22485587D01*
X37331769Y-22445540D01*
X37365573Y-22376393D01*
X37375500Y-22308260D01*
X37375500Y-22041740D01*
X37375500Y-22041736D01*
X37365573Y-21973609D01*
X37365573Y-21973607D01*
X37331768Y-21904458D01*
X37320010Y-21835587D01*
X37331769Y-21795540D01*
X37365573Y-21726393D01*
X37371022Y-21688997D01*
X37375500Y-21658263D01*
X37375500Y-21391736D01*
X37365573Y-21323609D01*
X37365573Y-21323607D01*
X37331768Y-21254458D01*
X37320010Y-21185587D01*
X37331769Y-21145540D01*
X37365573Y-21076393D01*
X37373057Y-21025027D01*
X37375500Y-21008263D01*
X37375500Y-20741736D01*
X37366504Y-20680000D01*
X37365573Y-20673607D01*
X37314198Y-20568517D01*
X37314197Y-20568516D01*
X37314197Y-20568515D01*
X37231484Y-20485802D01*
X37169208Y-20455358D01*
X37126393Y-20434427D01*
X37126391Y-20434426D01*
X37126390Y-20434426D01*
X37058263Y-20424500D01*
X37058260Y-20424500D01*
X35716740Y-20424500D01*
X35716737Y-20424500D01*
X35648608Y-20434426D01*
X35614700Y-20451002D01*
X35600533Y-20456872D01*
X35578876Y-20464312D01*
X35545576Y-20483701D01*
X35535706Y-20488868D01*
X35515686Y-20498229D01*
X35504436Y-20502832D01*
X35488505Y-20508455D01*
X35475992Y-20512144D01*
X35463594Y-20515100D01*
X35450064Y-20517542D01*
X35418670Y-20521427D01*
X35418647Y-20521245D01*
X35396256Y-20524500D01*
X33894801Y-20524500D01*
X33869126Y-20520629D01*
X33755421Y-20508890D01*
X33720631Y-20500077D01*
X33716177Y-20498229D01*
X33700701Y-20491807D01*
X33674811Y-20477207D01*
X33620648Y-20437416D01*
X33603262Y-20424500D01*
X33514329Y-20358431D01*
X33514302Y-20358412D01*
X33512326Y-20357033D01*
X33497689Y-20347059D01*
X33495617Y-20345730D01*
X33496134Y-20346084D01*
X33494020Y-20344844D01*
X33478611Y-20336039D01*
X33476455Y-20334887D01*
X33332581Y-20259834D01*
X33331386Y-20259235D01*
X33322605Y-20254902D01*
X33321357Y-20254310D01*
X33321694Y-20254476D01*
X33320494Y-20253937D01*
X33299417Y-20244629D01*
X33299545Y-20244338D01*
X33287880Y-20240197D01*
X33282367Y-20237304D01*
X33128985Y-20199500D01*
X32971015Y-20199500D01*
X32817635Y-20237303D01*
X32677761Y-20310716D01*
X32559515Y-20415471D01*
X32469780Y-20545476D01*
X32413763Y-20693181D01*
X32394721Y-20850000D01*
X32401317Y-20904318D01*
X32389856Y-20973241D01*
X32342952Y-21025027D01*
X32275497Y-21043234D01*
X32222460Y-21030019D01*
X32079194Y-20957890D01*
X32071159Y-20954021D01*
X32071141Y-20954013D01*
X32071037Y-20953963D01*
X32070278Y-20953614D01*
X32061867Y-20949929D01*
X32061816Y-20949918D01*
X32049566Y-20944540D01*
X32049677Y-20944287D01*
X32037300Y-20939894D01*
X32032365Y-20937304D01*
X32032362Y-20937303D01*
X31878985Y-20899500D01*
X31721015Y-20899500D01*
X31567635Y-20937303D01*
X31427761Y-21010716D01*
X31309515Y-21115471D01*
X31219780Y-21245476D01*
X31163763Y-21393181D01*
X31144721Y-21550000D01*
X31156734Y-21648930D01*
X31163763Y-21706818D01*
X31173135Y-21731530D01*
X31178502Y-21801191D01*
X31145355Y-21862698D01*
X31084217Y-21896519D01*
X31057193Y-21899500D01*
X30052105Y-21899500D01*
X30024593Y-21896409D01*
X29942732Y-21877782D01*
X29928193Y-21873525D01*
X29902913Y-21864412D01*
X29862934Y-21850000D01*
X29846024Y-21843904D01*
X29833205Y-21838451D01*
X29745487Y-21795167D01*
X29734533Y-21789054D01*
X29659418Y-21742003D01*
X29623889Y-21708355D01*
X29622804Y-21706816D01*
X29613353Y-21693407D01*
X29607530Y-21684331D01*
X29567237Y-21615082D01*
X29563300Y-21607763D01*
X29556892Y-21594828D01*
X29518384Y-21517092D01*
X29515636Y-21511156D01*
X29467793Y-21400224D01*
X29465832Y-21395399D01*
X29446725Y-21345365D01*
X29441199Y-21275717D01*
X29445657Y-21259802D01*
X29447546Y-21254460D01*
X29455852Y-21230961D01*
X29459706Y-21221356D01*
X29482298Y-21171239D01*
X29492977Y-21152223D01*
X29525528Y-21104627D01*
X29536487Y-21090825D01*
X29622837Y-20996684D01*
X29627536Y-20989131D01*
X29645127Y-20966975D01*
X31587784Y-19024319D01*
X31649107Y-18990834D01*
X31675465Y-18988000D01*
X31737875Y-18988000D01*
X31761221Y-18990217D01*
X31761390Y-18990249D01*
X31761394Y-18990251D01*
X31841607Y-19005627D01*
X31857692Y-19009847D01*
X31888336Y-19020126D01*
X31926090Y-19032791D01*
X31940225Y-19038523D01*
X32014997Y-19074355D01*
X32026968Y-19080926D01*
X32108344Y-19131623D01*
X32118212Y-19138457D01*
X32150116Y-19162920D01*
X32151599Y-19164419D01*
X32171558Y-19179361D01*
X32214999Y-19212670D01*
X32220959Y-19216343D01*
X32274684Y-19256561D01*
X32276222Y-19257712D01*
X32407701Y-19306751D01*
X32465826Y-19313000D01*
X32469136Y-19313000D01*
X33030864Y-19313000D01*
X33034174Y-19313000D01*
X33092299Y-19306751D01*
X33223778Y-19257712D01*
X33336116Y-19173616D01*
X33420212Y-19061278D01*
X33469251Y-18929799D01*
X33475500Y-18871674D01*
X33475500Y-18203326D01*
X33475146Y-18200039D01*
X33474968Y-18196704D01*
X33475227Y-18199929D01*
X33487579Y-18131490D01*
X33535192Y-18080355D01*
X33598460Y-18063000D01*
X33660788Y-18063000D01*
X33727827Y-18082685D01*
X33773582Y-18135489D01*
X33783526Y-18204647D01*
X33781615Y-18212131D01*
X33774854Y-18275021D01*
X33774852Y-18275045D01*
X33774500Y-18278326D01*
X33774500Y-18871674D01*
X33780749Y-18929799D01*
X33829788Y-19061278D01*
X33913884Y-19173616D01*
X34026222Y-19257712D01*
X34157701Y-19306751D01*
X34215826Y-19313000D01*
X34331133Y-19313000D01*
X34354164Y-19315157D01*
X34382292Y-19320475D01*
X35724689Y-19379631D01*
X35724689Y-19379632D01*
X35730444Y-19379822D01*
X35735254Y-19379926D01*
X35735782Y-19379938D01*
X35735795Y-19379938D01*
X35735927Y-19379941D01*
X35740326Y-19379988D01*
X35741397Y-19380000D01*
X35741429Y-19380000D01*
X35741522Y-19380001D01*
X36872689Y-19380000D01*
X36876000Y-19380000D01*
X36911253Y-19376210D01*
X36924508Y-19375500D01*
X37058263Y-19375500D01*
X37092326Y-19370536D01*
X37126393Y-19365573D01*
X37231483Y-19314198D01*
X37314198Y-19231483D01*
X37365573Y-19126393D01*
X37373155Y-19074355D01*
X37375500Y-19058263D01*
X37375500Y-18791736D01*
X37365573Y-18723609D01*
X37365573Y-18723607D01*
X37331769Y-18654459D01*
X37320011Y-18585586D01*
X37331770Y-18545538D01*
X37365573Y-18476393D01*
X37375500Y-18408260D01*
X37375500Y-18141740D01*
X37375500Y-18141736D01*
X37367196Y-18084748D01*
X37365573Y-18073607D01*
X37314198Y-17968517D01*
X37314197Y-17968516D01*
X37314197Y-17968515D01*
X37231484Y-17885802D01*
X37147971Y-17844976D01*
X37126393Y-17834427D01*
X37126391Y-17834426D01*
X37126390Y-17834426D01*
X37058263Y-17824500D01*
X37058260Y-17824500D01*
X36913640Y-17824500D01*
X36896668Y-17823333D01*
X36873912Y-17820188D01*
X36090754Y-17824500D01*
X35716740Y-17824500D01*
X35710601Y-17825394D01*
X35693415Y-17826686D01*
X34580542Y-17832813D01*
X34513395Y-17813498D01*
X34492178Y-17796496D01*
X34395363Y-17699681D01*
X34361878Y-17638358D01*
X34366862Y-17568666D01*
X34408734Y-17512733D01*
X34474198Y-17488316D01*
X34483044Y-17488000D01*
X34780864Y-17488000D01*
X34784174Y-17488000D01*
X34787474Y-17487645D01*
X34787478Y-17487645D01*
X34842294Y-17481752D01*
X34842295Y-17481751D01*
X34842299Y-17481751D01*
X34891720Y-17463317D01*
X34935053Y-17455500D01*
X38253802Y-17455500D01*
X38320841Y-17475185D01*
X38336992Y-17487548D01*
X39124361Y-18199929D01*
X40269225Y-19235759D01*
X40293158Y-19257412D01*
X40309278Y-19270836D01*
X40325432Y-19283201D01*
X40408745Y-19325465D01*
X40475784Y-19345150D01*
X40547769Y-19355500D01*
X41000500Y-19355500D01*
X41067539Y-19375185D01*
X41113294Y-19427989D01*
X41124500Y-19479500D01*
X41124500Y-19708263D01*
X41134426Y-19776392D01*
X41168230Y-19845541D01*
X41179988Y-19914414D01*
X41168230Y-19954459D01*
X41134426Y-20023607D01*
X41124500Y-20091736D01*
X41124500Y-20358263D01*
X41134426Y-20426390D01*
X41134426Y-20426391D01*
X41134427Y-20426393D01*
X41149327Y-20456872D01*
X41185802Y-20531484D01*
X41268515Y-20614197D01*
X41268516Y-20614197D01*
X41268517Y-20614198D01*
X41373607Y-20665573D01*
X41400860Y-20669543D01*
X41441737Y-20675500D01*
X41441740Y-20675500D01*
X41558832Y-20675500D01*
X41576479Y-20676762D01*
X41599000Y-20680000D01*
X42745500Y-20680000D01*
X42812539Y-20699685D01*
X42858294Y-20752489D01*
X42869500Y-20804000D01*
X42869500Y-20946000D01*
X42849815Y-21013039D01*
X42797011Y-21058794D01*
X42745500Y-21070000D01*
X41599000Y-21070000D01*
X41595720Y-21070352D01*
X41595712Y-21070353D01*
X41563746Y-21073790D01*
X41550492Y-21074500D01*
X41441737Y-21074500D01*
X41373609Y-21084426D01*
X41268515Y-21135802D01*
X41185802Y-21218515D01*
X41134426Y-21323609D01*
X41124500Y-21391736D01*
X41124500Y-21658263D01*
X41134426Y-21726390D01*
X41134426Y-21726391D01*
X41134427Y-21726393D01*
X41150120Y-21758493D01*
X41168230Y-21795539D01*
X41179988Y-21864412D01*
X41168230Y-21904458D01*
X41134426Y-21973607D01*
X41124500Y-22041736D01*
X41124500Y-22308263D01*
X41134426Y-22376392D01*
X41168230Y-22445541D01*
X41179988Y-22514414D01*
X41168230Y-22554459D01*
X41134426Y-22623607D01*
X41124500Y-22691736D01*
X41124500Y-22958263D01*
X41134426Y-23026392D01*
X41168230Y-23095541D01*
X41179988Y-23164414D01*
X41168230Y-23204459D01*
X41134426Y-23273607D01*
X41124500Y-23341736D01*
X41124500Y-23608263D01*
X41134426Y-23676390D01*
X41134426Y-23676391D01*
X41134427Y-23676393D01*
X41155322Y-23719135D01*
X41185802Y-23781484D01*
X41268515Y-23864197D01*
X41268516Y-23864197D01*
X41268517Y-23864198D01*
X41373607Y-23915573D01*
X41400860Y-23919543D01*
X41441737Y-23925500D01*
X41441740Y-23925500D01*
X41558832Y-23925500D01*
X41576479Y-23926762D01*
X41599000Y-23930000D01*
X42745500Y-23930000D01*
X42812539Y-23949685D01*
X42858294Y-24002489D01*
X42869500Y-24054000D01*
X42869500Y-24196000D01*
X42849815Y-24263039D01*
X42797011Y-24308794D01*
X42745500Y-24320000D01*
X41599000Y-24320000D01*
X41595720Y-24320352D01*
X41595712Y-24320353D01*
X41563746Y-24323790D01*
X41550492Y-24324500D01*
X41441737Y-24324500D01*
X41373609Y-24334426D01*
X41268515Y-24385802D01*
X41185802Y-24468515D01*
X41134426Y-24573609D01*
X41124500Y-24641736D01*
X41124500Y-24908263D01*
X41134426Y-24976392D01*
X41168230Y-25045541D01*
X41179988Y-25114414D01*
X41168230Y-25154459D01*
X41134426Y-25223607D01*
X41124500Y-25291736D01*
X41124500Y-25520500D01*
X41104815Y-25587539D01*
X41052011Y-25633294D01*
X41000500Y-25644500D01*
X40124000Y-25644500D01*
X40120720Y-25644852D01*
X40120712Y-25644853D01*
X40072987Y-25649984D01*
X40072982Y-25649984D01*
X40069687Y-25650339D01*
X40066446Y-25651043D01*
X40066440Y-25651045D01*
X40019781Y-25661195D01*
X40019751Y-25661202D01*
X40018176Y-25661545D01*
X40016613Y-25661973D01*
X40016600Y-25661977D01*
X39999496Y-25666669D01*
X39991802Y-25668781D01*
X39991801Y-25668781D01*
X39991799Y-25668782D01*
X39905174Y-25718109D01*
X39854459Y-25762054D01*
X39854445Y-25762067D01*
X39852368Y-25763867D01*
X39827260Y-25789887D01*
X39820742Y-25796642D01*
X39774535Y-25884975D01*
X39754849Y-25952015D01*
X39744500Y-26024000D01*
X39744500Y-34576000D01*
X39744852Y-34579280D01*
X39744853Y-34579287D01*
X39748991Y-34617773D01*
X39750339Y-34630313D01*
X39751044Y-34633556D01*
X39751045Y-34633559D01*
X39761195Y-34680218D01*
X39761200Y-34680239D01*
X39761545Y-34681824D01*
X39761975Y-34683394D01*
X39761977Y-34683399D01*
X39768782Y-34708200D01*
X39818109Y-34794825D01*
X39852182Y-34834147D01*
X39863867Y-34847632D01*
X39896641Y-34879257D01*
X39984976Y-34925465D01*
X40052015Y-34945150D01*
X40124000Y-34955500D01*
X44272690Y-34955500D01*
X44276000Y-34955500D01*
X44330313Y-34949661D01*
X44381824Y-34938455D01*
X44408198Y-34931219D01*
X44472907Y-34894370D01*
X44494825Y-34881890D01*
X44494825Y-34881889D01*
X44494828Y-34881888D01*
X44547632Y-34836133D01*
X44579257Y-34803359D01*
X44625465Y-34715024D01*
X44645150Y-34647985D01*
X44655500Y-34576000D01*
X44655500Y-34284174D01*
X73012000Y-34284174D01*
X73018249Y-34342299D01*
X73067288Y-34473778D01*
X73151384Y-34586116D01*
X73263722Y-34670212D01*
X73395201Y-34719251D01*
X73453326Y-34725500D01*
X73456636Y-34725500D01*
X74143364Y-34725500D01*
X74146674Y-34725500D01*
X74204799Y-34719251D01*
X74294250Y-34685886D01*
X74305221Y-34681795D01*
X74311117Y-34679763D01*
X74322357Y-34676206D01*
X74322361Y-34676203D01*
X74324568Y-34675505D01*
X74335383Y-34670545D01*
X74336278Y-34670212D01*
X74337714Y-34669136D01*
X74352249Y-34659763D01*
X74423869Y-34620367D01*
X74433523Y-34615593D01*
X74474385Y-34597555D01*
X74489655Y-34590814D01*
X74558934Y-34581748D01*
X74592166Y-34591883D01*
X74761357Y-34670835D01*
X74786102Y-34686151D01*
X74835577Y-34725500D01*
X74966318Y-34829484D01*
X74983512Y-34846105D01*
X75097534Y-34979913D01*
X75117711Y-35012881D01*
X75247264Y-35325648D01*
X75248946Y-35328691D01*
X75411319Y-35622484D01*
X75411323Y-35622490D01*
X75412998Y-35625521D01*
X75611265Y-35904953D01*
X75613579Y-35907543D01*
X75613582Y-35907546D01*
X75696204Y-36000000D01*
X75839572Y-36160428D01*
X76095047Y-36388735D01*
X76374479Y-36587002D01*
X76674352Y-36752736D01*
X76990896Y-36883853D01*
X77320130Y-36978704D01*
X77657914Y-37036096D01*
X78000000Y-37055307D01*
X78342086Y-37036096D01*
X78679870Y-36978704D01*
X79009104Y-36883853D01*
X79325648Y-36752736D01*
X79625521Y-36587002D01*
X79904953Y-36388735D01*
X80160428Y-36160428D01*
X80388735Y-35904953D01*
X80587002Y-35625521D01*
X80752736Y-35325648D01*
X80883853Y-35009104D01*
X80978704Y-34679870D01*
X81036096Y-34342086D01*
X81055307Y-34000000D01*
X81036096Y-33657914D01*
X80978704Y-33320130D01*
X80883853Y-32990896D01*
X80752736Y-32674352D01*
X80587002Y-32374479D01*
X80388735Y-32095047D01*
X80160428Y-31839572D01*
X79904953Y-31611265D01*
X79625521Y-31412998D01*
X79622490Y-31411323D01*
X79622484Y-31411319D01*
X79328691Y-31248946D01*
X79325648Y-31247264D01*
X79322437Y-31245934D01*
X79322433Y-31245932D01*
X79012321Y-31117479D01*
X79012312Y-31117476D01*
X79009104Y-31116147D01*
X79005769Y-31115186D01*
X79005760Y-31115183D01*
X78683214Y-31022259D01*
X78683207Y-31022257D01*
X78679870Y-31021296D01*
X78676445Y-31020714D01*
X78676436Y-31020712D01*
X78345510Y-30964485D01*
X78345496Y-30964483D01*
X78342086Y-30963904D01*
X78338622Y-30963709D01*
X78338618Y-30963709D01*
X78003472Y-30944888D01*
X78000000Y-30944693D01*
X77996528Y-30944888D01*
X77661381Y-30963709D01*
X77661375Y-30963709D01*
X77657914Y-30963904D01*
X77654505Y-30964483D01*
X77654489Y-30964485D01*
X77323563Y-31020712D01*
X77323550Y-31020714D01*
X77320130Y-31021296D01*
X77316796Y-31022256D01*
X77316785Y-31022259D01*
X76994239Y-31115183D01*
X76994224Y-31115188D01*
X76990896Y-31116147D01*
X76987692Y-31117473D01*
X76987678Y-31117479D01*
X76677566Y-31245932D01*
X76677555Y-31245937D01*
X76674352Y-31247264D01*
X76671313Y-31248943D01*
X76671308Y-31248946D01*
X76377515Y-31411319D01*
X76377500Y-31411327D01*
X76374479Y-31412998D01*
X76371653Y-31415002D01*
X76371650Y-31415005D01*
X76097884Y-31609251D01*
X76097872Y-31609260D01*
X76095047Y-31611265D01*
X76092464Y-31613572D01*
X76092453Y-31613582D01*
X75842157Y-31837261D01*
X75842148Y-31837269D01*
X75839572Y-31839572D01*
X75837269Y-31842148D01*
X75837261Y-31842157D01*
X75613582Y-32092453D01*
X75613572Y-32092464D01*
X75611265Y-32095047D01*
X75609260Y-32097872D01*
X75609251Y-32097884D01*
X75429514Y-32351202D01*
X75412998Y-32374479D01*
X75411327Y-32377500D01*
X75411319Y-32377515D01*
X75248946Y-32671308D01*
X75247264Y-32674352D01*
X75245937Y-32677555D01*
X75245932Y-32677566D01*
X75117715Y-32987110D01*
X75097535Y-33020083D01*
X74983509Y-33153894D01*
X74966314Y-33170516D01*
X74786106Y-33313843D01*
X74761354Y-33329163D01*
X74592164Y-33408112D01*
X74523090Y-33418622D01*
X74489653Y-33409182D01*
X74433531Y-33384407D01*
X74423851Y-33379620D01*
X74352247Y-33340234D01*
X74337712Y-33330861D01*
X74336278Y-33329788D01*
X74336275Y-33329787D01*
X74336274Y-33329786D01*
X74335365Y-33329447D01*
X74326034Y-33325168D01*
X74250440Y-33296879D01*
X74239257Y-33293601D01*
X74204801Y-33280749D01*
X74149960Y-33274853D01*
X74149954Y-33274852D01*
X74146674Y-33274500D01*
X73453326Y-33274500D01*
X73450046Y-33274852D01*
X73450039Y-33274853D01*
X73395200Y-33280749D01*
X73280412Y-33323563D01*
X73263722Y-33329788D01*
X73151384Y-33413884D01*
X73067288Y-33526222D01*
X73018249Y-33657701D01*
X73012000Y-33715826D01*
X73012000Y-34284174D01*
X44655500Y-34284174D01*
X44655500Y-33062000D01*
X44651461Y-33016750D01*
X44643682Y-32973521D01*
X44643237Y-32971380D01*
X44639857Y-32955839D01*
X44596898Y-32865841D01*
X44596897Y-32865839D01*
X44555076Y-32809868D01*
X44503700Y-32758400D01*
X43501895Y-32007046D01*
X43476224Y-31972689D01*
X50644499Y-31972689D01*
X50644500Y-31972707D01*
X50644500Y-31976000D01*
X50650339Y-32030313D01*
X50651044Y-32033556D01*
X50651045Y-32033559D01*
X50661195Y-32080218D01*
X50661200Y-32080239D01*
X50661545Y-32081824D01*
X50661975Y-32083394D01*
X50661977Y-32083399D01*
X50668782Y-32108200D01*
X50718109Y-32194825D01*
X50762054Y-32245540D01*
X50763867Y-32247632D01*
X50796641Y-32279257D01*
X50884976Y-32325465D01*
X50952015Y-32345150D01*
X51024000Y-32355500D01*
X73946992Y-32355500D01*
X73948638Y-32355500D01*
X73975952Y-32354036D01*
X74002310Y-32351202D01*
X74002312Y-32351201D01*
X74002314Y-32351201D01*
X74044780Y-32337903D01*
X74097444Y-32321413D01*
X74158767Y-32287928D01*
X74216985Y-32244347D01*
X76244347Y-30216984D01*
X76262626Y-30196634D01*
X76279260Y-30175992D01*
X76325465Y-30087661D01*
X76345150Y-30020622D01*
X76355500Y-29948637D01*
X76355500Y-8185099D01*
X76355381Y-8177184D01*
X76355158Y-8169884D01*
X76355156Y-8169874D01*
X76355156Y-8169869D01*
X76340120Y-8090917D01*
X76316416Y-8025191D01*
X76297208Y-7983896D01*
X76231400Y-7909011D01*
X76175927Y-7866535D01*
X76175926Y-7866534D01*
X76175923Y-7866532D01*
X76112485Y-7830991D01*
X67920634Y-4673715D01*
X66909933Y-4284174D01*
X73012000Y-4284174D01*
X73012352Y-4287454D01*
X73012353Y-4287460D01*
X73016911Y-4329852D01*
X73018249Y-4342299D01*
X73067288Y-4473778D01*
X73151384Y-4586116D01*
X73263722Y-4670212D01*
X73395201Y-4719251D01*
X73453326Y-4725500D01*
X73456636Y-4725500D01*
X74143364Y-4725500D01*
X74146674Y-4725500D01*
X74204799Y-4719251D01*
X74294250Y-4685886D01*
X74305221Y-4681795D01*
X74311117Y-4679763D01*
X74322357Y-4676206D01*
X74322361Y-4676203D01*
X74324568Y-4675505D01*
X74335383Y-4670545D01*
X74336278Y-4670212D01*
X74337714Y-4669136D01*
X74352249Y-4659763D01*
X74423869Y-4620367D01*
X74433523Y-4615593D01*
X74466998Y-4600815D01*
X74489655Y-4590814D01*
X74558934Y-4581748D01*
X74592166Y-4591883D01*
X74761357Y-4670835D01*
X74786102Y-4686151D01*
X74842164Y-4730739D01*
X74966314Y-4829481D01*
X74983508Y-4846102D01*
X75030613Y-4901381D01*
X75097532Y-4979911D01*
X75117712Y-5012884D01*
X75172520Y-5145201D01*
X75247264Y-5325648D01*
X75248946Y-5328691D01*
X75411319Y-5622484D01*
X75411323Y-5622490D01*
X75412998Y-5625521D01*
X75611265Y-5904953D01*
X75613579Y-5907543D01*
X75613582Y-5907546D01*
X75717308Y-6023615D01*
X75839572Y-6160428D01*
X76095047Y-6388735D01*
X76374479Y-6587002D01*
X76674352Y-6752736D01*
X76990896Y-6883853D01*
X77320130Y-6978704D01*
X77657914Y-7036096D01*
X78000000Y-7055307D01*
X78342086Y-7036096D01*
X78679870Y-6978704D01*
X79009104Y-6883853D01*
X79325648Y-6752736D01*
X79625521Y-6587002D01*
X79904953Y-6388735D01*
X80160428Y-6160428D01*
X80388735Y-5904953D01*
X80587002Y-5625521D01*
X80752736Y-5325648D01*
X80883853Y-5009104D01*
X80978704Y-4679870D01*
X81036096Y-4342086D01*
X81055307Y-4000000D01*
X81036096Y-3657914D01*
X80978704Y-3320130D01*
X80883853Y-2990896D01*
X80752736Y-2674352D01*
X80587002Y-2374479D01*
X80388735Y-2095047D01*
X80160428Y-1839572D01*
X79904953Y-1611265D01*
X79901597Y-1608884D01*
X79782176Y-1524150D01*
X79625521Y-1412998D01*
X79622490Y-1411323D01*
X79622484Y-1411319D01*
X79328691Y-1248946D01*
X79325648Y-1247264D01*
X79322437Y-1245934D01*
X79322433Y-1245932D01*
X79012321Y-1117479D01*
X79012312Y-1117476D01*
X79009104Y-1116147D01*
X79005769Y-1115186D01*
X79005760Y-1115183D01*
X78683214Y-1022259D01*
X78683207Y-1022257D01*
X78679870Y-1021296D01*
X78676445Y-1020714D01*
X78676436Y-1020712D01*
X78345510Y-964485D01*
X78345496Y-964483D01*
X78342086Y-963904D01*
X78338622Y-963709D01*
X78338618Y-963709D01*
X78003472Y-944888D01*
X78000000Y-944693D01*
X77996528Y-944888D01*
X77661381Y-963709D01*
X77661375Y-963709D01*
X77657914Y-963904D01*
X77654505Y-964483D01*
X77654489Y-964485D01*
X77323563Y-1020712D01*
X77323550Y-1020714D01*
X77320130Y-1021296D01*
X77316796Y-1022256D01*
X77316785Y-1022259D01*
X76994239Y-1115183D01*
X76994224Y-1115188D01*
X76990896Y-1116147D01*
X76987692Y-1117473D01*
X76987678Y-1117479D01*
X76677566Y-1245932D01*
X76677555Y-1245937D01*
X76674352Y-1247264D01*
X76671313Y-1248943D01*
X76671308Y-1248946D01*
X76377515Y-1411319D01*
X76377500Y-1411327D01*
X76374479Y-1412998D01*
X76371653Y-1415002D01*
X76371650Y-1415005D01*
X76097884Y-1609251D01*
X76097872Y-1609260D01*
X76095047Y-1611265D01*
X76092464Y-1613572D01*
X76092453Y-1613582D01*
X75842157Y-1837261D01*
X75842148Y-1837269D01*
X75839572Y-1839572D01*
X75837269Y-1842148D01*
X75837261Y-1842157D01*
X75613582Y-2092453D01*
X75613572Y-2092464D01*
X75611265Y-2095047D01*
X75609260Y-2097872D01*
X75609251Y-2097884D01*
X75415005Y-2371650D01*
X75412998Y-2374479D01*
X75411327Y-2377500D01*
X75411319Y-2377515D01*
X75248946Y-2671308D01*
X75247264Y-2674352D01*
X75245937Y-2677555D01*
X75245932Y-2677566D01*
X75117715Y-2987110D01*
X75097535Y-3020083D01*
X74983509Y-3153894D01*
X74966314Y-3170516D01*
X74786106Y-3313843D01*
X74761354Y-3329163D01*
X74592164Y-3408112D01*
X74523090Y-3418622D01*
X74489653Y-3409182D01*
X74433531Y-3384407D01*
X74423847Y-3379618D01*
X74352247Y-3340234D01*
X74337712Y-3330861D01*
X74336278Y-3329788D01*
X74336275Y-3329787D01*
X74336274Y-3329786D01*
X74335365Y-3329447D01*
X74326034Y-3325168D01*
X74250440Y-3296879D01*
X74239257Y-3293601D01*
X74204801Y-3280749D01*
X74149960Y-3274853D01*
X74149954Y-3274852D01*
X74146674Y-3274500D01*
X73453326Y-3274500D01*
X73450046Y-3274852D01*
X73450039Y-3274853D01*
X73395200Y-3280749D01*
X73280412Y-3323563D01*
X73263722Y-3329788D01*
X73151384Y-3413884D01*
X73067288Y-3526222D01*
X73018249Y-3657701D01*
X73012000Y-3715826D01*
X73012000Y-4284174D01*
X66909933Y-4284174D01*
X66613410Y-4169889D01*
X66610689Y-4169118D01*
X66610675Y-4169114D01*
X66570991Y-4157880D01*
X66568250Y-4157104D01*
X66565453Y-4156583D01*
X66565450Y-4156583D01*
X66526464Y-4149331D01*
X66526460Y-4149330D01*
X66523657Y-4148809D01*
X66520819Y-4148547D01*
X66520810Y-4148546D01*
X66479772Y-4144762D01*
X66476931Y-4144500D01*
X64324000Y-4144500D01*
X64320720Y-4144852D01*
X64320712Y-4144853D01*
X64272987Y-4149984D01*
X64272982Y-4149984D01*
X64269687Y-4150339D01*
X64266446Y-4151043D01*
X64266440Y-4151045D01*
X64219781Y-4161195D01*
X64219751Y-4161202D01*
X64218176Y-4161545D01*
X64216613Y-4161973D01*
X64216600Y-4161977D01*
X64199496Y-4166669D01*
X64191802Y-4168781D01*
X64191801Y-4168781D01*
X64191799Y-4168782D01*
X64105174Y-4218109D01*
X64054459Y-4262054D01*
X64054445Y-4262067D01*
X64052368Y-4263867D01*
X64035967Y-4280864D01*
X64020742Y-4296642D01*
X63974534Y-4384976D01*
X63971083Y-4396730D01*
X63933305Y-4455507D01*
X63869748Y-4484529D01*
X63800590Y-4474582D01*
X63747788Y-4428825D01*
X63732562Y-4394727D01*
X63731756Y-4391802D01*
X63727869Y-4384976D01*
X63682426Y-4305173D01*
X63638482Y-4254459D01*
X63638480Y-4254457D01*
X63636670Y-4252368D01*
X63603896Y-4220743D01*
X63515561Y-4174535D01*
X63499739Y-4169889D01*
X63448521Y-4154849D01*
X63376537Y-4144500D01*
X59924000Y-4144500D01*
X59920720Y-4144852D01*
X59920712Y-4144853D01*
X59872987Y-4149984D01*
X59872982Y-4149984D01*
X59869687Y-4150339D01*
X59866446Y-4151043D01*
X59866440Y-4151045D01*
X59819781Y-4161195D01*
X59819751Y-4161202D01*
X59818176Y-4161545D01*
X59816613Y-4161973D01*
X59816600Y-4161977D01*
X59799496Y-4166669D01*
X59791802Y-4168781D01*
X59791801Y-4168781D01*
X59791799Y-4168782D01*
X59705174Y-4218109D01*
X59654459Y-4262054D01*
X59654445Y-4262067D01*
X59652368Y-4263867D01*
X59635967Y-4280864D01*
X59620744Y-4296640D01*
X59574534Y-4384976D01*
X59554849Y-4452013D01*
X59544500Y-4523999D01*
X59544500Y-10078382D01*
X59524815Y-10145421D01*
X59521403Y-10150456D01*
X57705605Y-12692574D01*
X57650621Y-12735684D01*
X57604702Y-12744500D01*
X52435053Y-12744500D01*
X52391720Y-12736682D01*
X52342299Y-12718249D01*
X52342294Y-12718247D01*
X52287478Y-12712354D01*
X52287455Y-12712352D01*
X52284174Y-12712000D01*
X51715826Y-12712000D01*
X51712545Y-12712352D01*
X51712521Y-12712354D01*
X51657705Y-12718247D01*
X51629537Y-12728753D01*
X51608279Y-12736682D01*
X51564947Y-12744500D01*
X51024000Y-12744500D01*
X51020720Y-12744852D01*
X51020712Y-12744853D01*
X50972987Y-12749984D01*
X50972982Y-12749984D01*
X50969687Y-12750339D01*
X50966446Y-12751043D01*
X50966440Y-12751045D01*
X50919781Y-12761195D01*
X50919751Y-12761202D01*
X50918176Y-12761545D01*
X50916613Y-12761973D01*
X50916600Y-12761977D01*
X50899496Y-12766669D01*
X50891802Y-12768781D01*
X50891801Y-12768781D01*
X50891799Y-12768782D01*
X50805174Y-12818109D01*
X50754459Y-12862054D01*
X50754445Y-12862067D01*
X50752368Y-12863867D01*
X50750453Y-12865852D01*
X50720742Y-12896642D01*
X50674535Y-12984975D01*
X50654849Y-13052015D01*
X50644500Y-13124000D01*
X50644499Y-21372689D01*
X50644500Y-21372707D01*
X50644500Y-21376000D01*
X50644852Y-21379280D01*
X50644853Y-21379287D01*
X50649984Y-21427012D01*
X50650339Y-21430313D01*
X50651044Y-21433556D01*
X50651045Y-21433559D01*
X50661195Y-21480218D01*
X50661200Y-21480239D01*
X50661545Y-21481824D01*
X50661975Y-21483394D01*
X50661977Y-21483399D01*
X50668782Y-21508200D01*
X50718109Y-21594825D01*
X50718112Y-21594828D01*
X50763867Y-21647632D01*
X50796641Y-21679257D01*
X50884976Y-21725465D01*
X50952015Y-21745150D01*
X51024000Y-21755500D01*
X54224163Y-21755500D01*
X54291202Y-21775185D01*
X54318761Y-21799330D01*
X57098810Y-25079788D01*
X59049626Y-27381751D01*
X59167935Y-27521355D01*
X59194485Y-27548345D01*
X59196212Y-27549858D01*
X59196213Y-27549859D01*
X59222045Y-27572491D01*
X59222984Y-27573288D01*
X59230082Y-27579251D01*
X59318426Y-27625463D01*
X59318430Y-27625465D01*
X59385469Y-27645150D01*
X59457454Y-27655500D01*
X60701090Y-27655500D01*
X60754889Y-27667779D01*
X60840029Y-27708780D01*
X60891888Y-27755603D01*
X60910201Y-27823030D01*
X60889153Y-27889654D01*
X60835427Y-27934322D01*
X60786227Y-27944500D01*
X58974545Y-27944500D01*
X58907506Y-27924815D01*
X58880397Y-27901198D01*
X58205825Y-27114197D01*
X54831105Y-23177024D01*
X54804946Y-23150654D01*
X54777838Y-23127038D01*
X54770327Y-23120743D01*
X54681992Y-23074535D01*
X54614952Y-23054849D01*
X54542968Y-23044500D01*
X51024000Y-23044500D01*
X51020720Y-23044852D01*
X51020712Y-23044853D01*
X50972987Y-23049984D01*
X50972982Y-23049984D01*
X50969687Y-23050339D01*
X50966446Y-23051043D01*
X50966440Y-23051045D01*
X50919781Y-23061195D01*
X50919751Y-23061202D01*
X50918176Y-23061545D01*
X50916613Y-23061973D01*
X50916600Y-23061977D01*
X50907376Y-23064508D01*
X50891802Y-23068781D01*
X50891801Y-23068781D01*
X50891799Y-23068782D01*
X50805174Y-23118109D01*
X50754459Y-23162054D01*
X50754445Y-23162067D01*
X50752368Y-23163867D01*
X50738014Y-23178743D01*
X50720742Y-23196642D01*
X50674535Y-23284975D01*
X50654849Y-23352015D01*
X50644500Y-23424000D01*
X50644499Y-31972689D01*
X43476224Y-31972689D01*
X43460075Y-31951076D01*
X43452314Y-31909948D01*
X43451121Y-31839572D01*
X43360606Y-26499152D01*
X43379151Y-26431791D01*
X43431172Y-26385148D01*
X43500153Y-26374034D01*
X43564191Y-26401977D01*
X43572269Y-26409372D01*
X44183630Y-27020733D01*
X44192896Y-27031101D01*
X44215120Y-27058969D01*
X44262364Y-27091180D01*
X44266145Y-27093863D01*
X44316973Y-27131376D01*
X44321568Y-27133695D01*
X44327325Y-27135470D01*
X44327327Y-27135472D01*
X44352351Y-27143190D01*
X44381980Y-27152330D01*
X44386371Y-27153774D01*
X44440301Y-27172646D01*
X44440303Y-27172646D01*
X44445990Y-27174636D01*
X44451071Y-27175500D01*
X44457098Y-27175500D01*
X44487532Y-27175500D01*
X44511633Y-27177864D01*
X44585611Y-27192524D01*
X44602127Y-27197001D01*
X44661472Y-27217580D01*
X44665697Y-27219045D01*
X44680113Y-27225087D01*
X44750571Y-27259989D01*
X44762656Y-27266845D01*
X44776027Y-27275456D01*
X44840100Y-27316719D01*
X44849973Y-27323784D01*
X44854761Y-27327578D01*
X44889689Y-27371421D01*
X44910894Y-27415918D01*
X44913547Y-27421884D01*
X44932919Y-27468755D01*
X44958043Y-27529541D01*
X44959932Y-27534400D01*
X45006377Y-27661685D01*
X45007762Y-27665690D01*
X45043372Y-27774714D01*
X45049500Y-27813214D01*
X45049500Y-29617738D01*
X45048720Y-29631622D01*
X45044729Y-29667034D01*
X45055356Y-29723194D01*
X45056133Y-29727766D01*
X45065550Y-29790248D01*
X45067163Y-29795148D01*
X45096687Y-29851010D01*
X45098777Y-29855150D01*
X45126184Y-29912060D01*
X45129183Y-29916287D01*
X45173846Y-29960950D01*
X45177063Y-29964289D01*
X45220043Y-30010611D01*
X45234930Y-30022034D01*
X45808630Y-30595733D01*
X45817896Y-30606101D01*
X45840120Y-30633969D01*
X45887364Y-30666180D01*
X45891141Y-30668860D01*
X45936344Y-30702222D01*
X45941973Y-30706376D01*
X45946568Y-30708695D01*
X45952325Y-30710470D01*
X45952327Y-30710472D01*
X45977351Y-30718190D01*
X46006980Y-30727330D01*
X46011371Y-30728774D01*
X46065301Y-30747646D01*
X46065303Y-30747646D01*
X46070990Y-30749636D01*
X46076071Y-30750500D01*
X46082098Y-30750500D01*
X46139246Y-30750500D01*
X46143883Y-30750586D01*
X46201010Y-30752725D01*
X46201010Y-30752724D01*
X46207026Y-30752950D01*
X46225638Y-30750500D01*
X48942738Y-30750500D01*
X48956622Y-30751280D01*
X48992033Y-30755270D01*
X48992033Y-30755269D01*
X48992035Y-30755270D01*
X49048228Y-30744636D01*
X49052726Y-30743872D01*
X49109287Y-30735348D01*
X49109288Y-30735347D01*
X49115268Y-30734446D01*
X49120128Y-30732846D01*
X49125467Y-30730023D01*
X49125472Y-30730023D01*
X49176045Y-30703292D01*
X49180136Y-30701227D01*
X49231642Y-30676425D01*
X49231644Y-30676422D01*
X49237078Y-30673806D01*
X49241271Y-30670831D01*
X49245533Y-30666568D01*
X49245538Y-30666566D01*
X49286001Y-30626101D01*
X49289259Y-30622962D01*
X49331194Y-30584055D01*
X49331195Y-30584053D01*
X49335613Y-30579954D01*
X49347033Y-30565069D01*
X49945744Y-29966357D01*
X49956093Y-29957109D01*
X49983970Y-29934879D01*
X50016191Y-29887618D01*
X50018859Y-29883859D01*
X50052793Y-29837882D01*
X50052794Y-29837877D01*
X50056381Y-29833018D01*
X50058692Y-29828441D01*
X50060470Y-29822675D01*
X50060472Y-29822673D01*
X50077330Y-29768014D01*
X50078775Y-29763626D01*
X50091324Y-29727766D01*
X50097646Y-29709699D01*
X50097646Y-29709697D01*
X50099637Y-29704008D01*
X50100500Y-29698930D01*
X50100500Y-29635738D01*
X50100587Y-29631101D01*
X50102949Y-29567971D01*
X50100500Y-29549365D01*
X50100500Y-23457261D01*
X50101280Y-23443377D01*
X50105270Y-23407966D01*
X50103668Y-23399500D01*
X50094635Y-23351761D01*
X50093864Y-23347220D01*
X50093038Y-23341740D01*
X50085348Y-23290713D01*
X50085347Y-23290711D01*
X50084448Y-23284744D01*
X50082842Y-23279861D01*
X50073306Y-23261819D01*
X50053296Y-23223961D01*
X50051241Y-23219892D01*
X50026425Y-23168358D01*
X50026423Y-23168356D01*
X50023807Y-23162923D01*
X50020827Y-23158723D01*
X49976165Y-23114062D01*
X49972946Y-23110721D01*
X49958858Y-23095538D01*
X49934055Y-23068806D01*
X49934053Y-23068805D01*
X49929958Y-23064391D01*
X49915067Y-23052964D01*
X49462283Y-22600180D01*
X49428798Y-22538857D01*
X49433782Y-22469165D01*
X49462279Y-22424823D01*
X49970744Y-21916357D01*
X49981093Y-21907109D01*
X50008970Y-21884879D01*
X50041191Y-21837618D01*
X50043859Y-21833859D01*
X50049494Y-21826224D01*
X50077793Y-21787882D01*
X50077794Y-21787877D01*
X50081381Y-21783018D01*
X50083692Y-21778441D01*
X50085470Y-21772675D01*
X50085472Y-21772673D01*
X50102330Y-21718014D01*
X50103775Y-21713626D01*
X50105620Y-21708355D01*
X50122646Y-21659699D01*
X50122646Y-21659697D01*
X50124637Y-21654008D01*
X50125500Y-21648930D01*
X50125500Y-21585738D01*
X50125587Y-21581101D01*
X50126537Y-21555703D01*
X50127724Y-21523990D01*
X50127723Y-21523989D01*
X50127949Y-21517971D01*
X50125500Y-21499365D01*
X50125500Y-15282261D01*
X50126280Y-15268377D01*
X50130270Y-15232966D01*
X50122002Y-15189271D01*
X50119635Y-15176761D01*
X50118864Y-15172220D01*
X50110348Y-15115713D01*
X50110347Y-15115711D01*
X50109448Y-15109744D01*
X50107842Y-15104861D01*
X50100622Y-15091202D01*
X50078296Y-15048961D01*
X50076241Y-15044892D01*
X50051425Y-14993358D01*
X50051423Y-14993356D01*
X50048807Y-14987923D01*
X50045827Y-14983723D01*
X50001165Y-14939062D01*
X49997946Y-14935721D01*
X49954958Y-14889391D01*
X49940067Y-14877964D01*
X49466368Y-14404265D01*
X49457102Y-14393897D01*
X49434879Y-14366030D01*
X49387608Y-14333800D01*
X49383870Y-14331148D01*
X49333035Y-14293629D01*
X49328424Y-14291302D01*
X49268049Y-14272679D01*
X49263644Y-14271230D01*
X49247408Y-14265549D01*
X49209699Y-14252354D01*
X49209698Y-14252353D01*
X49204023Y-14250368D01*
X49198914Y-14249500D01*
X49192902Y-14249500D01*
X49135738Y-14249500D01*
X49131101Y-14249413D01*
X49067970Y-14247050D01*
X49049365Y-14249500D01*
X46282262Y-14249500D01*
X46268378Y-14248720D01*
X46232963Y-14244729D01*
X46176811Y-14255354D01*
X46172241Y-14256131D01*
X46109758Y-14265549D01*
X46104851Y-14267163D01*
X46048985Y-14296690D01*
X46044847Y-14298779D01*
X45987936Y-14326186D01*
X45983712Y-14329183D01*
X45939059Y-14373836D01*
X45935722Y-14377051D01*
X45889392Y-14420039D01*
X45877967Y-14434928D01*
X45204264Y-15108631D01*
X45193898Y-15117895D01*
X45166031Y-15140118D01*
X45133824Y-15187356D01*
X45131144Y-15191132D01*
X45093633Y-15241959D01*
X45091301Y-15246578D01*
X45072674Y-15306966D01*
X45071225Y-15311369D01*
X45050368Y-15370974D01*
X45049499Y-15376089D01*
X45049499Y-15439265D01*
X45049412Y-15443898D01*
X45047050Y-15507029D01*
X45049500Y-15525636D01*
X45049500Y-17186795D01*
X45043376Y-17225283D01*
X45007906Y-17333916D01*
X45006517Y-17337933D01*
X44959941Y-17465576D01*
X44958051Y-17470436D01*
X44913552Y-17578100D01*
X44910893Y-17584082D01*
X44889686Y-17628581D01*
X44854785Y-17672400D01*
X44850011Y-17676185D01*
X44840112Y-17683271D01*
X44762661Y-17733149D01*
X44750565Y-17740011D01*
X44680113Y-17774910D01*
X44665698Y-17780952D01*
X44602132Y-17802995D01*
X44585609Y-17807474D01*
X44518783Y-17820717D01*
X44480795Y-17822302D01*
X44457964Y-17819729D01*
X44401782Y-17830358D01*
X44397217Y-17831134D01*
X44334763Y-17840548D01*
X44329840Y-17842169D01*
X44273965Y-17871699D01*
X44269854Y-17873774D01*
X44236013Y-17890072D01*
X44212948Y-17901180D01*
X44208709Y-17904188D01*
X44164059Y-17948837D01*
X44160722Y-17952051D01*
X44114392Y-17995039D01*
X44102967Y-18009928D01*
X43667181Y-18445715D01*
X43605858Y-18479200D01*
X43536167Y-18474216D01*
X43480233Y-18432345D01*
X43455816Y-18366880D01*
X43455500Y-18358034D01*
X43455500Y-14066942D01*
X43475185Y-13999903D01*
X43495707Y-13975538D01*
X44532440Y-13025199D01*
X44555207Y-13001457D01*
X44575730Y-12977092D01*
X44579257Y-12972811D01*
X44625465Y-12884476D01*
X44645150Y-12817437D01*
X44655500Y-12745452D01*
X44655500Y-6824000D01*
X44649661Y-6769687D01*
X44638455Y-6718176D01*
X44631219Y-6691802D01*
X44591492Y-6622037D01*
X44581890Y-6605174D01*
X44537945Y-6554459D01*
X44537943Y-6554457D01*
X44536133Y-6552368D01*
X44503359Y-6520743D01*
X44415024Y-6474535D01*
X44399999Y-6470123D01*
X44347984Y-6454849D01*
X44276000Y-6444500D01*
X42268518Y-6444500D01*
X42265137Y-6444871D01*
X42265137Y-6444872D01*
X42216341Y-6450241D01*
X42216329Y-6450242D01*
X42212957Y-6450614D01*
X42209648Y-6451351D01*
X42209637Y-6451353D01*
X42161992Y-6461968D01*
X42161971Y-6461973D01*
X42160316Y-6462342D01*
X42158693Y-6462800D01*
X42158639Y-6462814D01*
X42132762Y-6470123D01*
X42046635Y-6520318D01*
X41994288Y-6566606D01*
X41947220Y-6622037D01*
X39895281Y-9886489D01*
X39842939Y-9932772D01*
X39790298Y-9944500D01*
X30746373Y-9944500D01*
X30744135Y-9944561D01*
X30727925Y-9945167D01*
X30725698Y-9945308D01*
X30710109Y-9946448D01*
X30621968Y-9969066D01*
X30558464Y-9998202D01*
X30497350Y-10037627D01*
X28276642Y-11968678D01*
X28276625Y-11968693D01*
X28274978Y-11970126D01*
X28273442Y-11971665D01*
X28273426Y-11971681D01*
X28250935Y-11994232D01*
X28250922Y-11994244D01*
X28249389Y-11995783D01*
X28247959Y-11997435D01*
X28247949Y-11997447D01*
X28226442Y-12022313D01*
X28220742Y-12029138D01*
X28174535Y-12117472D01*
X28154849Y-12184512D01*
X28144500Y-12256497D01*
X28144500Y-13169049D01*
X28124815Y-13236088D01*
X28123634Y-13237890D01*
X28117296Y-13247376D01*
X28114033Y-13252261D01*
X28099500Y-13325325D01*
X28099500Y-15374674D01*
X28114033Y-15447738D01*
X28114033Y-15447739D01*
X28114034Y-15447740D01*
X28123603Y-15462062D01*
X28144480Y-15528738D01*
X28144500Y-15530950D01*
X28144500Y-17076000D01*
X28150339Y-17130313D01*
X28151044Y-17133556D01*
X28151045Y-17133559D01*
X28161195Y-17180218D01*
X28161200Y-17180239D01*
X28161545Y-17181824D01*
X28161976Y-17183397D01*
X28161982Y-17183419D01*
X28167956Y-17205193D01*
X28166710Y-17275051D01*
X28127893Y-17333146D01*
X28063830Y-17361033D01*
X28048375Y-17362000D01*
X27709044Y-17362000D01*
X27642005Y-17342315D01*
X27621363Y-17325681D01*
X23136819Y-12841136D01*
X23103334Y-12779813D01*
X23100500Y-12753455D01*
X23100500Y-8376785D01*
X23110445Y-8328129D01*
X23152533Y-8229471D01*
X23155192Y-8223660D01*
X23216740Y-8097927D01*
X23220567Y-8090721D01*
X23277633Y-7991333D01*
X23283303Y-7982371D01*
X23283308Y-7982364D01*
X23299627Y-7958857D01*
X23327176Y-7930307D01*
X23336116Y-7923616D01*
X23420212Y-7811278D01*
X23469251Y-7679799D01*
X23475500Y-7621674D01*
X23475500Y-7028326D01*
X23469251Y-6970201D01*
X23420212Y-6838722D01*
X23336116Y-6726384D01*
X23223778Y-6642288D01*
X23092299Y-6593249D01*
X23092298Y-6593249D01*
X23037460Y-6587353D01*
X23037454Y-6587352D01*
X23034174Y-6587000D01*
X22465826Y-6587000D01*
X22462546Y-6587352D01*
X22462539Y-6587353D01*
X22407700Y-6593249D01*
X22276222Y-6642288D01*
X22163884Y-6726384D01*
X22079788Y-6838722D01*
X22035009Y-6958780D01*
X22030749Y-6970201D01*
X22024500Y-7028326D01*
X22024500Y-7621674D01*
X22024852Y-7624954D01*
X22024853Y-7624960D01*
X22030749Y-7679799D01*
X22056240Y-7748143D01*
X22057463Y-7751576D01*
X22059513Y-7757608D01*
X22061518Y-7763625D01*
X22063888Y-7768648D01*
X22079788Y-7811278D01*
X22163883Y-7923615D01*
X22163885Y-7923617D01*
X22172821Y-7930307D01*
X22200365Y-7958852D01*
X22216690Y-7982364D01*
X22222369Y-7991342D01*
X22279428Y-8090719D01*
X22283265Y-8097943D01*
X22344791Y-8223630D01*
X22347473Y-8229491D01*
X22389554Y-8328129D01*
X22399500Y-8376787D01*
X22399500Y-12900788D01*
X22396861Y-12926234D01*
X22394957Y-12935313D01*
X22398548Y-12964121D01*
X22399458Y-12978795D01*
X22402665Y-12998013D01*
X22403403Y-13003078D01*
X22410351Y-13058809D01*
X22437081Y-13108202D01*
X22439421Y-13112747D01*
X22460802Y-13156484D01*
X22460803Y-13156485D01*
X22464084Y-13163196D01*
X22469581Y-13168256D01*
X22469582Y-13168258D01*
X22505399Y-13201230D01*
X22509097Y-13204779D01*
X27229861Y-17925543D01*
X27245989Y-17945403D01*
X27250332Y-17952051D01*
X27251063Y-17953169D01*
X27273973Y-17971000D01*
X27284992Y-17980732D01*
X27293620Y-17986891D01*
X27300859Y-17992059D01*
X27304920Y-17995087D01*
X27343374Y-18025017D01*
X27343376Y-18025017D01*
X27349275Y-18029609D01*
X27403093Y-18045631D01*
X27407937Y-18047182D01*
X27454012Y-18063000D01*
X27454014Y-18063000D01*
X27461078Y-18065425D01*
X27468543Y-18065116D01*
X27468546Y-18065117D01*
X27517168Y-18063105D01*
X27522292Y-18063000D01*
X30975533Y-18063000D01*
X31042572Y-18082685D01*
X31088327Y-18135489D01*
X31098271Y-18204647D01*
X31069246Y-18268203D01*
X31063214Y-18274681D01*
X29004218Y-20333677D01*
X28983128Y-20350598D01*
X28974397Y-20356155D01*
X28914978Y-20412993D01*
X28852927Y-20445108D01*
X28824635Y-20447299D01*
X28817974Y-20447050D01*
X28799364Y-20449500D01*
X28365992Y-20449500D01*
X28361486Y-20449414D01*
X28361188Y-20449407D01*
X28360450Y-20449379D01*
X28182637Y-20444826D01*
X28181644Y-20444812D01*
X28179385Y-20444799D01*
X28167737Y-20447117D01*
X28143543Y-20449500D01*
X25907262Y-20449500D01*
X25893378Y-20448720D01*
X25857964Y-20444729D01*
X25801782Y-20455358D01*
X25797217Y-20456134D01*
X25734763Y-20465548D01*
X25729840Y-20467169D01*
X25673965Y-20496699D01*
X25669854Y-20498774D01*
X25642094Y-20512144D01*
X25612948Y-20526180D01*
X25608709Y-20529188D01*
X25564059Y-20573837D01*
X25560722Y-20577051D01*
X25514392Y-20620039D01*
X25502967Y-20634928D01*
X25154264Y-20983631D01*
X25143898Y-20992895D01*
X25116031Y-21015118D01*
X25083824Y-21062356D01*
X25081144Y-21066132D01*
X25043633Y-21116959D01*
X25041301Y-21121578D01*
X25022674Y-21181966D01*
X25021225Y-21186369D01*
X25000369Y-21245973D01*
X24999500Y-21251089D01*
X24999500Y-21314261D01*
X24999413Y-21318898D01*
X24997050Y-21382029D01*
X24999500Y-21400635D01*
X24999500Y-23786795D01*
X24993376Y-23825283D01*
X24957906Y-23933916D01*
X24956517Y-23937933D01*
X24909941Y-24065576D01*
X24908051Y-24070436D01*
X24863552Y-24178100D01*
X24860894Y-24184080D01*
X24819351Y-24271253D01*
X24815479Y-24278714D01*
X24791512Y-24321309D01*
X24782717Y-24334807D01*
X24779788Y-24338719D01*
X24779351Y-24339892D01*
X24778056Y-24342683D01*
X24775443Y-24349871D01*
X24775443Y-24349872D01*
X24772872Y-24356947D01*
X24768338Y-24369421D01*
X24730748Y-24470202D01*
X24724854Y-24525021D01*
X24724852Y-24525045D01*
X24724500Y-24528326D01*
X24724500Y-25121674D01*
X24730749Y-25179799D01*
X24747088Y-25223607D01*
X24766360Y-25275276D01*
X24771344Y-25344968D01*
X24737859Y-25406291D01*
X24709194Y-25427666D01*
X24691807Y-25437075D01*
X24687254Y-25439418D01*
X24636805Y-25464082D01*
X24598780Y-25505387D01*
X24595233Y-25509083D01*
X23376137Y-26728181D01*
X23314814Y-26761666D01*
X23288456Y-26764500D01*
X18990453Y-26764500D01*
X18969854Y-26761120D01*
X18969758Y-26761868D01*
X18957648Y-26760298D01*
X18874688Y-26749544D01*
X18593505Y-26713095D01*
X18557359Y-26702654D01*
X18399180Y-26629437D01*
X18338390Y-26601299D01*
X18309628Y-26582786D01*
X18128075Y-26426656D01*
X18114388Y-26412881D01*
X18091221Y-26385587D01*
X17929780Y-26195382D01*
X17922178Y-26186260D01*
X17910083Y-26168920D01*
X17904199Y-26158729D01*
X17885386Y-26126143D01*
X17721805Y-25921019D01*
X17682959Y-25884975D01*
X17522670Y-25736248D01*
X17522928Y-25735969D01*
X17513276Y-25727631D01*
X17489787Y-25702125D01*
X17476144Y-25684314D01*
X17376094Y-25525791D01*
X17365790Y-25505571D01*
X17281872Y-25295271D01*
X17275767Y-25275172D01*
X17257549Y-25189731D01*
X17216571Y-24997543D01*
X17214094Y-24979534D01*
X17190683Y-24609814D01*
X17189167Y-24603719D01*
X17185500Y-24573786D01*
X17185500Y-13425886D01*
X17189655Y-13394057D01*
X17189779Y-13393588D01*
X17190683Y-13390186D01*
X17214094Y-13020462D01*
X17216572Y-13002448D01*
X17275769Y-12724819D01*
X17281873Y-12704724D01*
X17365792Y-12494418D01*
X17376089Y-12474213D01*
X17476151Y-12315671D01*
X17489779Y-12297879D01*
X17513268Y-12272373D01*
X17522920Y-12264039D01*
X17522661Y-12263760D01*
X17680321Y-12117472D01*
X17721805Y-12078981D01*
X17885386Y-11873857D01*
X18016568Y-11646643D01*
X18112420Y-11402416D01*
X18170802Y-11146630D01*
X18190408Y-10885000D01*
X18170802Y-10623370D01*
X18112420Y-10367584D01*
X18016568Y-10123357D01*
X17885386Y-9896143D01*
X17721805Y-9691019D01*
X17721801Y-9691015D01*
X17529485Y-9512571D01*
X17512170Y-9500766D01*
X17312704Y-9364772D01*
X17076323Y-9250937D01*
X16825615Y-9173604D01*
X16566182Y-9134500D01*
X16303818Y-9134500D01*
X16044385Y-9173604D01*
X15793677Y-9250937D01*
X15557296Y-9364772D01*
X15487922Y-9412070D01*
X15340514Y-9512571D01*
X15148198Y-9691015D01*
X14984613Y-9896143D01*
X14853431Y-10123358D01*
X14757580Y-10367581D01*
X14699197Y-10623372D01*
X14679591Y-10884999D01*
X14699197Y-11146627D01*
X14757580Y-11402418D01*
X14853431Y-11646641D01*
X14984613Y-11873856D01*
X15148195Y-12078981D01*
X15347337Y-12263758D01*
X15347077Y-12264037D01*
X15356726Y-12272371D01*
X15380207Y-12297868D01*
X15393855Y-12315685D01*
X15424134Y-12363661D01*
X15493897Y-12474197D01*
X15504204Y-12494422D01*
X15588125Y-12704732D01*
X15594230Y-12724830D01*
X15653425Y-13002448D01*
X15655903Y-13020470D01*
X15679316Y-13390184D01*
X15680833Y-13396281D01*
X15684499Y-13426210D01*
X15684499Y-24574108D01*
X15680347Y-24605925D01*
X15679316Y-24609806D01*
X15655903Y-24979527D01*
X15653425Y-24997549D01*
X15594230Y-25275167D01*
X15588125Y-25295265D01*
X15504202Y-25505580D01*
X15493894Y-25525805D01*
X15393859Y-25684304D01*
X15380210Y-25702124D01*
X15356710Y-25727641D01*
X15347067Y-25735973D01*
X15347326Y-25736252D01*
X15148198Y-25921015D01*
X14984613Y-26126143D01*
X14853431Y-26353358D01*
X14757580Y-26597581D01*
X14699197Y-26853372D01*
X14679591Y-27115000D01*
X5490408Y-27115000D01*
X5470802Y-26853370D01*
X5412420Y-26597584D01*
X5411031Y-26594046D01*
X5329045Y-26385148D01*
X5316568Y-26353357D01*
X5185386Y-26126143D01*
X5021805Y-25921019D01*
X4982959Y-25884975D01*
X4829485Y-25742571D01*
X4793606Y-25718109D01*
X4612704Y-25594772D01*
X4376323Y-25480937D01*
X4125615Y-25403604D01*
X3866182Y-25364500D01*
X3603818Y-25364500D01*
X3344385Y-25403604D01*
X3093677Y-25480937D01*
X3011524Y-25520500D01*
X2857296Y-25594772D01*
X2810920Y-25626391D01*
X2640514Y-25742571D01*
X2448198Y-25921015D01*
X2284613Y-26126143D01*
X2153431Y-26353358D01*
X2057580Y-26597581D01*
X1999197Y-26853372D01*
X1979591Y-27114999D01*
X500Y-27114999D01*
X500Y-10885000D01*
X1979591Y-10885000D01*
X1999197Y-11146627D01*
X2057580Y-11402418D01*
X2153431Y-11646641D01*
X2153432Y-11646643D01*
X2284614Y-11873857D01*
X2448195Y-12078981D01*
X2448197Y-12078983D01*
X2448198Y-12078984D01*
X2640514Y-12257428D01*
X2640520Y-12257432D01*
X2640521Y-12257433D01*
X2857296Y-12405228D01*
X3093677Y-12519063D01*
X3344385Y-12596396D01*
X3603818Y-12635500D01*
X3866182Y-12635500D01*
X4125615Y-12596396D01*
X4376323Y-12519063D01*
X4612704Y-12405228D01*
X4829479Y-12257433D01*
X4829482Y-12257429D01*
X4829485Y-12257428D01*
X4980321Y-12117472D01*
X5021805Y-12078981D01*
X5185386Y-11873857D01*
X5316568Y-11646643D01*
X5412420Y-11402416D01*
X5470802Y-11146630D01*
X5490408Y-10885000D01*
X5470802Y-10623370D01*
X5412420Y-10367584D01*
X5316568Y-10123357D01*
X5185386Y-9896143D01*
X5021805Y-9691019D01*
X5021801Y-9691015D01*
X4829485Y-9512571D01*
X4812170Y-9500766D01*
X4612704Y-9364772D01*
X4376323Y-9250937D01*
X4125615Y-9173604D01*
X3866182Y-9134500D01*
X3603818Y-9134500D01*
X3344385Y-9173604D01*
X3093677Y-9250937D01*
X2857296Y-9364772D01*
X2787922Y-9412070D01*
X2640514Y-9512571D01*
X2448198Y-9691015D01*
X2284613Y-9896143D01*
X2153431Y-10123358D01*
X2057580Y-10367581D01*
X1999197Y-10623372D01*
X1979591Y-10885000D01*
X500Y-10885000D01*
X500Y-4000000D01*
X944693Y-4000000D01*
X944888Y-4003472D01*
X962540Y-4317807D01*
X963904Y-4342086D01*
X964483Y-4345496D01*
X964485Y-4345510D01*
X1020712Y-4676436D01*
X1020714Y-4676445D01*
X1021296Y-4679870D01*
X1022257Y-4683207D01*
X1022259Y-4683214D01*
X1115183Y-5005760D01*
X1115186Y-5005769D01*
X1116147Y-5009104D01*
X1117476Y-5012312D01*
X1117479Y-5012321D01*
X1172520Y-5145201D01*
X1247264Y-5325648D01*
X1248946Y-5328691D01*
X1411319Y-5622484D01*
X1411323Y-5622490D01*
X1412998Y-5625521D01*
X1611265Y-5904953D01*
X1613579Y-5907543D01*
X1613582Y-5907546D01*
X1717308Y-6023615D01*
X1839572Y-6160428D01*
X2095047Y-6388735D01*
X2374479Y-6587002D01*
X2674352Y-6752736D01*
X2990896Y-6883853D01*
X3320130Y-6978704D01*
X3657914Y-7036096D01*
X4000000Y-7055307D01*
X4342086Y-7036096D01*
X4679870Y-6978704D01*
X5009104Y-6883853D01*
X5325648Y-6752736D01*
X5625521Y-6587002D01*
X5904953Y-6388735D01*
X6160428Y-6160428D01*
X6388735Y-5904953D01*
X6465563Y-5796674D01*
X22024500Y-5796674D01*
X22030749Y-5854799D01*
X22079788Y-5986278D01*
X22163884Y-6098616D01*
X22276222Y-6182712D01*
X22407701Y-6231751D01*
X22465826Y-6238000D01*
X22469136Y-6238000D01*
X23030864Y-6238000D01*
X23034174Y-6238000D01*
X23092299Y-6231751D01*
X23223778Y-6182712D01*
X23336116Y-6098616D01*
X23420212Y-5986278D01*
X23469251Y-5854799D01*
X23475500Y-5796674D01*
X23475500Y-5721674D01*
X42024500Y-5721674D01*
X42030749Y-5779799D01*
X42079788Y-5911278D01*
X42163884Y-6023616D01*
X42276222Y-6107712D01*
X42407701Y-6156751D01*
X42465826Y-6163000D01*
X42469136Y-6163000D01*
X43030864Y-6163000D01*
X43034174Y-6163000D01*
X43092299Y-6156751D01*
X43223778Y-6107712D01*
X43336116Y-6023616D01*
X43420212Y-5911278D01*
X43469251Y-5779799D01*
X43475500Y-5721674D01*
X43475500Y-5128326D01*
X43469251Y-5070201D01*
X43443745Y-5001817D01*
X43442536Y-4998426D01*
X43440479Y-4992372D01*
X43440473Y-4992354D01*
X43440472Y-4992352D01*
X43438484Y-4986388D01*
X43436119Y-4981372D01*
X43420212Y-4938722D01*
X43336116Y-4826384D01*
X43327174Y-4819690D01*
X43299628Y-4791140D01*
X43283307Y-4767631D01*
X43277632Y-4758660D01*
X43220569Y-4659279D01*
X43216739Y-4652068D01*
X43202639Y-4623265D01*
X43190845Y-4554400D01*
X43202639Y-4514233D01*
X43216744Y-4485418D01*
X43220566Y-4478221D01*
X43248930Y-4428825D01*
X43277632Y-4378837D01*
X43283297Y-4369879D01*
X43299629Y-4346355D01*
X43327171Y-4317811D01*
X43336116Y-4311116D01*
X43420212Y-4198778D01*
X43439311Y-4147569D01*
X43442165Y-4141294D01*
X43443264Y-4137740D01*
X43443268Y-4137735D01*
X43443638Y-4136536D01*
X43445901Y-4129899D01*
X43469251Y-4067299D01*
X43475500Y-4009174D01*
X43475500Y-3340826D01*
X43469251Y-3282701D01*
X43420212Y-3151222D01*
X43336116Y-3038884D01*
X43223778Y-2954788D01*
X43092299Y-2905749D01*
X43037460Y-2899853D01*
X43037454Y-2899852D01*
X43034174Y-2899500D01*
X42465826Y-2899500D01*
X42462546Y-2899852D01*
X42462539Y-2899853D01*
X42407700Y-2905749D01*
X42276222Y-2954788D01*
X42163884Y-3038884D01*
X42079788Y-3151222D01*
X42030749Y-3282700D01*
X42025013Y-3336056D01*
X42024500Y-3340826D01*
X42024500Y-4009174D01*
X42024852Y-4012455D01*
X42024854Y-4012478D01*
X42030748Y-4067298D01*
X42053399Y-4128030D01*
X42054618Y-4131449D01*
X42059107Y-4144653D01*
X42061202Y-4150593D01*
X42064135Y-4156812D01*
X42079787Y-4198776D01*
X42079788Y-4198778D01*
X42159435Y-4305173D01*
X42163885Y-4311117D01*
X42172821Y-4317807D01*
X42200365Y-4346352D01*
X42216690Y-4369864D01*
X42222369Y-4378842D01*
X42279428Y-4478219D01*
X42283265Y-4485444D01*
X42297356Y-4514230D01*
X42309151Y-4583097D01*
X42297358Y-4623263D01*
X42283264Y-4652057D01*
X42279424Y-4659287D01*
X42222367Y-4758657D01*
X42216691Y-4767629D01*
X42200364Y-4791146D01*
X42172822Y-4819692D01*
X42163886Y-4826381D01*
X42079788Y-4938722D01*
X42035909Y-5056367D01*
X42030749Y-5070201D01*
X42024500Y-5128326D01*
X42024500Y-5721674D01*
X23475500Y-5721674D01*
X23475500Y-5203326D01*
X23469251Y-5145201D01*
X23443745Y-5076817D01*
X23442536Y-5073426D01*
X23440479Y-5067372D01*
X23440473Y-5067354D01*
X23440472Y-5067352D01*
X23438484Y-5061388D01*
X23436119Y-5056372D01*
X23420212Y-5013722D01*
X23336116Y-4901384D01*
X23327174Y-4894690D01*
X23299628Y-4866140D01*
X23283307Y-4842631D01*
X23277632Y-4833660D01*
X23220569Y-4734279D01*
X23216732Y-4727054D01*
X23172044Y-4635765D01*
X23160250Y-4566901D01*
X23172042Y-4526737D01*
X23216740Y-4435427D01*
X23220567Y-4428221D01*
X23277636Y-4328828D01*
X23283297Y-4319879D01*
X23299629Y-4296355D01*
X23327171Y-4267811D01*
X23336116Y-4261116D01*
X23420212Y-4148778D01*
X23439311Y-4097569D01*
X23442165Y-4091294D01*
X23443264Y-4087740D01*
X23443268Y-4087735D01*
X23443638Y-4086536D01*
X23445901Y-4079899D01*
X23469251Y-4017299D01*
X23475500Y-3959174D01*
X23475500Y-3290826D01*
X23469251Y-3232701D01*
X23420212Y-3101222D01*
X23336116Y-2988884D01*
X23223778Y-2904788D01*
X23092299Y-2855749D01*
X23037460Y-2849853D01*
X23037454Y-2849852D01*
X23034174Y-2849500D01*
X22465826Y-2849500D01*
X22462546Y-2849852D01*
X22462539Y-2849853D01*
X22407700Y-2855749D01*
X22276222Y-2904788D01*
X22163884Y-2988884D01*
X22079788Y-3101222D01*
X22030749Y-3232700D01*
X22025374Y-3282701D01*
X22024500Y-3290826D01*
X22024500Y-3959174D01*
X22024852Y-3962455D01*
X22024854Y-3962478D01*
X22030748Y-4017298D01*
X22053399Y-4078030D01*
X22054618Y-4081449D01*
X22059107Y-4094653D01*
X22061202Y-4100593D01*
X22064135Y-4106812D01*
X22078192Y-4144500D01*
X22079788Y-4148778D01*
X22158901Y-4254459D01*
X22163885Y-4261117D01*
X22172821Y-4267807D01*
X22200365Y-4296352D01*
X22216690Y-4319864D01*
X22222369Y-4328842D01*
X22279428Y-4428219D01*
X22283265Y-4435443D01*
X22293087Y-4455507D01*
X22327952Y-4526730D01*
X22339747Y-4595595D01*
X22327952Y-4635767D01*
X22283265Y-4727054D01*
X22279428Y-4734279D01*
X22222368Y-4833656D01*
X22216691Y-4842629D01*
X22200364Y-4866146D01*
X22172822Y-4894692D01*
X22163886Y-4901381D01*
X22079788Y-5013722D01*
X22058724Y-5070198D01*
X22030749Y-5145201D01*
X22024500Y-5203326D01*
X22024500Y-5796674D01*
X6465563Y-5796674D01*
X6587002Y-5625521D01*
X6752736Y-5325648D01*
X6882291Y-5012873D01*
X6902468Y-4979906D01*
X7016487Y-4846103D01*
X7033678Y-4829484D01*
X7033682Y-4829481D01*
X7213898Y-4686148D01*
X7238635Y-4670837D01*
X7454445Y-4570131D01*
X7523520Y-4559622D01*
X7546036Y-4564844D01*
X7562777Y-4570417D01*
X7573669Y-4574623D01*
X7627709Y-4598480D01*
X7666473Y-4615593D01*
X7676138Y-4620373D01*
X7747751Y-4659764D01*
X7762290Y-4669140D01*
X7763722Y-4670212D01*
X7764622Y-4670547D01*
X7773929Y-4674816D01*
X7777638Y-4676204D01*
X7777642Y-4676206D01*
X7846697Y-4702048D01*
X7846703Y-4702049D01*
X7849583Y-4703127D01*
X7860742Y-4706398D01*
X7895201Y-4719251D01*
X7953326Y-4725500D01*
X7956636Y-4725500D01*
X8643364Y-4725500D01*
X8646674Y-4725500D01*
X8704799Y-4719251D01*
X8836278Y-4670212D01*
X8948616Y-4586116D01*
X9032712Y-4473778D01*
X9081751Y-4342299D01*
X9088000Y-4284174D01*
X9088000Y-3715826D01*
X9081751Y-3657701D01*
X9032712Y-3526222D01*
X8948616Y-3413884D01*
X8836278Y-3329788D01*
X8704799Y-3280749D01*
X8704790Y-3280748D01*
X8649960Y-3274853D01*
X8649954Y-3274852D01*
X8646674Y-3274500D01*
X7953326Y-3274500D01*
X7950045Y-3274852D01*
X7950021Y-3274854D01*
X7895201Y-3280748D01*
X7794783Y-3318201D01*
X7788876Y-3320236D01*
X7775462Y-3324482D01*
X7764636Y-3329447D01*
X7763721Y-3329788D01*
X7762291Y-3330859D01*
X7747750Y-3340234D01*
X7676148Y-3379618D01*
X7666466Y-3384407D01*
X7573676Y-3425371D01*
X7562764Y-3429585D01*
X7546043Y-3435151D01*
X7476217Y-3437646D01*
X7454446Y-3429865D01*
X7238640Y-3329162D01*
X7213890Y-3313842D01*
X7033684Y-3170519D01*
X7016488Y-3153896D01*
X6971603Y-3101222D01*
X6902466Y-3020089D01*
X6882289Y-2987121D01*
X6752736Y-2674352D01*
X6587002Y-2374479D01*
X6388735Y-2095047D01*
X6160428Y-1839572D01*
X5904953Y-1611265D01*
X5901597Y-1608884D01*
X5782176Y-1524150D01*
X5625521Y-1412998D01*
X5622490Y-1411323D01*
X5622484Y-1411319D01*
X5328691Y-1248946D01*
X5325648Y-1247264D01*
X5322437Y-1245934D01*
X5322433Y-1245932D01*
X5012321Y-1117479D01*
X5012312Y-1117476D01*
X5009104Y-1116147D01*
X5005769Y-1115186D01*
X5005760Y-1115183D01*
X4683214Y-1022259D01*
X4683207Y-1022257D01*
X4679870Y-1021296D01*
X4676445Y-1020714D01*
X4676436Y-1020712D01*
X4345510Y-964485D01*
X4345496Y-964483D01*
X4342086Y-963904D01*
X4338622Y-963709D01*
X4338618Y-963709D01*
X4003472Y-944888D01*
X4000000Y-944693D01*
X3996528Y-944888D01*
X3661381Y-963709D01*
X3661375Y-963709D01*
X3657914Y-963904D01*
X3654505Y-964483D01*
X3654489Y-964485D01*
X3323563Y-1020712D01*
X3323550Y-1020714D01*
X3320130Y-1021296D01*
X3316796Y-1022256D01*
X3316785Y-1022259D01*
X2994239Y-1115183D01*
X2994224Y-1115188D01*
X2990896Y-1116147D01*
X2987692Y-1117473D01*
X2987678Y-1117479D01*
X2677566Y-1245932D01*
X2677555Y-1245937D01*
X2674352Y-1247264D01*
X2671313Y-1248943D01*
X2671308Y-1248946D01*
X2377515Y-1411319D01*
X2377500Y-1411327D01*
X2374479Y-1412998D01*
X2371653Y-1415002D01*
X2371650Y-1415005D01*
X2097884Y-1609251D01*
X2097872Y-1609260D01*
X2095047Y-1611265D01*
X2092464Y-1613572D01*
X2092453Y-1613582D01*
X1842157Y-1837261D01*
X1842148Y-1837269D01*
X1839572Y-1839572D01*
X1837269Y-1842148D01*
X1837261Y-1842157D01*
X1613582Y-2092453D01*
X1613572Y-2092464D01*
X1611265Y-2095047D01*
X1609260Y-2097872D01*
X1609251Y-2097884D01*
X1415005Y-2371650D01*
X1412998Y-2374479D01*
X1411327Y-2377500D01*
X1411319Y-2377515D01*
X1248946Y-2671308D01*
X1247264Y-2674352D01*
X1245937Y-2677555D01*
X1245932Y-2677566D01*
X1117479Y-2987678D01*
X1117473Y-2987692D01*
X1116147Y-2990896D01*
X1115188Y-2994224D01*
X1115183Y-2994239D01*
X1022259Y-3316785D01*
X1022256Y-3316796D01*
X1021296Y-3320130D01*
X1020714Y-3323550D01*
X1020712Y-3323563D01*
X964485Y-3654489D01*
X964483Y-3654505D01*
X963904Y-3657914D01*
X963709Y-3661375D01*
X963709Y-3661381D01*
X960466Y-3719135D01*
X944693Y-4000000D01*
X500Y-4000000D01*
X500Y-2004066D01*
X765Y-1995956D01*
X5986Y-1916297D01*
X11639Y-1837261D01*
X18708Y-1738421D01*
X20774Y-1723088D01*
X43153Y-1610579D01*
X44043Y-1606486D01*
X73793Y-1469727D01*
X77516Y-1456315D01*
X116264Y-1342167D01*
X117415Y-1338937D01*
X165061Y-1211195D01*
X170022Y-1199704D01*
X224459Y-1089316D01*
X226781Y-1084844D01*
X290867Y-967478D01*
X296545Y-958099D01*
X365641Y-854690D01*
X369431Y-849336D01*
X448840Y-743258D01*
X454833Y-735865D01*
X537166Y-641983D01*
X542653Y-636125D01*
X636125Y-542653D01*
X641983Y-537166D01*
X735865Y-454833D01*
X743258Y-448840D01*
X849336Y-369431D01*
X854690Y-365641D01*
X958099Y-296545D01*
X967478Y-290867D01*
X1084844Y-226781D01*
X1089316Y-224459D01*
X1199704Y-170022D01*
X1211196Y-165061D01*
X1338937Y-117415D01*
X1342167Y-116264D01*
X1456302Y-77520D01*
X1469763Y-73785D01*
X1610534Y-43161D01*
X1723123Y-20766D01*
X1738417Y-18708D01*
X1916134Y-5996D01*
X1987421Y-1324D01*
X1995959Y-765D01*
X2004065Y-500D01*
X79995933Y-500D01*
X80004043Y-765D01*
G37*
G04 #@! TD.AperFunction*
M02*
