G04 #@! TF.GenerationSoftware,KiCad,Pcbnew,7.0.2*
G04 #@! TF.CreationDate,2023-11-21T13:08:25+01:00*
G04 #@! TF.ProjectId,ZDG_ELEKTRONIKA_D-class_AMP,5a44475f-454c-4454-9b54-524f4e494b41,rev?*
G04 #@! TF.SameCoordinates,Original*
G04 #@! TF.FileFunction,Legend,Bot*
G04 #@! TF.FilePolarity,Positive*
%FSLAX46Y46*%
G04 Gerber Fmt 4.6, Leading zero omitted, Abs format (unit mm)*
G04 Created by KiCad (PCBNEW 7.0.2) date 2023-11-21 13:08:25*
%MOMM*%
%LPD*%
G01*
G04 APERTURE LIST*
%ADD10C,0.120000*%
%ADD11C,1.000000*%
%ADD12C,5.600000*%
%ADD13R,4.600000X2.000000*%
%ADD14O,4.200000X2.000000*%
%ADD15O,2.000000X4.200000*%
%ADD16C,3.000000*%
%ADD17C,2.000000*%
%ADD18R,1.500000X1.000000*%
G04 APERTURE END LIST*
D10*
X34000000Y-21750000D02*
X32000000Y-21750000D01*
X32000000Y-21750000D02*
X32000000Y-24550000D01*
X34000000Y-24550000D02*
X34000000Y-21750000D01*
X32000000Y-24550000D02*
X34000000Y-24550000D01*
X34000000Y-17750000D02*
X32000000Y-17750000D01*
X32000000Y-17750000D02*
X32000000Y-20550000D01*
X34000000Y-20550000D02*
X34000000Y-17750000D01*
X32000000Y-20550000D02*
X34000000Y-20550000D01*
X31250000Y-21750000D02*
X29250000Y-21750000D01*
X29250000Y-21750000D02*
X29250000Y-24550000D01*
X31250000Y-24550000D02*
X31250000Y-21750000D01*
X29250000Y-24550000D02*
X31250000Y-24550000D01*
X25750000Y-24550000D02*
X27750000Y-24550000D01*
X27750000Y-24550000D02*
X27750000Y-21750000D01*
X25750000Y-21750000D02*
X25750000Y-24550000D01*
X27750000Y-21750000D02*
X25750000Y-21750000D01*
X31250000Y-17750000D02*
X29250000Y-17750000D01*
X29250000Y-17750000D02*
X29250000Y-20550000D01*
X31250000Y-20550000D02*
X31250000Y-17750000D01*
X29250000Y-20550000D02*
X31250000Y-20550000D01*
%LPC*%
D11*
X1Y-1999999D02*
X1Y-35999999D01*
X80000001Y-38000001D02*
G75*
G03*
X82000001Y-35999999I-1J2000001D01*
G01*
X82000001Y-35999999D02*
X82000001Y-1999999D01*
X1Y-35999999D02*
G75*
G03*
X2000001Y-37999999I1999999J-1D01*
G01*
X82000001Y-1999999D02*
G75*
G03*
X80000001Y1I-2000001J-1D01*
G01*
X2000001Y-37999999D02*
X80000001Y-37999999D01*
X2000001Y1D02*
G75*
G03*
X1Y-1999999I-1J-1999999D01*
G01*
X2000001Y1D02*
X80000001Y1D01*
D12*
X78000000Y-34000000D03*
D13*
X30650000Y-14350000D03*
D14*
X30650000Y-8050000D03*
D15*
X25850000Y-11450000D03*
D16*
X74265000Y-9885000D03*
X74265000Y-26115000D03*
X61565000Y-9885000D03*
X61565000Y-26115000D03*
D17*
X61500000Y-5850000D03*
D12*
X78000000Y-4000000D03*
X4000000Y-4000000D03*
D16*
X3735000Y-27115000D03*
X3735000Y-10885000D03*
X16435000Y-27115000D03*
X16435000Y-10885000D03*
D17*
X65625000Y-5850000D03*
D12*
X4000000Y-34000000D03*
D18*
X33000000Y-22500000D03*
X33000000Y-23800000D03*
X33000000Y-18500000D03*
X33000000Y-19800000D03*
X30250000Y-22500000D03*
X30250000Y-23800000D03*
X26750000Y-23800000D03*
X26750000Y-22500000D03*
X30250000Y-18500000D03*
X30250000Y-19800000D03*
%LPD*%
M02*
