%TF.GenerationSoftware,KiCad,Pcbnew,7.0.2*%
%TF.CreationDate,2023-11-21T13:08:44+01:00*%
%TF.ProjectId,ZDG_ELEKTRONIKA_D-class_AMP,5a44475f-454c-4454-9b54-524f4e494b41,rev?*%
%TF.SameCoordinates,Original*%
%TF.FileFunction,Drillmap*%
%TF.FilePolarity,Positive*%
%FSLAX45Y45*%
G04 Gerber Fmt 4.5, Leading zero omitted, Abs format (unit mm)*
G04 Created by KiCad (PCBNEW 7.0.2) date 2023-11-21 13:08:44*
%MOMM*%
%LPD*%
G01*
G04 APERTURE LIST*
%ADD10C,0.100000*%
%ADD11C,0.200000*%
G04 APERTURE END LIST*
D10*
X0Y-200000D02*
X0Y-3600000D01*
X8200000Y-3600000D02*
X8200000Y-200000D01*
X0Y-3600000D02*
G75*
G03*
X200000Y-3800000I200000J0D01*
G01*
X8200000Y-200000D02*
G75*
G03*
X8000000Y0I-200000J0D01*
G01*
X8000000Y-3800000D02*
G75*
G03*
X8200000Y-3600000I0J200000D01*
G01*
X200000Y-3800000D02*
X8000000Y-3800000D01*
X200000Y0D02*
X8000000Y0D01*
X200000Y0D02*
G75*
G03*
X0Y-200000I0J-200000D01*
G01*
D11*
X242619Y-4117524D02*
X242619Y-3917524D01*
X242619Y-3917524D02*
X290238Y-3917524D01*
X290238Y-3917524D02*
X318810Y-3927048D01*
X318810Y-3927048D02*
X337857Y-3946095D01*
X337857Y-3946095D02*
X347381Y-3965143D01*
X347381Y-3965143D02*
X356905Y-4003238D01*
X356905Y-4003238D02*
X356905Y-4031809D01*
X356905Y-4031809D02*
X347381Y-4069905D01*
X347381Y-4069905D02*
X337857Y-4088952D01*
X337857Y-4088952D02*
X318810Y-4108000D01*
X318810Y-4108000D02*
X290238Y-4117524D01*
X290238Y-4117524D02*
X242619Y-4117524D01*
X442619Y-4117524D02*
X442619Y-3984190D01*
X442619Y-4022286D02*
X452143Y-4003238D01*
X452143Y-4003238D02*
X461667Y-3993714D01*
X461667Y-3993714D02*
X480714Y-3984190D01*
X480714Y-3984190D02*
X499762Y-3984190D01*
X566429Y-4117524D02*
X566429Y-3984190D01*
X566429Y-3917524D02*
X556905Y-3927048D01*
X556905Y-3927048D02*
X566429Y-3936571D01*
X566429Y-3936571D02*
X575952Y-3927048D01*
X575952Y-3927048D02*
X566429Y-3917524D01*
X566429Y-3917524D02*
X566429Y-3936571D01*
X690238Y-4117524D02*
X671190Y-4108000D01*
X671190Y-4108000D02*
X661667Y-4088952D01*
X661667Y-4088952D02*
X661667Y-3917524D01*
X795000Y-4117524D02*
X775952Y-4108000D01*
X775952Y-4108000D02*
X766428Y-4088952D01*
X766428Y-4088952D02*
X766428Y-3917524D01*
X1023571Y-4117524D02*
X1023571Y-3917524D01*
X1023571Y-3917524D02*
X1090238Y-4060381D01*
X1090238Y-4060381D02*
X1156905Y-3917524D01*
X1156905Y-3917524D02*
X1156905Y-4117524D01*
X1337857Y-4117524D02*
X1337857Y-4012762D01*
X1337857Y-4012762D02*
X1328333Y-3993714D01*
X1328333Y-3993714D02*
X1309286Y-3984190D01*
X1309286Y-3984190D02*
X1271190Y-3984190D01*
X1271190Y-3984190D02*
X1252143Y-3993714D01*
X1337857Y-4108000D02*
X1318810Y-4117524D01*
X1318810Y-4117524D02*
X1271190Y-4117524D01*
X1271190Y-4117524D02*
X1252143Y-4108000D01*
X1252143Y-4108000D02*
X1242619Y-4088952D01*
X1242619Y-4088952D02*
X1242619Y-4069905D01*
X1242619Y-4069905D02*
X1252143Y-4050857D01*
X1252143Y-4050857D02*
X1271190Y-4041333D01*
X1271190Y-4041333D02*
X1318810Y-4041333D01*
X1318810Y-4041333D02*
X1337857Y-4031809D01*
X1433095Y-3984190D02*
X1433095Y-4184190D01*
X1433095Y-3993714D02*
X1452143Y-3984190D01*
X1452143Y-3984190D02*
X1490238Y-3984190D01*
X1490238Y-3984190D02*
X1509286Y-3993714D01*
X1509286Y-3993714D02*
X1518809Y-4003238D01*
X1518809Y-4003238D02*
X1528333Y-4022286D01*
X1528333Y-4022286D02*
X1528333Y-4079428D01*
X1528333Y-4079428D02*
X1518809Y-4098476D01*
X1518809Y-4098476D02*
X1509286Y-4108000D01*
X1509286Y-4108000D02*
X1490238Y-4117524D01*
X1490238Y-4117524D02*
X1452143Y-4117524D01*
X1452143Y-4117524D02*
X1433095Y-4108000D01*
X1614048Y-4098476D02*
X1623571Y-4108000D01*
X1623571Y-4108000D02*
X1614048Y-4117524D01*
X1614048Y-4117524D02*
X1604524Y-4108000D01*
X1604524Y-4108000D02*
X1614048Y-4098476D01*
X1614048Y-4098476D02*
X1614048Y-4117524D01*
X1614048Y-3993714D02*
X1623571Y-4003238D01*
X1623571Y-4003238D02*
X1614048Y-4012762D01*
X1614048Y-4012762D02*
X1604524Y-4003238D01*
X1604524Y-4003238D02*
X1614048Y-3993714D01*
X1614048Y-3993714D02*
X1614048Y-4012762D01*
M02*
